<svg xmlns="http://www.w3.org/2000/svg" xmlns:xlink="http://www.w3.org/1999/xlink" width="25.575" height="25.618" viewBox="0 0 25.575 25.618">
  <defs>
    <linearGradient id="linear-gradient" y1="0.5" x2="1" y2="0.5" gradientUnits="objectBoundingBox">
      <stop offset="0" stop-color="#fbb040"/>
      <stop offset="0.04" stop-color="#fbb040"/>
      <stop offset="0.39" stop-color="#fec007"/>
      <stop offset="1" stop-color="#ffde17"/>
    </linearGradient>
  </defs>
  <g id="Layer_50" data-name="Layer 50" transform="translate(-1510.351 -928.977)">
    <path id="Path_367" data-name="Path 367" d="M1534.043,939.511c-.5-.318-1.223-.758-1.223-1.051a3.854,3.854,0,0,1,.453-1.712c.415-1.039.843-2.1.305-2.885s-1.687-.7-2.787-.611a3.654,3.654,0,0,1-1.638,0,4.123,4.123,0,0,1-.562-1.638c-.245-1.113-.5-2.262-1.418-2.567s-1.736.452-2.555,1.222c-.465.416-1.088.978-1.406.978s-.954-.562-1.418-.978c-.807-.746-1.651-1.5-2.555-1.222s-1.211,1.406-1.455,2.518a4.166,4.166,0,0,1-.575,1.626,3.436,3.436,0,0,1-1.638,0c-1.088-.1-2.225-.2-2.775.611s-.122,1.846.294,2.885a3.9,3.9,0,0,1,.464,1.712c-.1.293-.782.733-1.284,1.051-.941.587-1.919,1.222-1.919,2.2s.978,1.614,1.919,2.213c.5.318,1.223.746,1.284,1.039a3.95,3.95,0,0,1-.464,1.724c-.416,1.039-.844,2.1-.294,2.885s1.687.7,2.775.6a3.684,3.684,0,0,1,1.638.061,4.235,4.235,0,0,1,.575,1.626c.244,1.113.5,2.274,1.406,2.58a1.318,1.318,0,0,0,.415.159,3.672,3.672,0,0,0,2.14-1.223c.464-.416,1.1-.99,1.418-.99s.941.574,1.406.99c.819.734,1.662,1.5,2.555,1.223s1.222-1.467,1.418-2.58a4.065,4.065,0,0,1,.562-1.626,3.67,3.67,0,0,1,1.638-.061c1.1.1,2.225.208,2.788-.6s.109-1.846-.306-2.885a3.888,3.888,0,0,1-.452-1.724c.085-.293.77-.721,1.222-1.039.954-.6,1.932-1.222,1.932-2.213S1535,940.1,1534.043,939.511Zm-6.332-.966-5.416,7.091a.66.66,0,0,1-.452.232.59.59,0,0,1-.441-.183l-2.75-2.836a.612.612,0,0,1,0-.865l0,0a.6.6,0,0,1,.847-.008l.009.008,2.225,2.323,4.987-6.528a.611.611,0,0,1,.966.746Z" fill="url(#linear-gradient)"/>
  </g>
</svg>