<svg xmlns="http://www.w3.org/2000/svg" width="100.88" height="138.71" viewBox="0 0 100.88 138.71">
  <g id="Group_290" data-name="Group 290" transform="translate(-1666.804 -1184.603)">
    <circle id="Ellipse_31" data-name="Ellipse 31" cx="3.152" cy="3.152" r="3.152" transform="translate(1666.804 1184.603)" fill="#374047" opacity="0.5"/>
    <circle id="Ellipse_32" data-name="Ellipse 32" cx="3.152" cy="3.152" r="3.152" transform="translate(1666.804 1203.518)" fill="#374047" opacity="0.5"/>
    <circle id="Ellipse_33" data-name="Ellipse 33" cx="3.152" cy="3.152" r="3.152" transform="translate(1666.804 1222.433)" fill="#374047" opacity="0.5"/>
    <circle id="Ellipse_34" data-name="Ellipse 34" cx="3.152" cy="3.152" r="3.152" transform="translate(1666.804 1241.348)" fill="#374047" opacity="0.5"/>
    <circle id="Ellipse_35" data-name="Ellipse 35" cx="3.152" cy="3.152" r="3.152" transform="translate(1666.804 1260.263)" fill="#374047" opacity="0.5"/>
    <circle id="Ellipse_36" data-name="Ellipse 36" cx="3.152" cy="3.152" r="3.152" transform="translate(1666.804 1279.178)" fill="#374047" opacity="0.5"/>
    <circle id="Ellipse_37" data-name="Ellipse 37" cx="3.152" cy="3.152" r="3.152" transform="translate(1666.804 1298.093)" fill="#374047" opacity="0.5"/>
    <circle id="Ellipse_38" data-name="Ellipse 38" cx="3.152" cy="3.152" r="3.152" transform="translate(1666.804 1317.008)" fill="#374047" opacity="0.5"/>
    <circle id="Ellipse_39" data-name="Ellipse 39" cx="3.152" cy="3.152" r="3.152" transform="translate(1685.719 1184.603)" fill="#374047" opacity="0.5"/>
    <circle id="Ellipse_40" data-name="Ellipse 40" cx="3.152" cy="3.152" r="3.152" transform="translate(1685.719 1203.518)" fill="#374047" opacity="0.5"/>
    <circle id="Ellipse_41" data-name="Ellipse 41" cx="3.152" cy="3.152" r="3.152" transform="translate(1685.719 1222.433)" fill="#374047" opacity="0.5"/>
    <circle id="Ellipse_42" data-name="Ellipse 42" cx="3.152" cy="3.152" r="3.152" transform="translate(1685.719 1241.348)" fill="#374047" opacity="0.5"/>
    <circle id="Ellipse_43" data-name="Ellipse 43" cx="3.152" cy="3.152" r="3.152" transform="translate(1685.719 1260.263)" fill="#374047" opacity="0.5"/>
    <circle id="Ellipse_44" data-name="Ellipse 44" cx="3.152" cy="3.152" r="3.152" transform="translate(1685.719 1279.178)" fill="#374047" opacity="0.5"/>
    <circle id="Ellipse_45" data-name="Ellipse 45" cx="3.152" cy="3.152" r="3.152" transform="translate(1685.719 1298.093)" fill="#374047" opacity="0.5"/>
    <circle id="Ellipse_46" data-name="Ellipse 46" cx="3.152" cy="3.152" r="3.152" transform="translate(1685.719 1317.008)" fill="#374047" opacity="0.5"/>
    <circle id="Ellipse_47" data-name="Ellipse 47" cx="3.152" cy="3.152" r="3.152" transform="translate(1704.634 1184.603)" fill="#374047" opacity="0.5"/>
    <circle id="Ellipse_48" data-name="Ellipse 48" cx="3.152" cy="3.152" r="3.152" transform="translate(1704.634 1203.518)" fill="#374047" opacity="0.5"/>
    <circle id="Ellipse_49" data-name="Ellipse 49" cx="3.152" cy="3.152" r="3.152" transform="translate(1704.634 1222.433)" fill="#374047" opacity="0.5"/>
    <circle id="Ellipse_50" data-name="Ellipse 50" cx="3.152" cy="3.152" r="3.152" transform="translate(1704.634 1241.348)" fill="#374047" opacity="0.5"/>
    <circle id="Ellipse_51" data-name="Ellipse 51" cx="3.152" cy="3.152" r="3.152" transform="translate(1704.634 1260.263)" fill="#374047" opacity="0.5"/>
    <circle id="Ellipse_52" data-name="Ellipse 52" cx="3.152" cy="3.152" r="3.152" transform="translate(1704.634 1279.178)" fill="#374047" opacity="0.5"/>
    <circle id="Ellipse_53" data-name="Ellipse 53" cx="3.152" cy="3.152" r="3.152" transform="translate(1704.634 1298.093)" fill="#374047" opacity="0.5"/>
    <circle id="Ellipse_54" data-name="Ellipse 54" cx="3.152" cy="3.152" r="3.152" transform="translate(1704.634 1317.008)" fill="#374047" opacity="0.5"/>
    <circle id="Ellipse_55" data-name="Ellipse 55" cx="3.152" cy="3.152" r="3.152" transform="translate(1723.549 1184.603)" fill="#374047" opacity="0.5"/>
    <circle id="Ellipse_56" data-name="Ellipse 56" cx="3.152" cy="3.152" r="3.152" transform="translate(1723.549 1203.518)" fill="#374047" opacity="0.5"/>
    <circle id="Ellipse_57" data-name="Ellipse 57" cx="3.152" cy="3.152" r="3.152" transform="translate(1723.549 1222.433)" fill="#374047" opacity="0.5"/>
    <circle id="Ellipse_58" data-name="Ellipse 58" cx="3.152" cy="3.152" r="3.152" transform="translate(1723.549 1241.348)" fill="#374047" opacity="0.5"/>
    <circle id="Ellipse_59" data-name="Ellipse 59" cx="3.152" cy="3.152" r="3.152" transform="translate(1723.549 1260.263)" fill="#374047" opacity="0.5"/>
    <circle id="Ellipse_60" data-name="Ellipse 60" cx="3.152" cy="3.152" r="3.152" transform="translate(1723.549 1279.178)" fill="#374047" opacity="0.5"/>
    <circle id="Ellipse_61" data-name="Ellipse 61" cx="3.152" cy="3.152" r="3.152" transform="translate(1723.549 1298.093)" fill="#374047" opacity="0.5"/>
    <circle id="Ellipse_62" data-name="Ellipse 62" cx="3.152" cy="3.152" r="3.152" transform="translate(1723.549 1317.008)" fill="#374047" opacity="0.5"/>
    <circle id="Ellipse_63" data-name="Ellipse 63" cx="3.152" cy="3.152" r="3.152" transform="translate(1742.464 1184.603)" fill="#374047" opacity="0.5"/>
    <circle id="Ellipse_64" data-name="Ellipse 64" cx="3.152" cy="3.152" r="3.152" transform="translate(1742.464 1203.518)" fill="#374047" opacity="0.5"/>
    <circle id="Ellipse_65" data-name="Ellipse 65" cx="3.152" cy="3.152" r="3.152" transform="translate(1742.464 1222.433)" fill="#374047" opacity="0.5"/>
    <circle id="Ellipse_66" data-name="Ellipse 66" cx="3.152" cy="3.152" r="3.152" transform="translate(1742.464 1241.348)" fill="#374047" opacity="0.5"/>
    <circle id="Ellipse_67" data-name="Ellipse 67" cx="3.152" cy="3.152" r="3.152" transform="translate(1742.464 1260.263)" fill="#374047" opacity="0.5"/>
    <circle id="Ellipse_68" data-name="Ellipse 68" cx="3.152" cy="3.152" r="3.152" transform="translate(1742.464 1279.178)" fill="#374047" opacity="0.5"/>
    <circle id="Ellipse_69" data-name="Ellipse 69" cx="3.152" cy="3.152" r="3.152" transform="translate(1742.464 1298.093)" fill="#374047" opacity="0.5"/>
    <circle id="Ellipse_70" data-name="Ellipse 70" cx="3.152" cy="3.152" r="3.152" transform="translate(1742.464 1317.008)" fill="#374047" opacity="0.5"/>
    <circle id="Ellipse_71" data-name="Ellipse 71" cx="3.152" cy="3.152" r="3.152" transform="translate(1761.379 1184.603)" fill="#374047" opacity="0.5"/>
    <circle id="Ellipse_72" data-name="Ellipse 72" cx="3.152" cy="3.152" r="3.152" transform="translate(1761.379 1203.518)" fill="#374047" opacity="0.5"/>
    <circle id="Ellipse_73" data-name="Ellipse 73" cx="3.152" cy="3.152" r="3.152" transform="translate(1761.379 1222.433)" fill="#374047" opacity="0.5"/>
    <circle id="Ellipse_74" data-name="Ellipse 74" cx="3.152" cy="3.152" r="3.152" transform="translate(1761.379 1241.348)" fill="#374047" opacity="0.5"/>
    <circle id="Ellipse_75" data-name="Ellipse 75" cx="3.152" cy="3.152" r="3.152" transform="translate(1761.379 1260.263)" fill="#374047" opacity="0.5"/>
    <circle id="Ellipse_76" data-name="Ellipse 76" cx="3.152" cy="3.152" r="3.152" transform="translate(1761.379 1279.178)" fill="#374047" opacity="0.5"/>
    <circle id="Ellipse_77" data-name="Ellipse 77" cx="3.152" cy="3.152" r="3.152" transform="translate(1761.379 1298.093)" fill="#374047" opacity="0.5"/>
    <circle id="Ellipse_78" data-name="Ellipse 78" cx="3.152" cy="3.152" r="3.152" transform="translate(1761.379 1317.008)" fill="#374047" opacity="0.5"/>
  </g>
</svg>
