<svg xmlns="http://www.w3.org/2000/svg" xmlns:xlink="http://www.w3.org/1999/xlink" viewBox="0 0 112.24 72.06"><defs><style>.cls-1{fill:none;}.cls-2{fill:#fff;}.cls-3{clip-path:url(#clip-path);}.cls-4{fill:url(#radial-gradient);}</style><clipPath id="clip-path" transform="translate(8.51 8.5)"><path class="cls-1" d="M25.73,54A1.69,1.69,0,0,1,25,52.55a2.52,2.52,0,0,1,1-2h0l.09-.07a3.61,3.61,0,0,0,1.38-2.17,3.57,3.57,0,0,0,1.38,2.18l.06,0,0,0,.05,0a2.53,2.53,0,0,1,1,2,1.94,1.94,0,0,1-1.88,1.92,4.3,4.3,0,0,1-.63,0h0A3,3,0,0,1,25.73,54m-6.54-.83a3.07,3.07,0,0,1-1.56-1,1.69,1.69,0,0,1-.23-1.62A2.49,2.49,0,0,1,19,48.94h0l.1,0a3.59,3.59,0,0,0,2-1.65,3.55,3.55,0,0,0,.64,2.51l0,.05,0,0,0,.06a2.55,2.55,0,0,1,.32,2.21,1.71,1.71,0,0,1-1.43,1.25,2.83,2.83,0,0,1-.41,0,4.05,4.05,0,0,1-1.15-.19M34,53.28a1.7,1.7,0,0,1-1.13-1.18,2.51,2.51,0,0,1,.35-2.25h0l.07-.09a3.51,3.51,0,0,0,.63-2.5,3.58,3.58,0,0,0,2,1.65l.06,0h0l.07,0a2.52,2.52,0,0,1,1.55,1.6c.57,1.72-1.22,2.45-1.78,2.64a3.93,3.93,0,0,1-.64.15,3,3,0,0,1-.51,0,2.35,2.35,0,0,1-.71-.11m-10.07-3a2.43,2.43,0,0,1-1.69-.77.35.35,0,0,0,0-.08,3,3,0,0,1-.52-2.26,2.85,2.85,0,0,1,3.14-2.48A2.84,2.84,0,0,1,27,48a3,3,0,0,1-1.18,2h0l-.09.07h0a1.43,1.43,0,0,1-.63.24,2.22,2.22,0,0,1-.37,0,5.91,5.91,0,0,1-.8-.07m5.36-.22-.07,0A3,3,0,0,1,28,48a2.72,2.72,0,1,1,5.35-.85,3,3,0,0,1-.52,2.26h0l-.06.09h0a2.35,2.35,0,0,1-1.66.74,4.81,4.81,0,0,1-.8.08,1.78,1.78,0,0,1-1-.29M13.47,45.22a3.62,3.62,0,0,0,1.86-.91,3.6,3.6,0,0,0-.16,2.58.14.14,0,0,1,0,.06v0a.64.64,0,0,1,0,.07,2.48,2.48,0,0,1-.37,2.19c-1.07,1.47-2.71.46-3.18.11a3.1,3.1,0,0,1-1.18-1.45,1.73,1.73,0,0,1,.29-1.61,2.51,2.51,0,0,1,2-1h.13a4.55,4.55,0,0,0,.53,0m26.73,4A2.51,2.51,0,0,1,39.84,47v0l0-.1a3.57,3.57,0,0,0-.16-2.57,3.55,3.55,0,0,0,2.41.95h.16a2.51,2.51,0,0,1,2,1c1.07,1.47-.4,2.72-.88,3.06A3.26,3.26,0,0,1,42,50a1.66,1.66,0,0,1-.32,0h0a1.7,1.7,0,0,1-1.43-.77M17.08,48a2.43,2.43,0,0,1-1.37-1.25l0-.09a3.06,3.06,0,0,1,.21-2.31A2.84,2.84,0,0,1,19.64,43a2.83,2.83,0,0,1,1.08,3.84A3.06,3.06,0,0,1,19,48.38h0l-.1,0h0l-.17,0-.24,0A3.09,3.09,0,0,1,17.08,48m19.09.36-.09,0a3.06,3.06,0,0,1-1.75-1.53,2.72,2.72,0,1,1,4.83-2.46,3,3,0,0,1,.21,2.31h0l0,.1h0A2.45,2.45,0,0,1,38,48a4.17,4.17,0,0,1-1.1.41l-.27,0a1.31,1.31,0,0,1-.44-.07M24.89,44.11a.59.59,0,0,1-.32-.17l-.6-.61a1.17,1.17,0,0,1-.25-1,1.15,1.15,0,0,1,.55-.83l.75-.39a.58.58,0,0,1,.69.11l.59.61a1.08,1.08,0,0,1,.26.86v.09a1.14,1.14,0,0,1-.54.84l-.75.39a.76.76,0,0,1-.2.06h-.17m4.89-.06L29,43.66a1.17,1.17,0,0,1-.53-.84,1.12,1.12,0,0,1,.26-1l.59-.6a.59.59,0,0,1,.7-.11l.74.39a1.12,1.12,0,0,1,.52.75v.09a1.15,1.15,0,0,1-.25,1l-.6.6a.51.51,0,0,1-.32.17h-.09a.58.58,0,0,1-.28-.07m-4.08.34.54-.27a1.67,1.67,0,0,0,.82-1.21.28.28,0,0,1,0-.09L27.52,40a.15.15,0,0,0,0-.07v0L28,42.89a1.65,1.65,0,0,0,.8,1.22l.55.29a3.36,3.36,0,0,0-1.81,2.36,3.37,3.37,0,0,0-1.83-2.37m-15-4.67a3.55,3.55,0,0,0-1,2.41v.16a2.51,2.51,0,0,1-1,2,1.86,1.86,0,0,1-.83.36C6.84,44.8,6,43.77,5.7,43.38A3.05,3.05,0,0,1,5,41.64,1.72,1.72,0,0,1,5.8,40.2a2.53,2.53,0,0,1,2.26-.36h0l.1,0a3.52,3.52,0,0,0,2.57-.16m35.55,4.55a2.51,2.51,0,0,1-1-2v-.13a3.54,3.54,0,0,0-.95-2.39,3.6,3.6,0,0,0,2.58.16l.06,0h0l.07,0a2.48,2.48,0,0,1,2.19.37c1.47,1.07.46,2.71.11,3.18a3.1,3.1,0,0,1-1.45,1.18l-.28.07-.26,0a1.84,1.84,0,0,1-1.07-.38m-26.4-1.78a.66.66,0,0,1-.25-.27l-.37-.76a1.12,1.12,0,0,1,.05-1,1.11,1.11,0,0,1,.77-.62l.84-.14a.56.56,0,0,1,.62.32l.38.76a1.13,1.13,0,0,1,0,.9l0,.08a1.14,1.14,0,0,1-.78.63l-.83.14h-.11a.76.76,0,0,1-.26-.06m14.89,0-.84-.14a1.11,1.11,0,0,1-.76-.63,1.16,1.16,0,0,1-.06-1L33.5,40a.57.57,0,0,1,.63-.31l.84.14a1.07,1.07,0,0,1,.71.54l0,.09a1.12,1.12,0,0,1,.05,1l-.38.76a.55.55,0,0,1-.26.26.3.3,0,0,1-.16,0h-.2M20.58,43l.6-.1a1.64,1.64,0,0,0,1.14-.9.2.2,0,0,0,0-.08l1.31-2.55,0-.06a.43.43,0,0,0,0,0l-.47,2.92a1.65,1.65,0,0,0,.38,1.4l.44.44a3.37,3.37,0,0,0-2.46,1.69,3.35,3.35,0,0,0-1-2.81M31,44.13l.42-.43a1.66,1.66,0,0,0,.4-1.4.29.29,0,0,0,0-.09l-.43-2.83a.64.64,0,0,1,0-.07s0,0,0,0L32.71,42a1.68,1.68,0,0,0,1.14.91l.62.1a3.36,3.36,0,0,0-1,2.81A3.36,3.36,0,0,0,31,44.13m-19.76-.32a2.42,2.42,0,0,1-.91-1.61v-.05h0v0A3,3,0,0,1,11.25,40a2.85,2.85,0,0,1,4-.16,2.84,2.84,0,0,1-.17,4,3.09,3.09,0,0,1-1.69.88,3.25,3.25,0,0,1-.44,0h-.13a2.39,2.39,0,0,1-1.57-.9M40,43.8A2.72,2.72,0,1,1,43.8,40a3,3,0,0,1,.91,2.13h0v.11h0a2.39,2.39,0,0,1-.9,1.57,2.64,2.64,0,0,1-1.41.89l-.21,0H42.1A3,3,0,0,1,40,43.8M24.19,39.45a1.14,1.14,0,0,1,.54-.84l.75-.38a.56.56,0,0,1,.7.11l.59.6a1.16,1.16,0,0,1,.25,1l-.27,1.69-.08-.09-.59-.6a1.08,1.08,0,0,0-.62-.33,1,1,0,0,0-.68.12l-.75.38-.11.07ZM28,39.9a1.13,1.13,0,0,1,.26-1l.59-.59a.56.56,0,0,1,.7-.11l.74.39a1.11,1.11,0,0,1,.54.84l.26,1.69-.1-.06-.75-.39a1,1,0,0,0-.68-.12,1,1,0,0,0-.61.32l-.6.6-.09.1Zm-10.89.29a1.78,1.78,0,0,0,1-.49l.06-.07,2-2,0,0s0,0,0,0l-1.35,2.63a1.66,1.66,0,0,0-.07,1.45l.28.56a3.35,3.35,0,0,0-2.86.85,3.41,3.41,0,0,0-.08-3l.6.09.19,0,.22,0M36.24,41.7a1.65,1.65,0,0,0-.05-1.45.35.35,0,0,0,0-.08l-1.29-2.56,0-.06,0,0,2.08,2.1a1.7,1.7,0,0,0,1.37.51l.61-.09a3.38,3.38,0,0,0-.08,3A3.36,3.36,0,0,0,36,42.24Zm-9.11-3.11-.58-.6a1.65,1.65,0,0,0,1-.76,1.6,1.6,0,0,0,1,.76l-.58.58a1.53,1.53,0,0,0-.4.89,1.47,1.47,0,0,0-.4-.87m-6.46-.75a1.15,1.15,0,0,1,.77-.63l.84-.14a.57.57,0,0,1,.62.32l.38.76a1.16,1.16,0,0,1-.06,1l-.79,1.53a.49.49,0,0,0,0-.11L22,39.8a1.16,1.16,0,0,0-.48-.5,1.12,1.12,0,0,0-.68-.1l-.84.14-.13,0Zm11.17,1.29a1.16,1.16,0,0,1-.06-1l.38-.76a.57.57,0,0,1,.63-.31l.83.14a1.11,1.11,0,0,1,.77.63l.78,1.53-.12,0-.83-.14a1.14,1.14,0,0,0-.69.1,1.08,1.08,0,0,0-.48.49l-.38.76a.61.61,0,0,0-.05.12Zm5.46.2A1.15,1.15,0,0,1,37,38.4l.12-.83a.57.57,0,0,1,.5-.5l.84-.12a1.08,1.08,0,0,1,.85.29l.07.07a1.16,1.16,0,0,1,.36.93l-.13.83a.64.64,0,0,1-.16.34.73.73,0,0,1-.33.16h0l-.83.12h-.12a1.23,1.23,0,0,1-.81-.37m-20.49.36L16,39.56a.58.58,0,0,1-.34-.17.57.57,0,0,1-.16-.33l-.12-.83a1.18,1.18,0,0,1,.36-.93,1.15,1.15,0,0,1,.93-.35l.84.12a.57.57,0,0,1,.49.5l.13.84a1.11,1.11,0,0,1-.3.85l-.07.07a1.18,1.18,0,0,1-.67.35l-.14,0h-.12m6.88-2.53a1.69,1.69,0,0,0,.84-.4,1.61,1.61,0,0,0,.7,1l-.73.38a1.52,1.52,0,0,0-.66.71,1.53,1.53,0,0,0-.1-.95l-.38-.74h.07l.26,0m6.88,1-.74-.38a1.61,1.61,0,0,0,.69-1,1.7,1.7,0,0,0,1.18.42l-.37.73a1.48,1.48,0,0,0-.11,1,1.61,1.61,0,0,0-.65-.71m3.14-1.46-.82-.14a1.66,1.66,0,0,0,.34-1.18,1.62,1.62,0,0,0,1.24,0l-.12.81a1.59,1.59,0,0,0,.19,1,1.54,1.54,0,0,0-.83-.48M21.82,35.38a1.64,1.64,0,0,0,.35,1.19l-.81.13a1.6,1.6,0,0,0-.84.48,1.58,1.58,0,0,0,.19-.94l-.12-.82a1.54,1.54,0,0,0,.56.1,1.71,1.71,0,0,0,.67-.14m4.11,2.21a1.19,1.19,0,1,1,.37,0l-.18,0-.19,0m1.83-1a1.19,1.19,0,1,1,1.36,1h-.18a1.19,1.19,0,0,1-1.18-1m-9.15,1.73-.12-.84a1.18,1.18,0,0,0-.31-.63,1.1,1.1,0,0,0-.62-.3l-.83-.13h-.14l1.23-1.22a1.15,1.15,0,0,1,.93-.35l.83.12a.58.58,0,0,1,.5.5l.12.84a1.1,1.1,0,0,1-.36.92l-1.22,1.22a.41.41,0,0,0,0-.12m16.6-1.11a1.15,1.15,0,0,1-.36-.93l.13-.83a.57.57,0,0,1,.5-.5l.84-.12a1.1,1.1,0,0,1,.92.36l1.22,1.22h-.13l-.83.12a1.18,1.18,0,0,0-.63.31,1.1,1.1,0,0,0-.3.62l-.13.83a.66.66,0,0,0,0,.14Zm-21-.87a1.7,1.7,0,0,0,.54-.17l.08,0,2.56-1.29.06,0,0,0-2.1,2.08a1.7,1.7,0,0,0-.51,1.37l.09.61a3.38,3.38,0,0,0-3-.08A3.35,3.35,0,0,0,12.81,36l.54.27a1.37,1.37,0,0,0,.64.15,1.24,1.24,0,0,0,.27,0m25.93,2A1.63,1.63,0,0,0,39.7,37l-.07-.06-2-2,0,0,0,0,2.63,1.35a1.62,1.62,0,0,0,1.45.07l.56-.28a3.35,3.35,0,0,0,.85,2.86,3.41,3.41,0,0,0-3,.08ZM22.9,36.61A1.19,1.19,0,1,1,24,34.49a1.18,1.18,0,0,1-.36,2.23l-.18,0a1.13,1.13,0,0,1-.54-.13m7.66-.52a1.19,1.19,0,1,1,1.59.52,1.1,1.1,0,0,1-.35.11l-.18,0a1.19,1.19,0,0,1-1.06-.65M8.35,39.37h0l-.1,0h0A2.45,2.45,0,0,1,7,38a2.4,2.4,0,0,1-.36-1.81s0-.06,0-.09A3.1,3.1,0,0,1,8.2,34.33a2.85,2.85,0,0,1,3.85,1.09,2.84,2.84,0,0,1-1.39,3.74,3.41,3.41,0,0,1-.95.31,3.57,3.57,0,0,1-.47,0,3,3,0,0,1-.89-.14m36-.21a2.72,2.72,0,1,1,2.46-4.83,3.06,3.06,0,0,1,1.53,1.75h0l0,.1h0A2.38,2.38,0,0,1,48,38a2.43,2.43,0,0,1-1.25,1.37l-.09,0a3.34,3.34,0,0,1-.43.1,3.73,3.73,0,0,1-.46,0,3.14,3.14,0,0,1-1.42-.35m-17-3.95A.91.91,0,0,1,26.9,35a.9.9,0,0,1-.25-.62.87.87,0,0,1,.87-.88.85.85,0,0,1,.62.26.84.84,0,0,1,.26.62.88.88,0,0,1-.74.86h-.28m1.85-.42a.84.84,0,0,1-.43-.51.87.87,0,0,1,.56-1.1.92.92,0,0,1,.67,0,.87.87,0,0,1,.43.51.88.88,0,0,1-.56,1.11l-.14,0h-.13a.82.82,0,0,1-.4-.1m-4.09.05L25,34.79a.84.84,0,0,1-.39-.38.92.92,0,0,1-.05-.67.87.87,0,0,1,1.1-.56.84.84,0,0,1,.51.43.87.87,0,0,1,.06.67.89.89,0,0,1-.7.6h-.14a.86.86,0,0,1-.27,0m15.33.89a1.13,1.13,0,0,1-.63-.77l-.13-.84A.56.56,0,0,1,40,33.5l.76-.38a1.13,1.13,0,0,1,.9,0l.08,0a1.14,1.14,0,0,1,.63.78l.14.83a.55.55,0,0,1-.32.62l-.76.38a.84.84,0,0,1-.24.07h-.16a1.28,1.28,0,0,1-.59-.14m-26.89.05-.76-.38a.57.57,0,0,1-.31-.62l.14-.84a1.11,1.11,0,0,1,.63-.76,1.16,1.16,0,0,1,1-.06l.76.38a.59.59,0,0,1,.32.63L15.2,35a1.06,1.06,0,0,1-.54.72l-.09,0a1.17,1.17,0,0,1-.39.12.65.65,0,0,1-.19,0,.91.91,0,0,1-.41-.09m4.77-2.07.14-.82a1.68,1.68,0,0,0,1.19.34,1.57,1.57,0,0,0,0,1.24l-.81-.12a1.54,1.54,0,0,0-.95.19,1.55,1.55,0,0,0,.47-.83m17.46-.49a1.64,1.64,0,0,0,.76-.34l.13.81a1.5,1.5,0,0,0,.48.84,1.58,1.58,0,0,0-.94-.19l-.82.13a1.66,1.66,0,0,0,0-1.24h.17l.26,0m12.44.7a3.58,3.58,0,0,0,1.51-.63l.05,0h0l.06,0a2.52,2.52,0,0,1,2.21-.33c1.72.56,1.27,2.43,1.09,3a3.15,3.15,0,0,1-1,1.57,1.71,1.71,0,0,1-1.62.22A2.49,2.49,0,0,1,48.94,36h0l0-.11a3.59,3.59,0,0,0-1.65-2,3.11,3.11,0,0,0,.43,0,5.46,5.46,0,0,0,.57,0M1.87,35.86A3,3,0,0,1,1.77,34,1.7,1.7,0,0,1,3,32.87a2.51,2.51,0,0,1,2.25.35h0l.09.07a3.55,3.55,0,0,0,2.5.63,3.58,3.58,0,0,0-1.65,2l0,.06v0a.64.64,0,0,0,0,.07,2.5,2.5,0,0,1-1.59,1.55l-.35.09a1.46,1.46,0,0,1-.29,0h0c-1.28,0-1.85-1.4-2-1.89m18.45-1.13a1.18,1.18,0,0,1,0-1.68,1.19,1.19,0,1,1,1,2h-.18a1.18,1.18,0,0,1-.84-.35m12.73,0a1.19,1.19,0,0,1,1.68-1.68,1.18,1.18,0,0,1,0,1.68,1.15,1.15,0,0,1-.65.34h-.19a1.22,1.22,0,0,1-.84-.35m-1.65-.82A.88.88,0,0,1,31,32.34a.88.88,0,0,1,1,1.42l-.12.07a.79.79,0,0,1-.26.08H31.4M23,33.75l-.11-.09a.88.88,0,0,1-.24-.48.84.84,0,0,1,.16-.65.88.88,0,0,1,1.57.38.89.89,0,0,1-.16.65.91.91,0,0,1-.57.35h-.14a.87.87,0,0,1-.51-.17m-7.29,1.3.14-.83a1.14,1.14,0,0,0-.1-.69,1.08,1.08,0,0,0-.49-.48l-.76-.38-.12-.05,1.54-.78a1.16,1.16,0,0,1,1-.06l.76.38a.59.59,0,0,1,.32.63l-.15.83a1.11,1.11,0,0,1-.63.77l-1.53.78,0-.12m22.13-.67a1.13,1.13,0,0,1-.63-.77l-.14-.84a.57.57,0,0,1,.32-.62l.76-.38a1.16,1.16,0,0,1,1,.06l1.53.79-.11,0L39.8,33a1.16,1.16,0,0,0-.5.48,1.14,1.14,0,0,0-.1.69l.14.83,0,.13Zm5.85-2.93.44-.44a3.37,3.37,0,0,0,1.69,2.46,3.34,3.34,0,0,0-2.81,1l-.1-.6a1.64,1.64,0,0,0-.9-1.14l-.08,0-2.55-1.31-.06,0h0l2.92.47a1.43,1.43,0,0,0,.29,0,1.61,1.61,0,0,0,1.11-.41M10.92,31l.43.42a1.66,1.66,0,0,0,1.4.4l.09,0,2.83-.43.07,0-.05,0-2.64,1.34a1.64,1.64,0,0,0-.91,1.13l-.1.62a3.36,3.36,0,0,0-2.81-1A3.34,3.34,0,0,0,10.92,31m21.61,1.24A.88.88,0,0,1,32.34,31a.86.86,0,0,1,.57-.35.89.89,0,0,1,.65.16.88.88,0,0,1,.19,1.22l-.09.11a.88.88,0,0,1-.48.24H33a.86.86,0,0,1-.51-.16m-11.23-.2-.08-.12a.89.89,0,0,1-.08-.53A.88.88,0,0,1,22.71,31a.84.84,0,0,1,.16.65.89.89,0,0,1-.35.57,1,1,0,0,1-.38.16H22a.89.89,0,0,1-.71-.36m-2.86.1a1.19,1.19,0,1,1,1.6.52,1.21,1.21,0,0,1-.35.12H19.5a1.18,1.18,0,0,1-1.06-.65M35,32.67a1.19,1.19,0,1,1,1.6-.52,1.21,1.21,0,0,1-.87.64h-.19a1.16,1.16,0,0,1-.54-.13m-18.12-2.1.38-.74a1.6,1.6,0,0,0,1,.69,1.66,1.66,0,0,0-.43,1.18l-.73-.37a1.48,1.48,0,0,0-1-.11,1.55,1.55,0,0,0,.71-.65m19.86-.05a1.57,1.57,0,0,0,1-.7l.38.73a1.52,1.52,0,0,0,.71.66,1.46,1.46,0,0,0-.95.11l-.74.37a1.68,1.68,0,0,0-.43-1.17m-3-.05a.87.87,0,0,1-.56-1.1.83.83,0,0,1,.44-.51.84.84,0,0,1,.66-.06.88.88,0,0,1,.56,1.11,1.12,1.12,0,0,1-.05.13.8.8,0,0,1-.38.37.62.62,0,0,1-.26.09H34a.86.86,0,0,1-.28,0M20.2,29.9l0-.14a.83.83,0,0,1,.09-.53.84.84,0,0,1,.51-.43.87.87,0,0,1,1.1.56.92.92,0,0,1-.05.67.87.87,0,0,1-.51.43.35.35,0,0,1-.14,0l-.13,0a.89.89,0,0,1-.84-.61m22.17,1.43a1.14,1.14,0,0,1-.83-.54L41.15,30a.59.59,0,0,1,.11-.7l.61-.59a1.08,1.08,0,0,1,.86-.26h.1a1.17,1.17,0,0,1,.83.54l.39.75a.62.62,0,0,1,.06.37.66.66,0,0,1-.17.33l-.61.59a1,1,0,0,1-.54.25h-.42m-30.66-.26-.6-.6a.56.56,0,0,1-.17-.32.61.61,0,0,1,.06-.37l.4-.75a1.22,1.22,0,0,1,1.79-.27l.6.59a.56.56,0,0,1,.11.7l-.39.74a1.12,1.12,0,0,1-.75.52h-.09l-.21,0a1.09,1.09,0,0,1-.75-.27M14,31l.39-.75a1,1,0,0,0,.12-.68,1,1,0,0,0-.32-.61l-.6-.6-.1-.09L15.16,28a1.12,1.12,0,0,1,1,.26l.6.59a.57.57,0,0,1,.1.7l-.39.74a1.11,1.11,0,0,1-.83.54h0l-1.69.26L14,31m25.49-.17a1.14,1.14,0,0,1-.84-.54l-.38-.75a.56.56,0,0,1,.11-.7l.6-.59a1.16,1.16,0,0,1,1-.25l1.69.28-.09.07-.6.59a1.15,1.15,0,0,0-.33.62,1,1,0,0,0,.12.68l.38.75.07.11Zm-33.82,2h0l-.09-.06h0a2.4,2.4,0,0,1-.74-1.66A2.43,2.43,0,0,1,5,29.29l0-.07A3,3,0,0,1,7,28a2.72,2.72,0,1,1,.85,5.35h0a4,4,0,0,1-.5,0,2.92,2.92,0,0,1-1.75-.56m41.53.52A2.72,2.72,0,1,1,48,28a3,3,0,0,1,2,1.19h0l.06.08h0a2.46,2.46,0,0,1,.2,1.8,2.43,2.43,0,0,1-.78,1.69l-.07,0a3,3,0,0,1-1.27.52,3.88,3.88,0,0,1-.48,0,4.38,4.38,0,0,1-.51,0m-29.7-4.26a1.18,1.18,0,1,1,1.35,1h-.18a1.19,1.19,0,0,1-1.17-1m18.78,1a1.19,1.19,0,0,1,.37-2.35,1.19,1.19,0,0,1,0,2.35h-.37m-2.77-2.58a.85.85,0,0,1,.26-.62.84.84,0,0,1,.62-.26.88.88,0,0,1,.87.88.66.66,0,0,1,0,.14.88.88,0,0,1-.24.48.91.91,0,0,1-.49.24h-.13a.87.87,0,0,1-.88-.87m-13.64,0a.66.66,0,0,1,0-.14.87.87,0,0,1,.86-.73.87.87,0,0,1,.88.87.89.89,0,0,1-.74.87H20.7a.88.88,0,0,1-.87-.88m-3.35.41a1.53,1.53,0,0,0-.89-.4h.06a1.41,1.41,0,0,0,.81-.39l.6-.58a1.69,1.69,0,0,0,.76,1,1.6,1.6,0,0,0-.76,1Zm20.75-.4a1.64,1.64,0,0,0,.76-1l.58.58a1.53,1.53,0,0,0,.89.4,1.47,1.47,0,0,0-.87.4l-.6.58a1.6,1.6,0,0,0-.76-1m6.89,1.28A1.64,1.64,0,0,0,42.91,28h-.09L40,27.53h0l2.92-.46h0a1.65,1.65,0,0,0,1.21-.8l.29-.55a3.37,3.37,0,0,0,2.36,1.82,3.36,3.36,0,0,0-2.37,1.82ZM8.29,27.53a3.41,3.41,0,0,0,2.37-1.82l.28.53a1.64,1.64,0,0,0,1.2.82h.09l2.83.45h0L12.16,28a1.65,1.65,0,0,0-1.22.8l-.29.55a3.36,3.36,0,0,0-2.36-1.81M50.52,29h0l-.07-.1a3.55,3.55,0,0,0-2.17-1.37,3.57,3.57,0,0,0,2.18-1.4l0-.05,0,0,0,0a2.53,2.53,0,0,1,2-1c1.82,0,2,1.93,2,2.52a3.09,3.09,0,0,1-.49,1.8A1.67,1.67,0,0,1,52.9,30l-.35,0h0a2.53,2.53,0,0,1-2-1m-50-1.48A3,3,0,0,1,1,25.73,1.69,1.69,0,0,1,2.5,25a2.52,2.52,0,0,1,2,1h0l.06.09a3.66,3.66,0,0,0,2.18,1.38A3.57,3.57,0,0,0,4.6,28.91l0,.06,0,0a.1.1,0,0,1,0,.05,2.47,2.47,0,0,1-1.6,1,1.72,1.72,0,0,1-.39,0h0c-1.81,0-2-1.93-2-2.51m17.9-.24a1.19,1.19,0,1,1,.37,0h-.37m16.81-1a1.18,1.18,0,1,1,2.34-.37,1.18,1.18,0,0,1-1,1.36h-.19a1.18,1.18,0,0,1-1.17-1m-2.07-.61a.87.87,0,0,1,.06-.67.82.82,0,0,1,.5-.43.88.88,0,0,1,1.11.56l0,.14a.88.88,0,0,1-.59,1l-.14,0H34a.89.89,0,0,1-.84-.61m-12.41.56a.88.88,0,0,1-.56-1.11.61.61,0,0,1,.05-.12.84.84,0,0,1,.38-.39.92.92,0,0,1,.67-.05.87.87,0,0,1,.56,1.1.84.84,0,0,1-.43.51,1,1,0,0,1-.26.09H21a.84.84,0,0,1-.27,0m18.16.5-.6-.59a.57.57,0,0,1-.1-.7l.39-.74a1.11,1.11,0,0,1,.84-.54l1.69-.26-.06.1-.39.75a1,1,0,0,0-.12.68,1,1,0,0,0,.32.61l.6.6.1.09L39.89,27l-.21,0a1.05,1.05,0,0,1-.75-.28M15.14,27l-1.69-.28.09-.07.6-.59a1.07,1.07,0,0,0,.21-1.3L14,24l-.07-.11,1.7.27a1.14,1.14,0,0,1,.84.54l.38.75a.56.56,0,0,1-.11.7l-.6.59a1,1,0,0,1-.54.25l-.2,0-.23,0m26.72-.72-.6-.6a.56.56,0,0,1-.11-.69l.39-.75a1.12,1.12,0,0,1,.75-.52h.09a1.15,1.15,0,0,1,1,.25l.6.6a.53.53,0,0,1,.17.33.59.59,0,0,1-.06.36l-.39.75a1.17,1.17,0,0,1-.84.53l-.21,0a1.09,1.09,0,0,1-.75-.27m-29.54.26h-.09a1.14,1.14,0,0,1-.84-.54L11,25.26a.58.58,0,0,1,.12-.7l.6-.58a1.21,1.21,0,0,1,1.79.29l.39.75a.56.56,0,0,1-.11.69l-.61.59a.94.94,0,0,1-.53.25l-.21,0h-.12m4.43-2.71a1.27,1.27,0,0,0,.38-.11l.74-.37a1.67,1.67,0,0,0,.43,1.16,1.6,1.6,0,0,0-1,.7l-.38-.73a1.52,1.52,0,0,0-.71-.66,1.73,1.73,0,0,0,.32,0,1.06,1.06,0,0,0,.25,0m20,.68a1.65,1.65,0,0,0,.43-1.17l.73.36a1.55,1.55,0,0,0,1,.12,1.53,1.53,0,0,0-.71.64l-.38.74a1.64,1.64,0,0,0-1-.69M32.34,24a.84.84,0,0,1-.16-.65.89.89,0,0,1,.35-.57.88.88,0,0,1,1.22.19.83.83,0,0,1,.08.12.91.91,0,0,1,.08.54.89.89,0,0,1-.35.57.84.84,0,0,1-.38.15h-.13a.86.86,0,0,1-.71-.36m-10.85.19A.88.88,0,0,1,21.3,23l.09-.11a.89.89,0,0,1,1.13-.09.88.88,0,0,1-.37,1.58H22a.9.9,0,0,1-.52-.17M19,24.49a1.19,1.19,0,1,1,.72.12H19.5a1.16,1.16,0,0,1-.54-.13M34.49,24a1.19,1.19,0,1,1,1.6.51,1.21,1.21,0,0,1-.35.12h-.19A1.19,1.19,0,0,1,34.49,24M7,27a3,3,0,0,1-2-1.18h0L5,25.74H5a2.45,2.45,0,0,1-.19-1.81,2.43,2.43,0,0,1,.77-1.69l.07,0a3,3,0,0,1,2.26-.52,2.85,2.85,0,0,1,2.48,3.14A2.74,2.74,0,0,1,8,27a2.7,2.7,0,0,1-.49,0A2.81,2.81,0,0,1,7,27M44.68,24.8a2.84,2.84,0,0,1,2.48-3.13,3,3,0,0,1,2.26.52h0l.09.06h0a2.4,2.4,0,0,1,.74,1.66,2.38,2.38,0,0,1-.21,1.84l0,.08A3.07,3.07,0,0,1,48,27h0a2.92,2.92,0,0,1-3.33-2.22M25.61,22.28l.2-.05a1.29,1.29,0,0,0,.77-.71l.06.07a1.25,1.25,0,0,0,.69.36h.2a1.24,1.24,0,0,0,.95-.44.36.36,0,0,0,0,.09,1.25,1.25,0,0,0,.54.55l.19.08a1.3,1.3,0,0,0,1-.13.38.38,0,0,0,0,.1,1.24,1.24,0,0,0,.35.69,1,1,0,0,0,.15.13,1.27,1.27,0,0,0,1,.2l0,.09a1.27,1.27,0,0,0,.12.77,1.63,1.63,0,0,0,.11.17,1.24,1.24,0,0,0,.92.51l-.06.08a1.25,1.25,0,0,0-.12.76,1.17,1.17,0,0,0,0,.2,1.29,1.29,0,0,0,.71.77l-.07.06a1.32,1.32,0,0,0-.36.69,1.27,1.27,0,0,0,0,.2,1.24,1.24,0,0,0,.44.95l-.09,0a1.25,1.25,0,0,0-.55.54,1.07,1.07,0,0,0-.07.19,1.26,1.26,0,0,0,.12,1h-.09a1.18,1.18,0,0,0-.69.35.67.67,0,0,0-.14.15,1.27,1.27,0,0,0-.2,1l-.09,0a1.27,1.27,0,0,0-.77.12l-.17.11a1.27,1.27,0,0,0-.51.92l-.08-.06a1.25,1.25,0,0,0-.76-.12l-.2,0a1.26,1.26,0,0,0-.77.71l-.06-.07a1.24,1.24,0,0,0-.69-.35.65.65,0,0,0-.2,0,1.24,1.24,0,0,0-.95.44l0-.09a1.33,1.33,0,0,0-.55-.55l-.19-.07a1.26,1.26,0,0,0-1,.12.28.28,0,0,0,0-.09,1.23,1.23,0,0,0-.35-.7.61.61,0,0,0-.15-.12,1.24,1.24,0,0,0-1-.21l0-.09a1.27,1.27,0,0,0-.12-.77,1.63,1.63,0,0,0-.11-.17,1.24,1.24,0,0,0-.92-.51l.06-.08a1.25,1.25,0,0,0,.12-.76,1.46,1.46,0,0,0-.05-.2,1.29,1.29,0,0,0-.71-.77l.07-.06a1.32,1.32,0,0,0,.36-.69,1.27,1.27,0,0,0,0-.2,1.24,1.24,0,0,0-.44-.95l.09,0a1.33,1.33,0,0,0,.55-.55c0-.06.05-.12.08-.19a1.3,1.3,0,0,0-.13-1h.09a1.37,1.37,0,0,0,.7-.35c0-.05.09-.1.13-.16a1.27,1.27,0,0,0,.2-1l.09,0a1.27,1.27,0,0,0,.77-.12l.17-.11a1.24,1.24,0,0,0,.51-.91l.08.05a1.26,1.26,0,0,0,.57.14l.19,0m5.41.44a.93.93,0,0,1-.35-.57.9.9,0,0,1,.16-.66.88.88,0,0,1,1.22-.19l.11.09a.87.87,0,0,1-.49,1.48h-.13a.91.91,0,0,1-.52-.16m-7.64.15a.89.89,0,0,1-.57-.35A.88.88,0,0,1,23,21.3l.12-.08a.91.91,0,0,1,.54-.08A.87.87,0,0,1,24,22.71a.87.87,0,0,1-.37.16h-.28m16,.8L42,22.34a1.68,1.68,0,0,0,.91-1.14l.1-.62a3.36,3.36,0,0,0,2.81,1A3.36,3.36,0,0,0,44.13,24l-.43-.42a1.66,1.66,0,0,0-1.4-.4l-.09,0-2.83.44h-.07l0,0M10.17,21.56a3.25,3.25,0,0,0,1.87-1l.1.6a1.64,1.64,0,0,0,.9,1.14l.08,0,2.55,1.31.06,0h-.05l-2.92-.47a1.66,1.66,0,0,0-1.4.38l-.44.44a3.37,3.37,0,0,0-1.69-2.46,2.48,2.48,0,0,0,.38,0,3.43,3.43,0,0,0,.56,0m8.18-.2a1.5,1.5,0,0,0-.48-.84,1.58,1.58,0,0,0,.94.19l.82-.12a1.59,1.59,0,0,0,.05,1.23,1.66,1.66,0,0,0-1.2.35Zm18.82-.85a1.55,1.55,0,0,0-.47.83l-.14.82a1.66,1.66,0,0,0-1.18-.34,1.62,1.62,0,0,0,0-1.24l.81.12.19,0a1.61,1.61,0,0,0,.76-.21m-7.8,1.36a.81.81,0,0,1-.51-.43.87.87,0,0,1-.06-.67.88.88,0,0,1,1.11-.56l.12.05a.89.89,0,0,1,.39.38.92.92,0,0,1,0,.67.88.88,0,0,1-.7.59h-.14a.78.78,0,0,1-.26,0M25,21.82a.87.87,0,0,1-.43-.51.88.88,0,0,1,.56-1.11l.14,0a.83.83,0,0,1,.53.09.81.81,0,0,1,.43.51.87.87,0,0,1-.56,1.1l-.14,0h-.13a.93.93,0,0,1-.4-.09m-4.7.18A1.19,1.19,0,0,1,22,20.32,1.2,1.2,0,0,1,22,22a1.26,1.26,0,0,1-.66.33h-.18a1.17,1.17,0,0,1-.84-.34m12.73,0a1.2,1.2,0,0,1,0-1.68A1.19,1.19,0,1,1,34.73,22a1.19,1.19,0,0,1-.65.33h-.19a1.2,1.2,0,0,1-.84-.34m5.09,1.27-.76-.38a.57.57,0,0,1-.31-.63l.14-.83a1.11,1.11,0,0,1,.63-.77l1.53-.78,0,.12-.14.83a1.14,1.14,0,0,0,.1.69,1.06,1.06,0,0,0,.5.48l.75.38.12.05-1.54.78a1.17,1.17,0,0,1-.4.13l-.18,0a.91.91,0,0,1-.41-.09m-22.23-.05-1.53-.79.11,0,.76-.38a1.16,1.16,0,0,0,.5-.48,1.12,1.12,0,0,0,.1-.68L15.71,20l0-.13,1.53.79a1.15,1.15,0,0,1,.63.77l.14.84a.57.57,0,0,1-.32.62l-.76.38a.67.67,0,0,1-.24.07l-.16,0a1.26,1.26,0,0,1-.59-.15m11-1.9a.87.87,0,0,1,.62-1.49h.14a.91.91,0,0,1,.48.24.9.9,0,0,1,.25.62.88.88,0,0,1-.73.87h-.14a.85.85,0,0,1-.62-.26m13.87.61L40,21.55a.57.57,0,0,1-.31-.63l.14-.83a1.06,1.06,0,0,1,.54-.72l.09-.05a1.12,1.12,0,0,1,1-.05l.76.38a.57.57,0,0,1,.31.62l-.14.84a1.11,1.11,0,0,1-.63.76,1.2,1.2,0,0,1-.39.13l-.19,0a.91.91,0,0,1-.41-.09m-27.42,0-.08,0a1.14,1.14,0,0,1-.63-.78l-.14-.83a.59.59,0,0,1,.06-.37.57.57,0,0,1,.26-.25l.76-.38a1.16,1.16,0,0,1,1,.06,1.14,1.14,0,0,1,.63.78l.13.83a.55.55,0,0,1-.32.62l-.76.38A.61.61,0,0,1,14,22l-.16,0a1.33,1.33,0,0,1-.5-.11m17.72-1.35A1.19,1.19,0,1,1,32.67,20a1.17,1.17,0,0,1-.87.63l-.19,0a1.12,1.12,0,0,1-.53-.13M22.38,20a1.19,1.19,0,0,1,.52-1.6A1.19,1.19,0,1,1,24,20.56a1,1,0,0,1-.36.11l-.18,0A1.2,1.2,0,0,1,22.38,20M20.7,18.83a1.48,1.48,0,0,0-.19-.95,1.55,1.55,0,0,0,.83.47l.82.14a1.66,1.66,0,0,0-.34,1.18,1.62,1.62,0,0,0-1.24,0Zm12.18-.35.81-.13a1.5,1.5,0,0,0,.84-.48,1.58,1.58,0,0,0-.19.94l.13.82a1.71,1.71,0,0,0-1.24,0,1.65,1.65,0,0,0-.35-1.19m-7.94.34a1.19,1.19,0,1,1,1.36,1l-.19,0a1.19,1.19,0,0,1-1.17-1m3.81,1a1.19,1.19,0,1,1,.37,0l-.19,0-.18,0m20.15-.68s0,0,0-.06v0s0,0,0-.06a2.51,2.51,0,0,1,1.6-1.56c1.72-.57,2.45,1.22,2.64,1.78a3.09,3.09,0,0,1,.09,1.86,1.68,1.68,0,0,1-1.18,1.13,1.64,1.64,0,0,1-.38.1,2.55,2.55,0,0,1-1.87-.45h0l-.09-.07a3.51,3.51,0,0,0-2.5-.63,3.58,3.58,0,0,0,1.65-2M3,22.18c-1.72-.56-1.27-2.43-1.08-3a3,3,0,0,1,1-1.56A1.69,1.69,0,0,1,4.5,17.4,2.52,2.52,0,0,1,6.12,19v0l0,.1a3.59,3.59,0,0,0,1.65,2,3.55,3.55,0,0,0-2.51.64l0,0,0,0-.06,0a2.44,2.44,0,0,1-1,.41,2.56,2.56,0,0,1-.39,0A2.64,2.64,0,0,1,3,22.18m14.86-2.34L16.6,18.62h.12l.83-.12h0a1.12,1.12,0,0,0,.61-.31,1.1,1.1,0,0,0,.3-.62l.13-.83a.62.62,0,0,0,0-.13l1.22,1.22a1.16,1.16,0,0,1,.36.93l-.13.83a.56.56,0,0,1-.5.5l-.84.12h-.11a1.19,1.19,0,0,1-.81-.37m18.49.36-.83-.13a.57.57,0,0,1-.5-.5l-.12-.84a1.1,1.1,0,0,1,.36-.92l1.22-1.21a.49.49,0,0,0,0,.12l.12.83a1.14,1.14,0,0,0,.31.63,1.1,1.1,0,0,0,.62.3l.83.13h.13l-1.22,1.22a1.18,1.18,0,0,1-.67.35H36.3M23.72,17.14a1.48,1.48,0,0,0,.11-1,1.61,1.61,0,0,0,.65.71l.74.38a1.64,1.64,0,0,0-.69,1,1.61,1.61,0,0,0-1.18-.42Zm6.1.13.73-.38a1.52,1.52,0,0,0,.66-.71,1.46,1.46,0,0,0,.11.95l.37.75a1.63,1.63,0,0,0-1.17.42,1.6,1.6,0,0,0-.7-1M15,16.14l-.09.6a1.66,1.66,0,0,0,.49,1.36l.07.06,2,2,0,0,0,0-2.63-1.35a1.66,1.66,0,0,0-1.45-.07l-.56.28A3.35,3.35,0,0,0,12,16.22a3.46,3.46,0,0,0,1.44.31A3.21,3.21,0,0,0,15,16.14M37.59,20.2l2.1-2.08a1.69,1.69,0,0,0,.51-1.36l-.09-.62a3.38,3.38,0,0,0,3,.08,3.36,3.36,0,0,0-.85,2.86l-.54-.27a1.65,1.65,0,0,0-1.45.05l-.08.05L37.61,20.2l-.06,0,0,0M26.54,17.06l.58-.58a1.59,1.59,0,0,0,.4-.89,1.53,1.53,0,0,0,.4.88l.58.59a1.64,1.64,0,0,0-1,.76,1.64,1.64,0,0,0-1-.76M8.2,20.72A3.06,3.06,0,0,1,6.67,19h0l0-.1h0A2.38,2.38,0,0,1,7,17.08a2.43,2.43,0,0,1,1.25-1.37l.09,0a3.05,3.05,0,0,1,2.31.21,2.85,2.85,0,0,1,1.39,3.75,2.63,2.63,0,0,1-2,1.38,2.38,2.38,0,0,1-.46,0,3.15,3.15,0,0,1-1.42-.34M43,19.64a2.85,2.85,0,0,1,1.39-3.75,3.06,3.06,0,0,1,2.31-.21h0l.1,0h0A2.45,2.45,0,0,1,48,17.07a2.42,2.42,0,0,1,.36,1.82s0,.05,0,.08a3,3,0,0,1-1.53,1.75,3.26,3.26,0,0,1-.93.3,2.59,2.59,0,0,1-.48,0A2.72,2.72,0,0,1,43,19.64M38.4,18.1,37.57,18a.56.56,0,0,1-.5-.5L37,16.64a1.08,1.08,0,0,1,.29-.85l.07-.07a1.11,1.11,0,0,1,.93-.35l.83.12a.58.58,0,0,1,.34.17.57.57,0,0,1,.16.33l.12.84a1.14,1.14,0,0,1-.36.92,1.25,1.25,0,0,1-.67.35l-.14,0-.12,0m-22.61-.29-.07-.07a1.18,1.18,0,0,1-.36-.93l.13-.83a.57.57,0,0,1,.16-.33.58.58,0,0,1,.34-.17l.84-.12a1.14,1.14,0,0,1,.92.36,1.19,1.19,0,0,1,.36.93l-.13.84a.57.57,0,0,1-.5.49h0l-.84.12h-.11a1.17,1.17,0,0,1-.74-.3m5.42-2a1.12,1.12,0,0,0,.31-.1,1.08,1.08,0,0,0,.48-.49l.38-.76a.61.61,0,0,0,.05-.12l.78,1.54a1.13,1.13,0,0,1,.06,1l-.38.76a.57.57,0,0,1-.63.31l-.83-.14a1.11,1.11,0,0,1-.77-.63l-.78-1.53.12,0,.83.14.21,0,.17,0m10.94,1.81-.38-.76a1.16,1.16,0,0,1,.06-1l.79-1.53s0,.08,0,.11l.38.76a1.16,1.16,0,0,0,.48.5,1.12,1.12,0,0,0,.68.1l.84-.14.13,0-.79,1.53a1.13,1.13,0,0,1-.77.63l-.84.14h-.11a.55.55,0,0,1-.51-.33m-6.7-3.19a1.07,1.07,0,0,0,.62-.32l.59-.6.09-.1L27,15.16a1.12,1.12,0,0,1-.26,1l-.59.6a.66.66,0,0,1-.33.17.61.61,0,0,1-.37-.06l-.74-.4a1.11,1.11,0,0,1-.54-.84l-.26-1.69L24,14l.75.39a1.11,1.11,0,0,0,.52.13h.16m3.42,2.24-.59-.6a1.16,1.16,0,0,1-.25-1l.28-1.69.07.09.59.6a1.08,1.08,0,0,0,.62.33,1,1,0,0,0,.68-.12L31,14l.11-.07-.27,1.7a1.14,1.14,0,0,1-.54.84l-.75.38a.53.53,0,0,1-.2.07h-.08a.6.6,0,0,1-.42-.19M33.5,15l-.38-.76a1.13,1.13,0,0,1,0-.9l0-.08a1.14,1.14,0,0,1,.78-.63l.83-.14a.59.59,0,0,1,.37.06.57.57,0,0,1,.25.26l.38.76a1.16,1.16,0,0,1-.06,1,1.15,1.15,0,0,1-.77.63l-.84.13H34A.55.55,0,0,1,33.5,15m-12.58.32-.83-.14a1.06,1.06,0,0,1-.72-.54l-.05-.09a1.12,1.12,0,0,1-.05-1l.38-.76a.55.55,0,0,1,.26-.26.55.55,0,0,1,.36-.05l.84.14a1.11,1.11,0,0,1,.76.63,1.13,1.13,0,0,1,.06,1l-.38.76a.57.57,0,0,1-.43.32h-.2M16.22,12a3.36,3.36,0,0,0,2.86.85l-.27.54a1.65,1.65,0,0,0,.05,1.45.56.56,0,0,0,.05.08l1.29,2.56,0,.06,0,0-2.08-2.1a1.7,1.7,0,0,0-1.37-.51l-.61.09a3.38,3.38,0,0,0,.08-3m20.83.86A3.45,3.45,0,0,0,38.83,12a3.41,3.41,0,0,0,.08,3l-.6-.09a1.66,1.66,0,0,0-1.36.49l-.06.07-2,2,0,0a.08.08,0,0,0,0,0l1.35-2.63a1.62,1.62,0,0,0,.07-1.45L36,12.81a3.9,3.9,0,0,0,.58,0,2.74,2.74,0,0,0,.5,0m-7.71,1-.59-.61a1.08,1.08,0,0,1-.26-.86l0-.09a1.1,1.1,0,0,1,.53-.84l.75-.39a.62.62,0,0,1,.37-.06.6.6,0,0,1,.33.18l.59.6a1.23,1.23,0,0,1-.29,1.79L30,13.9a.6.6,0,0,1-.19.06h-.09a.57.57,0,0,1-.41-.18M25,13.9l-.75-.39a1.12,1.12,0,0,1-.52-.75v-.09a1.15,1.15,0,0,1,.25-1l.6-.6a.56.56,0,0,1,.33-.17.59.59,0,0,1,.36.06l.75.4a1.13,1.13,0,0,1,.53.83,1.15,1.15,0,0,1-.25,1l-.6.6a.51.51,0,0,1-.33.17h-.08A.58.58,0,0,1,25,13.9m20.25-1v-.16a2.51,2.51,0,0,1,1-2c1.47-1.07,2.72.4,3.06.88A3.05,3.05,0,0,1,50,13.41a1.72,1.72,0,0,1-.77,1.44,2.51,2.51,0,0,1-2.25.36h0l-.1,0a3.57,3.57,0,0,0-2.57.16,3.54,3.54,0,0,0,.95-2.41M5.81,14.85c-1.47-1.07-.46-2.71-.11-3.18a3.1,3.1,0,0,1,1.45-1.18,1.73,1.73,0,0,1,1.61.29,2.51,2.51,0,0,1,1,2v.13a3.52,3.52,0,0,0,1,2.39,3.6,3.6,0,0,0-2.58-.16l-.06,0h0l-.07,0-.33.08a2.69,2.69,0,0,1-.4,0,2.5,2.5,0,0,1-1.46-.48m5.44.23A3,3,0,0,1,10.34,13h0v-.11h0a2.39,2.39,0,0,1,.9-1.58,2.42,2.42,0,0,1,1.62-.91H13a3,3,0,0,1,2.13.91,2.84,2.84,0,0,1,.16,4A2.58,2.58,0,0,1,13.4,16a3.07,3.07,0,0,1-2.15-.91m28.56.16a2.83,2.83,0,0,1,.16-4,3,3,0,0,1,2.13-.91h.13a2.39,2.39,0,0,1,1.57.9,2.42,2.42,0,0,1,.91,1.62v0h0v0a3,3,0,0,1-.91,2.13,3.1,3.1,0,0,1-1.69.87,3.42,3.42,0,0,1-.45,0,2.58,2.58,0,0,1-1.85-.75m-16.14.45-1.33-2.64a1.68,1.68,0,0,0-1.14-.91l-.62-.1a3.36,3.36,0,0,0,1-2.81A3.36,3.36,0,0,0,24,10.92l-.42.43a1.66,1.66,0,0,0-.4,1.4.29.29,0,0,0,0,.09l.44,2.83s0,0,0,.07l0-.05m7.69,0,.47-2.92a1.66,1.66,0,0,0-.38-1.4L31,10.92l.1,0a3.36,3.36,0,0,0,2.36-1.67,3.34,3.34,0,0,0,1,2.81l-.6.1a1.64,1.64,0,0,0-1.14.9.2.2,0,0,0,0,.08l-1.31,2.55,0,.06a.07.07,0,0,0,0-.05m-3.84-.6-.46-2.92a1.65,1.65,0,0,0-.8-1.22l-.55-.29a3.39,3.39,0,0,0,1.82-2.36,3.36,3.36,0,0,0,1.82,2.37l-.54.28a1.6,1.6,0,0,0-.81,1.2.28.28,0,0,0,0,.09l-.46,2.83a.2.2,0,0,0,0,.07v-.05M15.89,10.66a3,3,0,0,1-.21-2.31h0l0-.1h0A2.45,2.45,0,0,1,17.07,7a2.4,2.4,0,0,1,1.81-.36l.09,0A3.06,3.06,0,0,1,20.72,8.2a2.84,2.84,0,0,1-1.09,3.85,2.55,2.55,0,0,1-1.14.27,3,3,0,0,1-2.6-1.66m20.3-4h0A2.38,2.38,0,0,1,38,7a2.43,2.43,0,0,1,1.37,1.25s0,0,0,.05h0l0,0a3.05,3.05,0,0,1-.21,2.31A2.84,2.84,0,0,1,35.41,12,2.83,2.83,0,0,1,34.33,8.2a3.06,3.06,0,0,1,1.75-1.53h0Zm3.69,1.52a.14.14,0,0,1,0-.06v0a.64.64,0,0,1,0-.07,2.48,2.48,0,0,1,.37-2.19c1.07-1.47,2.71-.46,3.18-.11a3.1,3.1,0,0,1,1.18,1.45,1.73,1.73,0,0,1-.29,1.61,2.51,2.51,0,0,1-2,1h-.13a3.54,3.54,0,0,0-2.39,1,3.59,3.59,0,0,0,.16-2.58M12.76,9.79a2.48,2.48,0,0,1-2-1c-1.07-1.47.4-2.72.88-3.06A3.05,3.05,0,0,1,13.41,5a1.72,1.72,0,0,1,1.44.77,2.5,2.5,0,0,1,.36,2.26h0l0,.1a3.57,3.57,0,0,0,.16,2.57,3.54,3.54,0,0,0-2.41-1h-.16m8.91-1.9a3,3,0,0,1,.52-2.26h0l.06-.09h0a2.4,2.4,0,0,1,1.66-.74A2.43,2.43,0,0,1,25.76,5l.07,0A3,3,0,0,1,27,7a2.84,2.84,0,0,1-2.22,3.33,2.56,2.56,0,0,1-.39,0,2.88,2.88,0,0,1-2.74-2.51M29.31,5h0a2.41,2.41,0,0,1,1.8-.19,2.43,2.43,0,0,1,1.69.77l0,.07a3,3,0,0,1,.52,2.26A2.72,2.72,0,1,1,28,7a3.07,3.07,0,0,1,1.18-2h0Zm4,.31,0,0v0l0-.06A2.5,2.5,0,0,1,32.87,3c.56-1.73,2.43-1.28,3-1.09a3.07,3.07,0,0,1,1.57,1,1.71,1.71,0,0,1,.22,1.62A2.52,2.52,0,0,1,36,6.12h0l-.1,0a3.59,3.59,0,0,0-2,1.65,3.55,3.55,0,0,0-.64-2.51m-14.17.86-.06,0h0L19,6.1a2.5,2.5,0,0,1-1.55-1.59c-.57-1.73,1.22-2.46,1.78-2.64a3,3,0,0,1,1.86-.1A1.68,1.68,0,0,1,22.18,3a2.51,2.51,0,0,1-.35,2.25h0l-.07.09a3.55,3.55,0,0,0-.63,2.5,3.58,3.58,0,0,0-2-1.65m7-1.55-.06,0,0,0,0,0a2.49,2.49,0,0,1-1-2c0-1.82,1.92-2,2.51-2a3.09,3.09,0,0,1,1.8.49A1.72,1.72,0,0,1,30,2.5a2.53,2.53,0,0,1-1,2h0l-.1.07a3.55,3.55,0,0,0-1.37,2.17A3.63,3.63,0,0,0,26.14,4.6M27.52,0a5.71,5.71,0,0,0-.73.05h0a2.42,2.42,0,0,0-2.28,2.45A3.06,3.06,0,0,0,25,4.18a4.76,4.76,0,0,0-1.14.07,5,5,0,0,0-1.09.28,3,3,0,0,0,0-1.75,2.24,2.24,0,0,0-1.49-1.53,3.54,3.54,0,0,0-2.19.1c-1.79.58-2.61,1.86-2.13,3.33a3.07,3.07,0,0,0,1,1.43,4.69,4.69,0,0,0-1.06.42,4.58,4.58,0,0,0-1,.6,3,3,0,0,0-.58-1.65,2.24,2.24,0,0,0-1.89-1,3.54,3.54,0,0,0-2.05.77c-1.53,1.11-1.91,2.57-1,3.82a3,3,0,0,0,1.38,1.06,5.13,5.13,0,0,0-.87.72,4.7,4.7,0,0,0-.72.87,3.09,3.09,0,0,0-1.06-1.39A2.24,2.24,0,0,0,7,10a3.6,3.6,0,0,0-1.72,1.37c-1.11,1.52-1,3,.23,3.94a3,3,0,0,0,1.64.58,5.17,5.17,0,0,0-.61,1,5,5,0,0,0-.41,1,3.17,3.17,0,0,0-1.44-1,2.25,2.25,0,0,0-2.11.31A3.58,3.58,0,0,0,1.35,19c-.58,1.79,0,3.21,1.44,3.68a3,3,0,0,0,1.74,0,4.94,4.94,0,0,0-.28,1.1A4.63,4.63,0,0,0,4.17,25a3.06,3.06,0,0,0-1.67-.5,2.27,2.27,0,0,0-1.91.95A3.59,3.59,0,0,0,0,27.53c0,1.88,1,3,2.51,3a3.06,3.06,0,0,0,1.67-.5,4.3,4.3,0,0,0,.07,1.14,5,5,0,0,0,.28,1.09,3,3,0,0,0-1.75,0,2.24,2.24,0,0,0-1.53,1.49A3.54,3.54,0,0,0,1.35,36c.58,1.79,1.86,2.61,3.33,2.13a3.07,3.07,0,0,0,1.43-1,4.69,4.69,0,0,0,.42,1.06,4.58,4.58,0,0,0,.6,1,3,3,0,0,0-1.65.58,2.26,2.26,0,0,0-1,1.89,3.59,3.59,0,0,0,.77,2.06c1.11,1.52,2.57,1.9,3.82,1a3,3,0,0,0,1.06-1.38,4.76,4.76,0,0,0,.72.87,4.7,4.7,0,0,0,.87.72A3.09,3.09,0,0,0,10.34,46a2.24,2.24,0,0,0-.36,2.1,3.56,3.56,0,0,0,1.37,1.72c1.52,1.11,3,1,3.94-.23a3,3,0,0,0,.58-1.64,4.86,4.86,0,0,0,1,.61,5,5,0,0,0,1,.41,3.17,3.17,0,0,0-1,1.44,2.25,2.25,0,0,0,.31,2.11A3.58,3.58,0,0,0,19,53.7c1.79.59,3.2,0,3.68-1.44a3,3,0,0,0,0-1.74,4.45,4.45,0,0,0,1.1.28,4.63,4.63,0,0,0,1.12.08,3.06,3.06,0,0,0-.5,1.67,2.27,2.27,0,0,0,.95,1.91,3.54,3.54,0,0,0,2.11.59h0c1.88,0,3-1,3-2.51a3,3,0,0,0-.5-1.66,4.75,4.75,0,0,0,1.14-.08,5.6,5.6,0,0,0,1.09-.27,3,3,0,0,0,0,1.74,2.24,2.24,0,0,0,1.49,1.53A3.54,3.54,0,0,0,36,53.7c1.8-.58,2.61-1.86,2.13-3.32a3,3,0,0,0-1-1.44,4.69,4.69,0,0,0,1.06-.42,4.58,4.58,0,0,0,1-.6,3.08,3.08,0,0,0,.58,1.65,2.22,2.22,0,0,0,1.89,1,3.54,3.54,0,0,0,2.05-.77c1.53-1.11,1.91-2.57,1-3.82a3,3,0,0,0-1.38-1.06,4.76,4.76,0,0,0,.87-.72,4.7,4.7,0,0,0,.72-.87A3.09,3.09,0,0,0,46,44.71a2.24,2.24,0,0,0,2.1.36,3.56,3.56,0,0,0,1.72-1.37c1.11-1.52,1-3-.23-3.94a3,3,0,0,0-1.64-.58,5.17,5.17,0,0,0,.61-1,5,5,0,0,0,.41-1,3.09,3.09,0,0,0,1.44,1,2.25,2.25,0,0,0,2.11-.31A3.58,3.58,0,0,0,53.7,36c.59-1.79,0-3.2-1.44-3.68a3,3,0,0,0-1.74,0,4.45,4.45,0,0,0,.28-1.1,4.63,4.63,0,0,0,.08-1.12,3.06,3.06,0,0,0,1.67.5,2.24,2.24,0,0,0,1.91-.95,3.56,3.56,0,0,0,.59-2.11,5.74,5.74,0,0,0,0-.74v0a2.42,2.42,0,0,0-2.45-2.28,3,3,0,0,0-1.66.5,4.63,4.63,0,0,0-.08-1.13,4.45,4.45,0,0,0-.28-1.1,3,3,0,0,0,1.75,0,2.25,2.25,0,0,0,1.53-1.48,3.57,3.57,0,0,0-.1-2.2c-.58-1.79-1.86-2.61-3.32-2.13a3,3,0,0,0-1.44,1,4.69,4.69,0,0,0-.42-1.06,4.58,4.58,0,0,0-.6-1,3,3,0,0,0,1.65-.58,2.24,2.24,0,0,0,1-1.89,3.54,3.54,0,0,0-.77-2.05c-1.11-1.53-2.57-1.91-3.82-1a3.1,3.1,0,0,0-1.06,1.38,5.13,5.13,0,0,0-.72-.87,4.7,4.7,0,0,0-.87-.72,3,3,0,0,0,1.39-1.06A2.24,2.24,0,0,0,45.07,7,3.6,3.6,0,0,0,43.7,5.26c-1.52-1.11-3-1-3.94.23a3,3,0,0,0-.58,1.64,4.4,4.4,0,0,0-1-.6,4.53,4.53,0,0,0-1-.42,3,3,0,0,0,1-1.44,2.25,2.25,0,0,0-.31-2.11A3.58,3.58,0,0,0,36,1.35c-1.79-.58-3.2,0-3.68,1.44a3,3,0,0,0,0,1.74,4.45,4.45,0,0,0-1.1-.28,4.17,4.17,0,0,0-1.12-.07,3.12,3.12,0,0,0,.5-1.68A2.24,2.24,0,0,0,29.64.59,3.54,3.54,0,0,0,27.53,0Z"/></clipPath><radialGradient id="radial-gradient" cx="-814.33" cy="-5330.89" r="1.3" gradientTransform="matrix(20.92, 0, 0, -20.92, 17061.11, -111480.02)" gradientUnits="userSpaceOnUse"><stop offset="0" stop-color="#ffe400"/><stop offset="0.09" stop-color="#ffe000"/><stop offset="0.19" stop-color="#fdd400"/><stop offset="0.28" stop-color="#fcc000"/><stop offset="0.3" stop-color="#fbbb00"/><stop offset="0.42" stop-color="#d89813"/><stop offset="0.57" stop-color="#b37328"/><stop offset="0.65" stop-color="#a56530"/><stop offset="0.85" stop-color="#5f340f"/><stop offset="0.96" stop-color="#3e1e00"/><stop offset="1" stop-color="#3e1e00"/></radialGradient></defs><title>Expo 2020 Footer</title><g id="Layer_2" data-name="Layer 2"><g id="Layer_1-2" data-name="Layer 1"><polygon class="cls-2" points="71.25 12.71 78.49 12.71 78.49 14.21 73.07 14.21 73.07 17 77.96 17 78.19 18.49 73.07 18.49 73.07 21.51 78.64 21.51 78.64 23.01 71.25 23.01 71.25 12.71"/><polygon class="cls-2" points="83.73 18.99 80.9 23.01 78.9 23.01 82.7 17.68 79.22 12.82 81.19 12.59 83.88 16.37 86.41 12.71 88.39 12.71 84.94 17.66 88.79 22.89 86.81 23.13 83.73 18.99"/><path class="cls-2" d="M89.26,7.61c0,2-1.42,3.42-4,3.42H82.7V14.5H80.89V4.2h4.4c2.55,0,4,1.4,4,3.41m-1.86,0c0-1.26-.91-1.91-2.18-1.91H82.7V9.54h2.52A1.92,1.92,0,0,0,87.4,7.61" transform="translate(8.51 8.5)"/><path class="cls-2" d="M89.75,9.35a5.49,5.49,0,0,1,11,0,5.49,5.49,0,0,1-11,0m1.84,0a3.64,3.64,0,1,0,7.27,0,3.64,3.64,0,1,0-7.27,0" transform="translate(8.51 8.5)"/><path class="cls-2" d="M62.75,28.37h3.51a4.9,4.9,0,0,1,5.27,5.15,4.9,4.9,0,0,1-5.27,5.15H62.75Zm8.18,5.15A4.32,4.32,0,0,0,66.25,29h-2.9V38.1h2.9a4.32,4.32,0,0,0,4.68-4.58" transform="translate(8.51 8.5)"/><path class="cls-2" d="M73.71,28.3v6.57a3.64,3.64,0,0,0,7.27,0V28.45l.6-.15v6.59c0,2.09-1.33,3.93-4.23,3.93s-4.25-2-4.25-3.93V28.45Z" transform="translate(8.51 8.5)"/><path class="cls-2" d="M91.18,31a2.34,2.34,0,0,1-1.63,2.37,2.29,2.29,0,0,1,1.94,2.51c0,1.91-1.2,2.77-3.41,2.77H83.76V28.37h3.88c2.21,0,3.54.76,3.54,2.65m-.6,0c0-1.89-1.46-2.09-3.09-2.09H84.37V33.1h3.12c1.63,0,3.09-.15,3.09-2.06M84.37,38.1h3.56c1.65,0,2.95-.29,2.95-2.2s-1.3-2.23-2.95-2.23H84.37Z" transform="translate(8.51 8.5)"/><path class="cls-2" d="M99.94,36h-6l-1.18,2.72h-.64l4.51-10.3.61-.15,4.57,10.38-.6.15Zm-.25-.58-2.78-6.31-2.74,6.31Z" transform="translate(8.51 8.5)"/><polygon class="cls-2" points="111.64 47.17 111.64 36.95 112.24 36.8 112.24 46.8 112.24 47.17 111.64 47.17"/><path class="cls-2" d="M63.35,40.38V47A3.29,3.29,0,0,0,67,50.33,3.28,3.28,0,0,0,70.62,47V40.53l.61-.15V47c0,2.09-1.33,3.94-4.24,3.94s-4.24-2-4.24-3.94V40.53Z" transform="translate(8.51 8.5)"/><path class="cls-2" d="M80,48H74l-1.18,2.73h-.63l4.51-10.3.6-.15,4.58,10.37-.61.15Zm-.24-.58L77,41.14l-2.74,6.31Z" transform="translate(8.51 8.5)"/><polygon class="cls-2" points="91.68 48.96 98.64 48.96 98.64 49.54 92.28 49.54 92.28 53.69 98.19 53.69 98.34 54.26 92.28 54.26 92.28 58.69 98.8 58.69 98.8 59.26 91.68 59.26 91.68 48.96"/><path class="cls-2" d="M66.19,16.14c2,0,3.77.89,3.77,2.95,0,3.27-5.45,3.83-5.45,6h5.42l.23,1.49H62.51v-.93c0-3.91,5.6-4,5.6-6.47,0-1.18-1-1.62-2.12-1.62a5.82,5.82,0,0,0-2.95,1l-.27-1.44a6.86,6.86,0,0,1,3.42-1" transform="translate(8.51 8.5)"/><path class="cls-2" d="M70.72,21.44c0-2.94,1.5-5.3,4.57-5.3s4.59,2.36,4.59,5.3-1.52,5.3-4.59,5.3-4.57-2.35-4.57-5.3m1.86,0c0,2.31.85,3.87,2.72,3.87S78,23.75,78,21.44s-.85-3.88-2.73-3.88-2.72,1.56-2.72,3.88" transform="translate(8.51 8.5)"/><path class="cls-2" d="M84.13,16.14c2,0,3.77.89,3.77,2.95,0,3.27-5.45,3.83-5.45,6h5.42l.23,1.49H80.45v-.93c0-3.91,5.61-4,5.61-6.47,0-1.18-1-1.62-2.13-1.62a5.85,5.85,0,0,0-3,1l-.27-1.44a6.86,6.86,0,0,1,3.42-1" transform="translate(8.51 8.5)"/><path class="cls-2" d="M88.66,21.44c0-2.94,1.5-5.3,4.57-5.3s4.59,2.36,4.59,5.3-1.52,5.3-4.59,5.3-4.57-2.35-4.57-5.3m1.86,0c0,2.31.85,3.87,2.73,3.87S96,23.75,96,21.44s-.85-3.88-2.72-3.88-2.73,1.56-2.73,3.88" transform="translate(8.51 8.5)"/><g class="cls-3"><rect class="cls-4" x="-3.97" y="-3.97" width="62.99" height="62.98" transform="translate(4.54 13.15) rotate(-9)"/></g></g></g></svg>