<svg xmlns="http://www.w3.org/2000/svg" viewBox="0 0 50 50"><defs><style>.cls-1{fill:#ffcc18;}</style></defs><title>Elevator</title><g id="Layer_2" data-name="Layer 2"><g id="Layer_1-2" data-name="Layer 1"><g id="_1738_Elevator_Hotel_Travel" data-name="1738, Elevator, Hotel, Travel"><path class="cls-1" d="M49,47.92H44.79V1a1,1,0,0,0-1-1H6.25a1,1,0,0,0-1,1V47.92H1A1,1,0,0,0,1,50H49a1,1,0,0,0,0-2.08ZM7.29,2.08H42.71V47.92H39.58V17.71a1,1,0,0,0-1-1H11.46a1,1,0,0,0-1,1V47.92H7.29ZM26,18.75H37.5V47.92H26ZM24,47.92H12.5V18.75H24Z"/><path class="cls-1" d="M13.54,10.42h2.08V12.5H13.54Z"/><path class="cls-1" d="M17.71,10.42h2.08V12.5H17.71Z"/><path class="cls-1" d="M21.87,10.42H24V12.5H21.87Z"/><path class="cls-1" d="M26,10.42h2.08V12.5H26Z"/><path class="cls-1" d="M30.21,10.42h2.08V12.5H30.21Z"/><path class="cls-1" d="M34.37,10.42h2.09V12.5H34.37Z"/><path class="cls-1" d="M13.54,6.25h2.08V8.33H13.54Z"/><path class="cls-1" d="M17.71,6.25h2.08V8.33H17.71Z"/><path class="cls-1" d="M21.87,6.25H24V8.33H21.87Z"/><path class="cls-1" d="M26,6.25h2.08V8.33H26Z"/><path class="cls-1" d="M30.21,6.25h2.08V8.33H30.21Z"/><path class="cls-1" d="M34.37,6.25h2.09V8.33H34.37Z"/><path class="cls-1" d="M34.17,28.54,31,24.37A1.06,1.06,0,0,0,29.88,24a1,1,0,0,0-.71,1V41.67a1,1,0,0,0,2.08,0V28.13l1.25,1.66a1,1,0,0,0,1.67-1.25Z"/><path class="cls-1" d="M16.67,42.71a1,1,0,0,0,.83-.42l3.12-4.16A1,1,0,1,0,19,36.88l-1.25,1.66V25a1,1,0,0,0-2.09,0V41.67A1,1,0,0,0,16.67,42.71Z"/></g></g></g></svg>