<svg xmlns="http://www.w3.org/2000/svg" viewBox="0 0 50 50"><defs><style>.cls-1,.cls-33{fill:#fff;}.cls-1{opacity:0;}.cls-2{fill:#f7f7f7;opacity:0.03;}.cls-3{fill:#efefef;opacity:0.06;}.cls-4{fill:#e6e6e6;opacity:0.1;}.cls-5{fill:#dedede;opacity:0.13;}.cls-6{fill:#d6d6d6;opacity:0.16;}.cls-7{fill:#cecece;opacity:0.19;}.cls-8{fill:#c5c5c5;opacity:0.23;}.cls-9{fill:#bdbdbd;opacity:0.26;}.cls-10{fill:#b5b5b5;opacity:0.29;}.cls-11{fill:#adadad;opacity:0.32;}.cls-12{fill:#a5a5a5;opacity:0.35;}.cls-13{fill:#9c9c9c;opacity:0.39;}.cls-14{fill:#949494;opacity:0.42;}.cls-15{fill:#8c8c8c;opacity:0.45;}.cls-16{fill:#848484;opacity:0.48;}.cls-17{fill:#7b7b7b;opacity:0.52;}.cls-18{fill:#737373;opacity:0.55;}.cls-19{fill:#6b6b6b;opacity:0.58;}.cls-20{fill:#636363;opacity:0.61;}.cls-21{fill:#5a5a5a;opacity:0.65;}.cls-22{fill:#525252;opacity:0.68;}.cls-23{fill:#4a4a4a;opacity:0.71;}.cls-24{fill:#424242;opacity:0.74;}.cls-25{fill:#3a3a3a;opacity:0.77;}.cls-26{fill:#313131;opacity:0.81;}.cls-27{fill:#292929;opacity:0.84;}.cls-28{fill:#212121;opacity:0.87;}.cls-29{fill:#191919;opacity:0.9;}.cls-30{fill:#101010;opacity:0.94;}.cls-31{fill:#080808;opacity:0.97;}.cls-32{fill:#006b35;}</style></defs><title>KSA</title><g id="Layer_2" data-name="Layer 2"><g id="Layer_1-2" data-name="Layer 1"><g id="UAE"><path class="cls-1" d="M41.45,7.29C52,17.84,52.91,34.08,43.5,43.5s-25.66,8.5-36.21-2-9-24.31.43-33.73S30.9-3.26,41.45,7.29Z"/><path class="cls-2" d="M41.18,7.43C51.6,17.85,52.51,33.9,43.2,43.2s-25.35,8.4-35.77-2S-1.51,17.1,7.8,7.8,30.76-3,41.18,7.43Z"/><path class="cls-3" d="M40.91,7.56c10.3,10.3,11.19,26.16,2,35.35s-25,8.3-35.35-2-8.87-23.84.32-33S30.61-2.73,40.91,7.56Z"/><path class="cls-4" d="M40.64,7.7c10.17,10.17,11.06,25.83,2,34.92s-24.75,8.19-34.92-2S-1.12,17,8,8,30.47-2.47,40.64,7.7Z"/><path class="cls-5" d="M40.37,7.83c10.05,10,10.92,25.52,2,34.49s-24.44,8.1-34.49-2S-.93,17,8,8,30.33-2.21,40.37,7.83Z"/><path class="cls-6" d="M40.1,8C50,17.89,50.89,33.17,42,42S17.89,50,8,40.1-.74,17,8.12,8.12,30.18-1.95,40.1,8Z"/><path class="cls-7" d="M39.84,8.11C49.63,17.9,50.48,33,41.74,41.74S17.9,49.63,8.11,39.84-.55,17,8.2,8.2,30-1.69,39.84,8.11Z"/><path class="cls-8" d="M39.57,8.24c9.67,9.67,10.51,24.57,1.87,33.2s-23.53,7.8-33.2-1.87-8.59-22.65,0-31.29S29.89-1.43,39.57,8.24Z"/><path class="cls-9" d="M39.3,8.38c9.54,9.55,10.37,24.25,1.85,32.77S17.93,48.84,8.38,39.3s-8.54-22.41,0-30.94S29.75-1.17,39.3,8.38Z"/><path class="cls-10" d="M39,8.51c9.42,9.43,10.24,23.94,1.83,32.35S17.94,48.45,8.51,39,0,16.86,8.44,8.44,29.61-.91,39,8.51Z"/><path class="cls-11" d="M38.76,8.65c9.3,9.3,10.11,23.61,1.81,31.92S18,48.06,8.65,38.76.22,16.82,8.52,8.52,29.46-.65,38.76,8.65Z"/><path class="cls-12" d="M38.49,8.79c9.17,9.17,10,23.29,1.78,31.48S18,47.66,8.79,38.49.41,16.79,8.6,8.6,29.32-.38,38.49,8.79Z"/><path class="cls-13" d="M38.22,8.92C47.27,18,48.06,31.9,40,40S18,47.27,8.92,38.22.61,16.76,8.68,8.68,29.18-.12,38.22,8.92Z"/><path class="cls-14" d="M38,9.06c8.92,8.92,9.7,22.66,1.74,30.63S18,46.87,9.06,38,.8,16.73,8.76,8.76,29,.14,38,9.06Z"/><path class="cls-15" d="M37.69,9.19c8.79,8.8,9.56,22.35,1.7,30.2S18,46.48,9.19,37.69,1,16.7,8.84,8.84,28.89.4,37.69,9.19Z"/><path class="cls-16" d="M37.42,9.33c8.67,8.67,9.42,22,1.68,29.77s-21.1,7-29.77-1.68S1.18,16.67,8.92,8.92,28.74.66,37.42,9.33Z"/><path class="cls-17" d="M37.15,9.47c8.54,8.54,9.29,21.71,1.66,29.34S18,45.69,9.47,37.15,1.37,16.64,9,9,28.6.92,37.15,9.47Z"/><path class="cls-18" d="M36.88,9.6C45.3,18,46,31,38.51,38.51S18,45.3,9.6,36.88s-8-20.27-.52-27.8S28.46,1.18,36.88,9.6Z"/><path class="cls-19" d="M36.61,9.74c8.29,8.3,9,21.07,1.61,28.48S18,44.9,9.74,36.61s-8-20-.57-27.44S28.31,1.44,36.61,9.74Z"/><path class="cls-20" d="M36.34,9.87c8.17,8.18,8.88,20.76,1.59,28.06S18.05,44.51,9.87,36.34,2,16.54,9.25,9.25,28.17,1.7,36.34,9.87Z"/><path class="cls-21" d="M36.07,10c8,8,8.75,20.44,1.56,27.62S18.06,44.12,10,36.07,2.14,16.51,9.33,9.33,28,2,36.07,10Z"/><path class="cls-22" d="M35.8,10.15c7.92,7.92,8.61,20.12,1.54,27.19S18.07,43.72,10.15,35.8,2.33,16.48,9.41,9.41,27.88,2.23,35.8,10.15Z"/><path class="cls-23" d="M35.53,10.28c7.8,7.8,8.48,19.81,1.52,26.77s-19,6.28-26.77-1.52-7.76-19.08-.79-26S27.74,2.49,35.53,10.28Z"/><path class="cls-24" d="M35.27,10.42c7.67,7.67,8.33,19.49,1.49,26.34s-18.67,6.18-26.34-1.49-7.7-18.85-.85-25.7S27.59,2.75,35.27,10.42Z"/><path class="cls-25" d="M35,10.55c7.54,7.55,8.2,19.17,1.46,25.91S18.1,42.54,10.55,35,2.91,16.39,9.65,9.65,27.45,3,35,10.55Z"/><path class="cls-26" d="M34.73,10.69c7.42,7.42,8.06,18.85,1.44,25.48s-18.06,6-25.48-1.44-7.59-18.37-1-25S27.31,3.27,34.73,10.69Z"/><path class="cls-27" d="M34.46,10.83c7.29,7.29,7.93,18.53,1.42,25.05s-17.76,5.87-25.05-1.42-7.54-18.14-1-24.65S27.16,3.53,34.46,10.83Z"/><path class="cls-28" d="M34.19,11c7.17,7.17,7.79,18.22,1.39,24.62S18.13,41.36,11,34.19,3.48,16.29,9.89,9.89,27,3.79,34.19,11Z"/><path class="cls-29" d="M33.92,11.1c7,7,7.66,17.9,1.37,24.19S18.15,41,11.1,33.92,3.68,16.26,10,10,26.87,4.05,33.92,11.1Z"/><path class="cls-30" d="M33.65,11.23C40.57,18.16,41.17,28.82,35,35s-16.84,5.57-23.77-1.35-7.36-17.42-1.18-23.6S26.73,4.31,33.65,11.23Z"/><path class="cls-31" d="M33.38,11.37c6.8,6.8,7.39,17.26,1.32,23.33s-16.53,5.48-23.33-1.32S4.06,16.2,10.13,10.13,26.59,4.58,33.38,11.37Z"/><path d="M33.12,11.51c6.66,6.67,7.24,16.94,1.29,22.9s-16.23,5.37-22.9-1.29-7.26-16.95-1.3-22.91S26.44,4.84,33.12,11.51Z"/><path class="cls-32" d="M42.91,22.14A20.55,20.55,0,1,1,22.36,1.6,20.57,20.57,0,0,1,42.91,22.14Z"/><path class="cls-33" d="M33.42,30.87a.58.58,0,0,0-.17-.06,2.62,2.62,0,0,0-.56,0H30.4a.17.17,0,0,0,0-.07c0-.09.1-.06.15-.18a.26.26,0,0,0-.22-.33h-.06a.11.11,0,0,1,0-.08.22.22,0,0,0-.35-.14.39.39,0,0,0-.11.38,1.29,1.29,0,0,0,.06.21,1.08,1.08,0,0,1,.06.2l-18.65-.22a2.57,2.57,0,0,0,2.31,1.16H29.85a3.81,3.81,0,0,0,.07.59,1,1,0,0,0,.11.33.27.27,0,0,0,.33.16.26.26,0,0,0,.17-.18h2.29s.08.06.11.09a.57.57,0,0,0,.11.11.67.67,0,0,0,.42.07c.21,0,.46-.2.46-1.06A1,1,0,0,0,33.42,30.87Zm-.67,1.23c-.1.11-.72.07-.72.07s-.11-.21-.28-.21a.52.52,0,0,0-.34.19,7.29,7.29,0,0,1-.93,0,.37.37,0,0,1,0-.41h2.23S32.86,32,32.75,32.1Z"/><path class="cls-33" d="M7.55,19.62c-.09,0-.39.53-.52,1.14a1.74,1.74,0,0,0,0,.79c0,.11.18.62.51.65s.49-.31.57-.54.05-.58,0-.6-.13.13-.32.15a.25.25,0,0,1-.18,0c-.11-.1,0-.33,0-.48C7.63,20.23,7.64,19.65,7.55,19.62Z"/><path class="cls-33" d="M9.86,17.21c0-.12-.25-.29-.5-.33a1.15,1.15,0,0,0-.64.11,2.65,2.65,0,0,0-1.19,1.22c-.08.13-.1.17-.08.19.12.19,1.58-.81,2.28-1.08C9.77,17.3,9.85,17.27,9.86,17.21Z"/><path class="cls-33" d="M8.16,12.37c-.11-.13-.33-.37-.28-.55a.31.31,0,0,1,.2-.19c.21,0,.4.18.43.22a1,1,0,0,1,.06,1c-.05.13-.15.3-.21.29s-.08-.26-.08-.32a.92.92,0,0,0,0-.3A.41.41,0,0,0,8.16,12.37Z"/><path class="cls-33" d="M7.22,13.29a3.11,3.11,0,0,0,0,1,9,9,0,0,0,.12,1c.09.33.18.65.44.74a.54.54,0,0,0,.4,0c.3-.16.35-.59.38-.81s0-.47,0-.77S8.8,14,8.87,14a14,14,0,0,1,.1,1.6c0,.42.11.6.26.7s.42,0,.6.23a.54.54,0,0,1,.14.27,7.46,7.46,0,0,1,.08,1.66c0,.74.11.79.15.8s.32-.22.42-.37a2.07,2.07,0,0,0,.18-1.15,6.83,6.83,0,0,0-.07-1.15c-.06-.34-.13-.61,0-.76a.42.42,0,0,1,.27-.08c.21,0,.27.14.48.21a.89.89,0,0,0,.69-.07,1,1,0,0,0,.49-.42,1.15,1.15,0,0,0,.11-.87,3.52,3.52,0,0,0-.23-.84.33.33,0,0,1,0-.24s.08,0,.12,0,.05-.07,0-.18a.9.9,0,0,0-.21-.53c-.11-.11-.39-.33-.6-.23s-.23.41-.24.54A2,2,0,0,0,12,14.15c.15.27.31.43.26.64a.31.31,0,0,1-.13.22c-.13.06-.3-.06-.43-.15a1,1,0,0,1-.38-.41c-.11-.27.05-.37,0-.86a1.12,1.12,0,0,0-.25-.72.35.35,0,0,0-.29-.14c-.38,0-.34.5-.31.77a2.49,2.49,0,0,0,.09.46,1.39,1.39,0,0,0,.06.19c.08.23.19.44.1.57s-.05.06-.1,0-.12-.18-.16-.35a4.14,4.14,0,0,1-.1-.76s0-.41-.11-.84-.19-1-.45-1.06-.28.14-.34.28,0,.43.12.82,0,.29.12.87c.13.75.29,1,.11,1.31,0,0-.11.15-.2.13s-.16-.38-.18-.53a5,5,0,0,1,0-.9c0-.4,0-.52-.09-.64A.42.42,0,0,0,9,12.89c-.17,0-.28.21-.41.46a2.47,2.47,0,0,0-.31.93c0,.38,0,.61-.12.72a.27.27,0,0,1-.25,0c-.18-.07-.22-.35-.28-.76a2.58,2.58,0,0,0-.13-.72s-.06-.26-.18-.3a.13.13,0,0,0-.09,0A.07.07,0,0,0,7.22,13.29Z"/><path class="cls-33" d="M10.74,11.86a.44.44,0,0,0,0,.37.62.62,0,0,0,.28.33.65.65,0,0,0,.51,0,.55.55,0,0,0,.35-.24A.51.51,0,0,0,12,12c0-.07,0-.26-.08-.29s-.15,0-.19.11,0,.13-.07.15a.15.15,0,0,1-.12-.05c-.07-.08,0-.17-.08-.21s-.14,0-.19,0,0,.2-.06.21-.06,0-.09-.08-.06-.13-.1-.15S10.8,11.79,10.74,11.86Z"/><path class="cls-33" d="M16.69,16.24c0-.08-.19-.1-.31-.07a.33.33,0,0,0-.21.12c-.06.09,0,.15-.09.27s-.06.11-.11.11-.05-.13-.13-.23a.42.42,0,0,0-.44-.09c-.07,0-.06.08-.26.38-.09.13-.12.17-.17.19a.32.32,0,0,1-.34,0c-.09-.09,0-.22-.08-.39a.38.38,0,0,0-.33-.2c-.11,0-.15.08-.21.06s-.09-.5-.18-1.16a6.53,6.53,0,0,0-.18-1.1c-.06-.2-.14-.4,0-.51s.35,0,.45-.07-.09-.29-.27-.78a2.09,2.09,0,0,0-.39-.86.34.34,0,0,0-.45,0,.51.51,0,0,0-.25.22.5.5,0,0,0,.05.38,5.31,5.31,0,0,1,.16,1c.06.34,0,.2.2,1.31.05.3.08.53.14,1,.11.76.13,1,0,1.14a.38.38,0,0,1-.3,0c-.26-.1-.24-.37-.47-.48a.79.79,0,0,0-.66.11,1.18,1.18,0,0,0-.56.59,1,1,0,0,0,.06,1,.82.82,0,0,0,.77.25c.22-.06.4-.26.47-.21a.1.1,0,0,1,0,.09,1.65,1.65,0,0,1-.21.66,2,2,0,0,1-.7.61c-.45.26-.72.42-1,.34a1,1,0,0,1-.71-.62c-.11-.33,0-.6-.18-1-.08-.15-.12-.16-.15-.16s-.24.49-.28.73a1.92,1.92,0,0,0,.09,1.09,1.65,1.65,0,0,0,.61.72,1.68,1.68,0,0,0,1.06.24,1.94,1.94,0,0,0,1.06-.47,2.15,2.15,0,0,0,.83-1.15c.12-.47,0-.88.27-1.1,0,0,.13-.1.19-.06s0,.5,0,.69A3.54,3.54,0,0,1,12.89,20,2.78,2.78,0,0,1,12,21a2.6,2.6,0,0,1-1.21.34,1.64,1.64,0,0,1-1.31-.45,1.39,1.39,0,0,1-.24-.53A2.62,2.62,0,0,0,9,19.42c-.08-.14-.12-.15-.14-.14s-.23.72-.24.79a2.32,2.32,0,0,0,.08,1.07,1.71,1.71,0,0,0,.62.88,1.92,1.92,0,0,0,1.24.21,3.74,3.74,0,0,0,1.53-.36,3.39,3.39,0,0,0,1-.66,2.65,2.65,0,0,0,.77-1.12,2.89,2.89,0,0,0,.14-.85c0-.56-.1-1.29,0-1.36a.13.13,0,0,1,.08,0s.07.05.11.07a.32.32,0,0,0,.2.06.91.91,0,0,0,.35,0,1,1,0,0,0,.26-.12,2.59,2.59,0,0,1,.29-.19.8.8,0,0,1,.33,0,2.45,2.45,0,0,0,.51.07.65.65,0,0,0,.45-.35c.2-.36-.06-.72.11-1C16.68,16.35,16.72,16.29,16.69,16.24Zm-4.48,1.35a.26.26,0,0,1-.4-.32.24.24,0,0,1,.42.15A.21.21,0,0,1,12.21,17.59Z"/><path class="cls-33" d="M15,18.76c.17.23.24.2.29.31s-.13.47,0,.57.14,0,.19,0,.19-.44.18-.55a.89.89,0,0,0-.19-.6c-.07-.09-.2-.23-.35-.21a.28.28,0,0,0-.21.22S14.92,18.61,15,18.76Z"/><path class="cls-33" d="M24.2,21c0-.13,0-.3-.06-.36s-.21,0-.33.07-.41.21-.37.38a.25.25,0,0,0,.22.18c.09,0,.13,0,.17,0s0,.17,0,.33a.37.37,0,0,0,.18.19c.13.06.25,0,.41-.07.52-.21.76-.12.83-.29a.32.32,0,0,0-.1-.31c-.13-.09-.35,0-.67.1s-.29.11-.34.07S24.18,21.18,24.2,21Z"/><path class="cls-33" d="M16.07,14.64c0-.08,0-.11,0-.17s0-.12-.08-.14-.22.09-.29.21a.54.54,0,0,0,0,.58.51.51,0,0,0,.32.23.53.53,0,0,0,.45-.11c.09-.09.17-.23.13-.28s-.08,0-.23,0-.22,0-.27,0A.36.36,0,0,1,16.07,14.64Z"/><path class="cls-33" d="M20.92,16.05c-.05,0-.15-.08-.21,0s0,.31,0,.32a.62.62,0,0,0,.38.41.55.55,0,0,0,.48,0,.51.51,0,0,0,.22-.27c.08-.17.1-.45,0-.51a.24.24,0,0,0-.28.11c0,.06,0,.14-.06.14s0-.15-.11-.21a.15.15,0,0,0-.13,0c-.08,0-.05.19-.1.2S21,16.11,20.92,16.05Z"/><path class="cls-33" d="M16.79,12.16a.47.47,0,0,0-.27-.44.53.53,0,0,0-.69.75c.08.11.23.18.27.33a.2.2,0,0,1,0,.14A.18.18,0,0,1,16,13a4.16,4.16,0,0,1-.84.71c-.37.23-.41.31-.72.49-.08,0-.22.19-.18.26s.59.14.94,0,.33-.41,1-.9c.25-.21.57-.41.52-.6s-.08-.14-.08-.28a.6.6,0,0,1,0-.2C16.74,12.27,16.79,12.25,16.79,12.16Zm-.38.35c-.06.05-.18,0-.25-.08a.21.21,0,0,1,0-.26.2.2,0,0,1,.24.05C16.47,12.3,16.49,12.46,16.41,12.51Z"/><path class="cls-33" d="M17.15,12.48c-.16,0-.16.72-.12,1.2.06.64.13,1.41.63,1.62a.72.72,0,0,0,.7-.05c.22-.19.1-.48.33-1.05.08-.21.23-.48.29-.46s-.15.58.07,1.17c0,0,.28.7.77.78a1.54,1.54,0,0,0,1-.4c.2-.16.35-.36.54-.34a.49.49,0,0,1,.21.14c.06.06.54.52.93.45a.89.89,0,0,0,.53-.41c.12-.2.12-.39.23-.41a.26.26,0,0,1,.22.15c.06.1,0,.18.07.23s.2,0,.23,0a.77.77,0,0,0,.41-.52c0-.11.1-.3,0-.36s-.14,0-.36.06a1,1,0,0,1-.35.06c-.13,0-.21-.14-.32-.35-.3-.56-.48-.88-.35-1.11,0,0,.11-.18.23-.17s.08,0,.1,0a1,1,0,0,0-.33-.88c-.09-.08-.3-.27-.52-.22s-.38.54-.39.78a1.62,1.62,0,0,0,.3.83c.16.29.21.3.26.49s.12.65-.11.78a.47.47,0,0,1-.47,0c-.24-.16-.29-.45-.35-.88s0-.54-.07-.95a3.13,3.13,0,0,0-.08-.75c-.06-.18-.13-.44-.28-.46s-.31.27-.34.34a1.08,1.08,0,0,0-.12.53c0,.28.13.34.21.67a2.39,2.39,0,0,1,0,.6,1.18,1.18,0,0,1-.32.85.58.58,0,0,1-.49.17.65.65,0,0,1-.43-.37c-.12-.23-.07-.38-.05-.94,0-.83-.07-.95-.14-1s-.38,0-.44,0c-.6.25-.75,1.28-.77,1.46l-.05.21c-.06.3-.11.51-.21.53s-.23-.15-.28-.22a1.36,1.36,0,0,1-.24-.75c-.06-.45,0-.64-.17-.89C17.29,12.58,17.22,12.46,17.15,12.48Z"/><path class="cls-33" d="M18.14,11.42c-.21.05-.34.39-.36.43a.81.81,0,0,0-.06.44c0,.11,0,.24.14.29s.26,0,.33-.11.14-.18.1-.24-.14,0-.2-.08,0-.23,0-.26.14-.16.18-.32,0-.12,0-.14A.11.11,0,0,0,18.14,11.42Z"/><path class="cls-33" d="M20.07,11.5a.65.65,0,0,0-.22.5c0,.22,0,.2,0,.54a.32.32,0,0,0,.12.31c.05,0,.17-.11.19-.14a1.34,1.34,0,0,0,.21-.93c0-.13,0-.24-.07-.27A.22.22,0,0,0,20.07,11.5Z"/><path class="cls-33" d="M28.07,18.46a9.19,9.19,0,0,0-1-1.78c-.34-.57-.69-1.12-1-1.66-.05-.59-.1-1.09-.14-1.39a.22.22,0,0,1,.09-.14c.06,0,.1,0,.14,0s0-.31,0-.31c-.11-.41-.34-.61-.8-1.25-.06-.08-.15-.24-.26-.23s-.22.32-.24.52a1.39,1.39,0,0,0,0,.51,5.36,5.36,0,0,0-.34-.49,5.16,5.16,0,0,0-.57-.55c-.35-.28-.44-.27-.49-.25s-.12.15-.16.35a1.08,1.08,0,0,0,0,.69,1.21,1.21,0,0,0,.14.22,25,25,0,0,1,1.86,2.49c.18,2,.26,4.46.22,5.11,0,.24,0,.82.13.87s.38-.33.49-.5a2,2,0,0,0,.19-1.44s-.09-1.3-.2-2.67q.28.5.51.93a16.33,16.33,0,0,0,1.36,2.43C28.24,20,28.31,19.06,28.07,18.46ZM24.67,13s0-.06,0-.08.24,0,.29,0a0,0,0,0,0,0,0c.05.16.11.26.12.3a4.66,4.66,0,0,1,.11.52C25,13.44,24.85,13.2,24.67,13Z"/><path class="cls-33" d="M26.42,12.09c0,.17.15.21.32.54a1.59,1.59,0,0,1,.15.47c.05.28,0,.45,0,.47s.22-.18.3-.41a1.27,1.27,0,0,0-.11-1.05c-.07-.11-.23-.35-.42-.32A.36.36,0,0,0,26.42,12.09Z"/><path class="cls-33" d="M26.7,14.39c-.08-.06-.05-.16-.1-.18s-.16.07-.21.18a.47.47,0,0,0,.08.48A.6.6,0,0,0,27,15a.62.62,0,0,0,.45-.26.45.45,0,0,0,0-.48c0-.05-.11-.09-.15-.07s0,.19-.1.21-.11-.06-.14-.11,0-.15-.07-.16-.14.06-.18.14,0,.1-.05.12S26.73,14.42,26.7,14.39Z"/><path class="cls-33" d="M31.59,15.1c-.1,0-.08-.15-.16-.2a.33.33,0,0,0-.37.07.44.44,0,0,0-.09.35c0,.09.05.25.57.71.37.33.45.35.51.32s.1-.13.12-.26c.06-.38-.1-.57,0-.7s.18-.05.28-.18a.31.31,0,0,0,.06-.18c0-.15,0-.46-.21-.56a.39.39,0,0,0-.42,0c-.12.16.09.46,0,.55a.29.29,0,0,1-.18,0A.22.22,0,0,1,31.59,15.1Z"/><path class="cls-33" d="M34.78,21.43c0-.12.12-.15.12-.23s-.22-.26-.43-.24-.31.11-.3.19.26.11.32.3a.32.32,0,0,1,0,.21c-.09.23-.32.24-.33.38a.25.25,0,0,0,.16.22c.14.06.23-.11.62-.27.2-.08.32-.09.34-.18a.21.21,0,0,0-.11-.22c-.12-.07-.25,0-.32,0A.17.17,0,0,1,34.78,21.43Z"/><path class="cls-33" d="M30.59,18.34s-.11-.88-.4-3c-.08-.63-.21-1.24-.27-1.87h.17c.07,0,.22,0,.27,0s-.07-.24-.1-.3L30,12.74c-.12-.22-.24-.43-.35-.65s-.15-.42-.28-.41-.26.64-.29,1.06a4.84,4.84,0,0,0,.13,1.54A29.83,29.83,0,0,1,30,19.59c0,.47-.08,1.13.08,1.18s.34-.33.45-.58A3.1,3.1,0,0,0,30.59,18.34Z"/><path class="cls-33" d="M28,11.8a2,2,0,0,0-.3.94c0,.45.12.54.18,1.25,0,.17,0,.28,0,.39.1,2.27.3,3.21.35,4.11a5.56,5.56,0,0,1,.1,1.39,1.1,1.1,0,0,1-.34.58,10.14,10.14,0,0,1-1.79,1.31c-.06,0-.2,0-.23.12s.13.25.26.32a1.28,1.28,0,0,0,1.06-.05,2.62,2.62,0,0,0,1.28-1.36A4,4,0,0,0,29,19.43a14.11,14.11,0,0,0-.33-4.52s-.37-1.37-.13-1.44c0,0,.08,0,.14,0s.11-.19.12-.22a.84.84,0,0,0-.14-.49c-.34-.6-.39-1-.53-1A.24.24,0,0,0,28,11.8Z"/><path class="cls-33" d="M32.94,17.15c.16-.17.18-.77,0-.72s-1.27.82-1.41.95-.22.23-.22.38,0,.34,0,.37A11.48,11.48,0,0,0,32.94,17.15Z"/><path class="cls-33" d="M32.5,17.61a1.12,1.12,0,0,0,0,.67,4.4,4.4,0,0,1,.11.9c0,.07.08.34.19.22a1.46,1.46,0,0,0,.32-.7,5,5,0,0,0-.32-1.09C32.81,17.55,32.59,17.53,32.5,17.61Z"/><path class="cls-33" d="M35.82,13.56a4.34,4.34,0,0,1,0,.52c0,.33,0,.48,0,.49s.24-.26.29-.57a1.47,1.47,0,0,0-.11-.81c-.08-.23-.14-.42-.3-.45a.27.27,0,0,0-.27.09c-.1.14,0,.34,0,.43A.81.81,0,0,0,35.82,13.56Z"/><path class="cls-33" d="M35.25,20.52c.21-.28.34-.35.42-.67,0-.11,0-.6,0-1.24.31.48.59.94.82,1.35a4,4,0,0,1,.35.5A2.08,2.08,0,0,0,36.81,19a13.17,13.17,0,0,0-1.13-1.72,12.53,12.53,0,0,0-.23-2.22c-.3-1.31-.33-1.48-.13-1.48s-.28-1.31-.47-1.64-.42-.22-.48-.15a.41.41,0,0,0-.18.46c.13.72.25,1.46.35,2.22.07.5.13,1,.19,1.5l-.82-1.13c-.06-.79-.09-1.36-.09-1.39s.21-.1.21-.19a2.46,2.46,0,0,0-.41-.81c-.39-.4-.32-.77-.46-.76s-.26.26-.25.34c0,.4.07,1,.11,1.55a4.94,4.94,0,0,1-.38-.6c0-.15,0-.15.08-.15a.25.25,0,0,0,.19-.09s-1.33-1.54-1.24-1.05c0,0-.32,1,.09,1.47.14.18.69.88,1.39,1.82a3,3,0,0,0,.08.46,21.46,21.46,0,0,1,.17,4.17c0,.16-.18.54-.41.58s-.35-.16-.47-.29c-.34-.36-.36-.6-.59-.67a.44.44,0,0,0-.4.1,1.68,1.68,0,0,0-.52.88c-.21.58-.23.87-.43,1.05a.5.5,0,0,1-.43.08c-.39-.07-.52-.81-.57-1a2.05,2.05,0,0,1,0-.86,2.54,2.54,0,0,0,0,2.1c.28.47.83.84,1.12.71s.45-.6.62-1.41a.56.56,0,0,1,.51-.46c.4,0,.52.65,1,.78A1.3,1.3,0,0,0,34,20.71c.22-.24.37-.77.13-3.25,0-.42-.08-.87-.12-1.31.29.39.57.79.85,1.2q.15,1.71.18,3.3S35.05,20.8,35.25,20.52Z"/><path class="cls-33" d="M37.28,13.34c.11-.11.51.17.45-.11s-.78-1.61-1.12-1.55c-.12,0-.24.41-.24.58s.09,1.08.18,1.74.68,5.82.54,6.29a2.3,2.3,0,0,1-.72,1c-.23.23-1.28.65-1.28.93s.54.25,1.07.06a1.91,1.91,0,0,0,1.42-1.41,24.2,24.2,0,0,0,.08-4.44A28,28,0,0,1,37.28,13.34Z"/><path class="cls-33" d="M25.4,18.37c0-.09-.29-.05-.36-.05a15.57,15.57,0,0,1-2.76-.07s.2,0,.5-.11a2.5,2.5,0,0,0,1.09-.55,1.36,1.36,0,0,0,.58-.94,1.09,1.09,0,0,0-.55-1,1,1,0,0,0-1,0,1.37,1.37,0,0,0-.48.93c-.1.43,0,.49-.11.64-.25.36-.84,0-1.54.36a2,2,0,0,0-.83.78c0-.18-.05-.38-.08-.63-.21-1.31-.43-1.69-.65-1.93-.09-.09-.31-.33-.47-.28s-.21.53-.21.64a3.66,3.66,0,0,0,.37,1.28,3.39,3.39,0,0,1,.29,1.16,2.47,2.47,0,0,1-.45,1.46,3,3,0,0,1-1.21,1.06.94.94,0,0,1-.86.08.56.56,0,0,1-.25-.39l.09-.06a4.91,4.91,0,0,0,1-.78,2.65,2.65,0,0,0,.88-1.52,2,2,0,0,0-.25-1.31S18,17,18,17s.18.05.24,0,0-.36-.19-.57a.85.85,0,0,0-.57-.45.58.58,0,0,0-.51.22c-.19.28.06.68.11.76s.22.17.37.4a1.19,1.19,0,0,1,.2.67,1.2,1.2,0,0,1-.12.59,3.26,3.26,0,0,1-1.23,1.25c0-.6.07-.94,0-1s-.36.49-.5,1.05c0,.1-.05.19-.07.29-.55.34-.55.3-1.06.63S13,22,13.07,22.11s1.83-.53,1.93-.57l.68-.3a1.24,1.24,0,0,0,.17.42,1.54,1.54,0,0,0,1.27.62,2,2,0,0,0,1.18-.55,4,4,0,0,0,1.28-1.45.83.83,0,0,0,.07-.13,1.16,1.16,0,0,0,.14.42,1.64,1.64,0,0,0,.42.47,3.86,3.86,0,0,0,1.16.7c.28.11.8.3,1.08.12a.53.53,0,0,0,.2-.2.41.41,0,0,0,0-.31c-.07-.22-.32-.16-.54-.41,0,0-.22-.27-.16-.47s.24-.25.53-.34a13.12,13.12,0,0,1,1.78-.34c.38-.06.61-.12.7-.3s0-.26.06-.5a3,3,0,0,1,.3-.5A.15.15,0,0,0,25.4,18.37ZM23,16.57a.25.25,0,0,1,.29,0c.11,0,.14.15.19.31s0,.09,0,.11-.17,0-.26,0S23,16.67,23,16.57Zm-1.78,3.35c-.11.23,0,.45-.11.53s-.19,0-.28,0a1.09,1.09,0,0,1-.68-.87c0-.06,0-.45.17-.57s.23.06.55.12c.47.07.7-.14.9,0a.34.34,0,0,1,.14.28C21.9,19.66,21.41,19.6,21.25,19.92Z"/></g></g></g></svg>