<svg xmlns="http://www.w3.org/2000/svg" xmlns:xlink="http://www.w3.org/1999/xlink" viewBox="0 0 103.21 103.21"><defs><style>.cls-1{fill:url(#linear-gradient);}.cls-2{fill:url(#linear-gradient-2);}.cls-3{fill:url(#linear-gradient-3);}.cls-4{fill:url(#linear-gradient-4);}</style><linearGradient id="linear-gradient" y1="84.94" x2="68.81" y2="84.94" gradientUnits="userSpaceOnUse"><stop offset="0" stop-color="#fbb040"/><stop offset="0.04" stop-color="#fbb040"/><stop offset="0.39" stop-color="#fec007"/><stop offset="1" stop-color="#ffde17"/></linearGradient><linearGradient id="linear-gradient-2" y1="51.61" x2="68.81" y2="51.61" xlink:href="#linear-gradient"/><linearGradient id="linear-gradient-3" x1="51.61" y1="47.31" x2="103.21" y2="47.31" xlink:href="#linear-gradient"/><linearGradient id="linear-gradient-4" x1="64.51" y1="46.23" x2="92.46" y2="46.23" xlink:href="#linear-gradient"/></defs><title>Cong Icon</title><g id="Layer_2" data-name="Layer 2"><g id="Layer_1-2" data-name="Layer 1"><path class="cls-1" d="M65.58,88.16H3.23a3.23,3.23,0,1,1,0-6.45H65.58a3.23,3.23,0,1,1,0,6.45Z"/><path class="cls-2" d="M57,103.21H11.83A11.83,11.83,0,0,1,0,91.39V11.83A11.83,11.83,0,0,1,11.83,0H57A11.79,11.79,0,0,1,68,7.65,3.22,3.22,0,1,1,62,9.9a5.34,5.34,0,0,0-5-3.45H11.83a5.38,5.38,0,0,0-5.38,5.38V91.39a5.38,5.38,0,0,0,5.38,5.37H57a5.38,5.38,0,0,0,5.38-5.37V85a3.23,3.23,0,1,1,6.45,0v6.45A11.83,11.83,0,0,1,57,103.21Z"/><path class="cls-3" d="M77.41,77.41a3.23,3.23,0,0,1-1.26-.26c-1-.42-24.54-10.67-24.54-31.76V28.11a3.22,3.22,0,0,1,2.18-3.05l22.58-7.69a3.22,3.22,0,0,1,2.08,0L101,25.06a3.21,3.21,0,0,1,2.19,3.05V45.39c0,21.09-23.54,31.34-24.54,31.77a3.41,3.41,0,0,1-1.26.25Zm-19.35-47v15c0,14.4,14.86,23,19.35,25.23,4.48-2.28,19.35-10.89,19.35-25.23v-15L77.41,23.83Z"/><path class="cls-4" d="M76.33,58.06a3.19,3.19,0,0,1-2.27-1l-8.61-8.6A3.23,3.23,0,0,1,70,44l6,6L86.66,35.69a3.23,3.23,0,0,1,5.16,3.88l-12.9,17.2a3.23,3.23,0,0,1-2.36,1.28Z"/></g></g></svg>