<svg xmlns="http://www.w3.org/2000/svg" viewBox="0 0 50 50"><defs><style>.cls-1,.cls-34{fill:#fff;}.cls-1{opacity:0;}.cls-2{fill:#f7f7f7;opacity:0.03;}.cls-3{fill:#efefef;opacity:0.06;}.cls-4{fill:#e6e6e6;opacity:0.1;}.cls-5{fill:#dedede;opacity:0.13;}.cls-6{fill:#d6d6d6;opacity:0.16;}.cls-7{fill:#cecece;opacity:0.19;}.cls-8{fill:#c5c5c5;opacity:0.23;}.cls-9{fill:#bdbdbd;opacity:0.26;}.cls-10{fill:#b5b5b5;opacity:0.29;}.cls-11{fill:#adadad;opacity:0.32;}.cls-12{fill:#a5a5a5;opacity:0.35;}.cls-13{fill:#9c9c9c;opacity:0.39;}.cls-14{fill:#949494;opacity:0.42;}.cls-15{fill:#8c8c8c;opacity:0.45;}.cls-16{fill:#848484;opacity:0.48;}.cls-17{fill:#7b7b7b;opacity:0.52;}.cls-18{fill:#737373;opacity:0.55;}.cls-19{fill:#6b6b6b;opacity:0.58;}.cls-20{fill:#636363;opacity:0.61;}.cls-21{fill:#5a5a5a;opacity:0.65;}.cls-22{fill:#525252;opacity:0.68;}.cls-23{fill:#4a4a4a;opacity:0.71;}.cls-24{fill:#424242;opacity:0.74;}.cls-25{fill:#3a3a3a;opacity:0.77;}.cls-26{fill:#313131;opacity:0.81;}.cls-27{fill:#292929;opacity:0.84;}.cls-28{fill:#212121;opacity:0.87;}.cls-29{fill:#191919;opacity:0.9;}.cls-30{fill:#101010;opacity:0.94;}.cls-31{fill:#080808;opacity:0.97;}.cls-32{fill:red;}.cls-33{fill:#00732f;}</style></defs><title>UAE</title><g id="Layer_2" data-name="Layer 2"><g id="Layer_1-2" data-name="Layer 1"><g id="UAE"><path class="cls-1" d="M41.45,7.29C52,17.84,52.91,34.08,43.5,43.5s-25.66,8.5-36.21-2-9-24.31.43-33.73S30.9-3.26,41.45,7.29Z"/><path class="cls-2" d="M41.18,7.43C51.6,17.85,52.51,33.9,43.2,43.2s-25.35,8.4-35.77-2S-1.51,17.1,7.8,7.8,30.76-3,41.18,7.43Z"/><path class="cls-3" d="M40.91,7.56c10.3,10.3,11.19,26.16,2,35.35s-25,8.3-35.35-2-8.87-23.84.32-33S30.61-2.73,40.91,7.56Z"/><path class="cls-4" d="M40.64,7.7c10.17,10.17,11.06,25.83,2,34.92s-24.75,8.19-34.92-2S-1.12,17,8,8,30.47-2.47,40.64,7.7Z"/><path class="cls-5" d="M40.37,7.83c10.05,10,10.92,25.52,2,34.49s-24.44,8.1-34.49-2S-.93,17,8,8,30.33-2.21,40.37,7.83Z"/><path class="cls-6" d="M40.1,8C50,17.89,50.89,33.17,42,42S17.89,50,8,40.1-.74,17,8.12,8.12,30.18-1.95,40.1,8Z"/><path class="cls-7" d="M39.84,8.11C49.63,17.9,50.49,33,41.74,41.74S17.9,49.63,8.11,39.84-.55,17,8.2,8.2,30-1.69,39.84,8.11Z"/><path class="cls-8" d="M39.57,8.24c9.67,9.67,10.51,24.57,1.87,33.2s-23.53,7.8-33.2-1.87-8.59-22.65,0-31.29S29.89-1.43,39.57,8.24Z"/><path class="cls-9" d="M39.3,8.38c9.55,9.55,10.38,24.25,1.85,32.77S17.93,48.84,8.38,39.3s-8.54-22.41,0-30.94S29.75-1.17,39.3,8.38Z"/><path class="cls-10" d="M39,8.51c9.42,9.43,10.24,23.94,1.83,32.35S17.94,48.45,8.51,39,0,16.86,8.44,8.44,29.61-.91,39,8.51Z"/><path class="cls-11" d="M38.76,8.65c9.3,9.3,10.11,23.61,1.81,31.92S18,48.06,8.65,38.76.22,16.82,8.52,8.52,29.46-.65,38.76,8.65Z"/><path class="cls-12" d="M38.49,8.79c9.17,9.17,10,23.29,1.78,31.48S18,47.66,8.79,38.49.41,16.79,8.6,8.6,29.32-.39,38.49,8.79Z"/><path class="cls-13" d="M38.22,8.92C47.27,18,48.06,31.9,40,40S18,47.27,8.92,38.22.61,16.76,8.68,8.68,29.18-.13,38.22,8.92Z"/><path class="cls-14" d="M38,9.06c8.93,8.92,9.7,22.66,1.74,30.63S18,46.87,9.06,38,.8,16.73,8.76,8.76,29,.14,38,9.06Z"/><path class="cls-15" d="M37.69,9.19c8.79,8.8,9.56,22.35,1.7,30.2S18,46.48,9.19,37.69,1,16.7,8.84,8.84,28.89.4,37.69,9.19Z"/><path class="cls-16" d="M37.42,9.33c8.67,8.67,9.42,22,1.68,29.77s-21.1,7-29.77-1.68S1.18,16.67,8.92,8.92,28.74.66,37.42,9.33Z"/><path class="cls-17" d="M37.15,9.47c8.54,8.54,9.29,21.71,1.66,29.34S18,45.69,9.47,37.15,1.38,16.64,9,9,28.6.92,37.15,9.47Z"/><path class="cls-18" d="M36.88,9.6C45.3,18,46,31,38.51,38.51S18,45.3,9.6,36.88s-8-20.27-.52-27.8S28.46,1.18,36.88,9.6Z"/><path class="cls-19" d="M36.61,9.74c8.3,8.3,9,21.07,1.61,28.48S18,44.9,9.74,36.61s-8-20-.57-27.44S28.31,1.44,36.61,9.74Z"/><path class="cls-20" d="M36.34,9.87c8.17,8.18,8.89,20.76,1.59,28.06S18.05,44.51,9.87,36.34,2,16.54,9.25,9.25,28.17,1.7,36.34,9.87Z"/><path class="cls-21" d="M36.07,10c8,8,8.75,20.44,1.56,27.62S18.06,44.12,10,36.07,2.14,16.51,9.33,9.33,28,2,36.07,10Z"/><path class="cls-22" d="M35.8,10.15c7.93,7.92,8.62,20.12,1.54,27.19S18.07,43.72,10.15,35.8,2.34,16.48,9.41,9.41,27.88,2.22,35.8,10.15Z"/><path class="cls-23" d="M35.53,10.28c7.8,7.8,8.48,19.81,1.52,26.77s-19,6.28-26.77-1.52-7.75-19.08-.79-26S27.74,2.48,35.53,10.28Z"/><path class="cls-24" d="M35.27,10.42c7.67,7.67,8.34,19.49,1.49,26.34s-18.67,6.18-26.34-1.49-7.7-18.85-.85-25.7S27.59,2.75,35.27,10.42Z"/><path class="cls-25" d="M35,10.55c7.54,7.55,8.2,19.17,1.46,25.91S18.1,42.54,10.55,35,2.91,16.39,9.65,9.65,27.45,3,35,10.55Z"/><path class="cls-26" d="M34.73,10.69c7.42,7.42,8.07,18.85,1.44,25.48s-18.06,6-25.48-1.44-7.59-18.37-1-25S27.31,3.27,34.73,10.69Z"/><path class="cls-27" d="M34.46,10.83c7.3,7.29,7.93,18.53,1.42,25.05s-17.76,5.87-25.05-1.42S3.3,16.32,9.81,9.81,27.16,3.53,34.46,10.83Z"/><path class="cls-28" d="M34.19,11c7.17,7.17,7.8,18.22,1.39,24.62S18.13,41.36,11,34.19,3.49,16.29,9.89,9.89,27,3.79,34.19,11Z"/><path class="cls-29" d="M33.92,11.1c7,7,7.66,17.9,1.37,24.19S18.15,41,11.1,33.92,3.68,16.26,10,10,26.87,4.05,33.92,11.1Z"/><path class="cls-30" d="M33.65,11.23C40.58,18.16,41.18,28.82,35,35s-16.84,5.57-23.77-1.35-7.36-17.42-1.18-23.6S26.73,4.31,33.65,11.23Z"/><path class="cls-31" d="M33.38,11.37c6.8,6.8,7.39,17.26,1.32,23.33s-16.53,5.48-23.33-1.32S4.06,16.2,10.13,10.13,26.59,4.57,33.38,11.37Z"/><path d="M33.12,11.51c6.67,6.67,7.25,16.94,1.29,22.9s-16.23,5.37-22.9-1.29-7.25-16.95-1.3-22.91S26.44,4.83,33.12,11.51Z"/><path class="cls-32" d="M16.09,2.57V41.73a20.55,20.55,0,0,1,0-39.16Z"/><path d="M41.73,29A20.58,20.58,0,0,1,16.09,41.73V29Z"/><path class="cls-33" d="M41.73,15.3H16.09V2.57A20.58,20.58,0,0,1,41.73,15.3Z"/><path class="cls-34" d="M42.9,22.15A20.45,20.45,0,0,1,41.73,29H16.09V15.3H41.73A20.45,20.45,0,0,1,42.9,22.15Z"/></g></g></g></svg>