<svg xmlns="http://www.w3.org/2000/svg" viewBox="0 0 53.33 50"><defs><style>.cls-1{fill:#ffcc18;}</style></defs><title>Laundry</title><g id="Layer_2" data-name="Layer 2"><g id="Layer_1-2" data-name="Layer 1"><path class="cls-1" d="M20,15.83A13.34,13.34,0,1,0,33.33,29.17,13.35,13.35,0,0,0,20,15.83Zm0,25A11.67,11.67,0,1,1,31.67,29.17,11.68,11.68,0,0,1,20,40.83Z"/><path class="cls-1" d="M20,20a9.17,9.17,0,1,0,9.17,9.17A9.18,9.18,0,0,0,20,20Zm0,16.67a7.5,7.5,0,1,1,7.5-7.5A7.52,7.52,0,0,1,20,36.67Z"/><path class="cls-1" d="M25,28.33a.84.84,0,0,0-.83.84A4.17,4.17,0,0,1,20,33.33a.84.84,0,0,0-.83.84A.83.83,0,0,0,20,35a5.84,5.84,0,0,0,5.83-5.83A.84.84,0,0,0,25,28.33Z"/><path class="cls-1" d="M52.5,38.33h-1a2.31,2.31,0,0,0,.16-.83v-.83A2.47,2.47,0,0,0,51,35a2.47,2.47,0,0,0,.65-1.67V32.5a2.51,2.51,0,0,0-2.5-2.5H40V3.33A3.33,3.33,0,0,0,36.67,0H3.33A3.34,3.34,0,0,0,0,3.33v7.5H0V46.67A3.34,3.34,0,0,0,3.33,50H50a3.33,3.33,0,0,0,3.33-3.33v-7.5A.84.84,0,0,0,52.5,38.33ZM36.67,37.5v-.83a.84.84,0,0,1,.83-.84H49.17a.84.84,0,0,1,.83.84v.83a.83.83,0,0,1-.83.83H37.5A.83.83,0,0,1,36.67,37.5ZM50,32.5v.83a.84.84,0,0,1-.83.84H37.5a.84.84,0,0,1-.83-.84V32.5a.83.83,0,0,1,.83-.83H49.17A.83.83,0,0,1,50,32.5ZM3.33,1.67H36.67a1.66,1.66,0,0,1,1.66,1.66V10H1.67V3.33A1.66,1.66,0,0,1,3.33,1.67Zm-1.66,45v-35H38.33V30H37.5A2.5,2.5,0,0,0,35,32.5v.83A2.47,2.47,0,0,0,35.65,35,2.47,2.47,0,0,0,35,36.67v.83a2.54,2.54,0,0,0,.15.83h-1a.85.85,0,0,0-.84.84v7.5a3.24,3.24,0,0,0,.47,1.66H3.33A1.66,1.66,0,0,1,1.67,46.67Zm50,0A1.66,1.66,0,0,1,50,48.33H36.67A1.66,1.66,0,0,1,35,46.67V40H51.67Z"/><path class="cls-1" d="M5.83,8.33a2.5,2.5,0,1,0-2.5-2.5A2.5,2.5,0,0,0,5.83,8.33ZM5.83,5a.84.84,0,0,1,.84.83.85.85,0,0,1-.84.84A.84.84,0,0,1,5,5.83.83.83,0,0,1,5.83,5Z"/><path class="cls-1" d="M34.17,8.33a2.5,2.5,0,1,0-2.5-2.5A2.51,2.51,0,0,0,34.17,8.33Zm0-3.33a.83.83,0,0,1,.83.83.84.84,0,0,1-.83.84.85.85,0,0,1-.84-.84A.84.84,0,0,1,34.17,5Z"/><path class="cls-1" d="M22.5,8.33h5a2.5,2.5,0,0,0,0-5h-5a2.5,2.5,0,0,0,0,5ZM22.5,5h5a.83.83,0,0,1,.83.83.84.84,0,0,1-.83.84h-5a.84.84,0,0,1-.83-.84A.83.83,0,0,1,22.5,5Z"/></g></g></svg>