<svg xmlns="http://www.w3.org/2000/svg" viewBox="0 0 53.32 50"><defs><style>.cls-1{fill:#ffcc18;}</style></defs><title>Gym</title><g id="Layer_2" data-name="Layer 2"><g id="Layer_1-2" data-name="Layer 1"><path class="cls-1" d="M31.87,39.58A3.13,3.13,0,0,0,35,42.71h2.09a3.13,3.13,0,0,0,3.12-3.13V37.32a3.14,3.14,0,0,0,2.09-2.94V30.21a3.14,3.14,0,0,0-2.09-2.95V25a3.12,3.12,0,0,0-3.12-3.12H35A3.12,3.12,0,0,0,31.87,25v4.17H21.45V25a3.12,3.12,0,0,0-3.12-3.12H16.24A3.12,3.12,0,0,0,13.12,25v2.26A3.13,3.13,0,0,0,11,30.21v4.17a3.13,3.13,0,0,0,2.08,2.94v2.26a3.13,3.13,0,0,0,3.12,3.13h2.09a3.13,3.13,0,0,0,3.12-3.13V35.42H31.87ZM34,25a1,1,0,0,1,1-1h2.09a1,1,0,0,1,1,1v3.13a1,1,0,0,0,1,1,1,1,0,0,1,1,1v4.17a1,1,0,0,1-1,1,1,1,0,0,0-1,1v3.12a1,1,0,0,1-1,1.05H35a1,1,0,0,1-1-1.05ZM19.37,39.58a1,1,0,0,1-1,1.05H16.24a1,1,0,0,1-1-1.05V36.46a1,1,0,0,0-1-1,1,1,0,0,1-1-1V30.21a1,1,0,0,1,1-1,1,1,0,0,0,1-1V25a1,1,0,0,1,1-1h2.09a1,1,0,0,1,1,1Zm2.08-6.25V31.25H31.87v2.08Z"/><path class="cls-1" d="M2.65,23.73A1,1,0,0,0,4.11,24l2.76-2V49a1,1,0,0,0,1,1H22a1,1,0,1,0,0-2.08H9V20.41l17.71-13,17.71,13V47.92h-13a1,1,0,0,0,0,2.08H45.41a1,1,0,0,0,1-1v-27l2.76,2a1,1,0,0,0,1.46-.23l2.45-3.37a1,1,0,0,0-.23-1.45L46.45,14.2v-10h1a1,1,0,1,0,0-2.09H37.08a1,1,0,0,0,0,2.09h1V8.12L27.27.2a1,1,0,0,0-1.22,0L.43,18.91A1,1,0,0,0,.2,20.36ZM40.2,4.17h4.17v8.51l-4.17-3ZM26.66,2.33,50.83,20,49.6,21.66,27.28,5.31a1,1,0,0,0-1.24,0L3.72,21.66,2.5,20Z"/><circle class="cls-1" cx="26.66" cy="48.96" r="1.04"/></g></g></svg>