<svg xmlns="http://www.w3.org/2000/svg" viewBox="0 0 20.96 25.62" id="icon-list_property-save">
    <title>Save</title>
    <g id="icon-list_property-save-1" data-name="Layer 1">
        <g id="icon-list_property-like-2" data-name="Layer 2">
            <path d="M.6,25.47a1.16,1.16,0,0,0,1.18,0L10.48,20l8.7,5.44a1.17,1.17,0,0,0,1.78-1v-21A3.49,3.49,0,0,0,17.47,0h-14A3.49,3.49,0,0,0,0,3.49v21A1.15,1.15,0,0,0,.6,25.47Zm1.73-22A1.16,1.16,0,0,1,3.49,2.33h14a1.16,1.16,0,0,1,1.16,1.16V22.36L11.1,17.65a1.16,1.16,0,0,0-1.24,0L2.33,22.36Z"/>
        </g>
    </g>
</svg>