<svg xmlns="http://www.w3.org/2000/svg" viewBox="0 0 47.52 30"><title>Credit Card</title><g id="Layer_2" data-name="Layer 2"><g id="Layer_1-2" data-name="Layer 1"><g id="Credit_Card" data-name="Credit Card"><path d="M.7,18.11a.69.69,0,0,0,.69-.7V2.55A1.16,1.16,0,0,1,2.55,1.39H14.48a.7.7,0,0,0,0-1.39H2.55A2.55,2.55,0,0,0,0,2.55V17.41A.7.7,0,0,0,.7,18.11Z"/><path d="M45,0H17.63a.7.7,0,0,0,0,1.39H45a1.16,1.16,0,0,1,1.16,1.16V23.06H1.39V20.57a.7.7,0,1,0-1.39,0v6.88A2.55,2.55,0,0,0,2.55,30H45a2.56,2.56,0,0,0,2.56-2.55V2.55A2.56,2.56,0,0,0,45,0Zm0,28.61H2.55a1.16,1.16,0,0,1-1.16-1.16v-3H46.12v3A1.16,1.16,0,0,1,45,28.61Z"/><path d="M4.32,15.26a.7.7,0,1,0,1.39,0V14.05a.7.7,0,0,0-1.39,0Z"/><path d="M6.94,14.05v1.21a.7.7,0,1,0,1.4,0V14.05a.7.7,0,0,0-1.4,0Z"/><path d="M9.57,14.05v1.21a.7.7,0,1,0,1.39,0V14.05a.7.7,0,0,0-1.39,0Z"/><path d="M12.19,14.05v1.21a.7.7,0,1,0,1.39,0V14.05a.7.7,0,0,0-1.39,0Z"/><path d="M17.1,16a.7.7,0,0,0,.69-.7V14.05a.7.7,0,0,0-1.39,0v1.21A.7.7,0,0,0,17.1,16Z"/><path d="M19.72,13.36a.69.69,0,0,0-.7.69v1.21a.7.7,0,1,0,1.39,0V14.05A.69.69,0,0,0,19.72,13.36Z"/><path d="M23,15.26V14.05a.7.7,0,0,0-1.39,0v1.21a.7.7,0,1,0,1.39,0Z"/><path d="M25.66,15.26V14.05a.7.7,0,0,0-1.39,0v1.21a.7.7,0,1,0,1.39,0Z"/><path d="M28.48,15.26a.7.7,0,1,0,1.39,0V14.05a.7.7,0,0,0-1.39,0Z"/><path d="M31.1,14.05v1.21a.7.7,0,1,0,1.39,0V14.05a.7.7,0,0,0-1.39,0Z"/><path d="M34.42,13.36a.7.7,0,0,0-.7.69v1.21a.7.7,0,1,0,1.4,0V14.05A.7.7,0,0,0,34.42,13.36Z"/><path d="M37,13.36a.69.69,0,0,0-.69.69v1.21a.7.7,0,1,0,1.39,0V14.05A.69.69,0,0,0,37,13.36Z"/><path d="M5,18.85H7.64a.7.7,0,1,0,0-1.39H5a.7.7,0,1,0,0,1.39Z"/><path d="M5,21.3H17.1a.7.7,0,0,0,0-1.4H5a.7.7,0,0,0,0,1.4Z"/><path d="M19.83,20.6a.71.71,0,0,0,.7.7H22a.7.7,0,1,0,0-1.4H20.53A.7.7,0,0,0,19.83,20.6Z"/><path d="M11.45,3.66h-6A1.16,1.16,0,0,0,4.32,4.82V8.94A1.16,1.16,0,0,0,5.48,10.1h6a1.16,1.16,0,0,0,1.16-1.16V4.82A1.16,1.16,0,0,0,11.45,3.66ZM5.71,8.71V7.9h.67a.7.7,0,0,0,0-1.39H5.71V5.05H7.77V6A.7.7,0,1,0,9.16,6v-1h2.05V6.51h-.66a.7.7,0,0,0,0,1.39h.66v.81Z"/><path d="M40.41,8.9A1.63,1.63,0,0,0,42,7.27v-2a1.63,1.63,0,0,0-1.62-1.63H30.24a1.63,1.63,0,0,0-1.63,1.63v2A1.63,1.63,0,0,0,30.24,8.9H35a.7.7,0,0,0,0-1.39H30.24A.24.24,0,0,1,30,7.27v-2a.24.24,0,0,1,.24-.24H40.41a.23.23,0,0,1,.23.24v2a.23.23,0,0,1-.23.24H38.17a.7.7,0,0,0,0,1.39Z"/></g></g></g></svg>