<svg xmlns="http://www.w3.org/2000/svg" viewBox="0 0 14.18 25"><defs><style>.cls-1{fill:#3b609a;}</style></defs><title>Facebook</title><g id="Layer_2" data-name="Layer 2"><g id="Layer_1-2" data-name="Layer 1"><path class="cls-1" d="M10.05,5.05a1,1,0,0,0-.75.33,1.12,1.12,0,0,0-.31.8V8.85A.33.33,0,0,0,9.05,9a.25.25,0,0,0,.2.08h3.87a1,1,0,0,1,.75.33,1.16,1.16,0,0,1,.31.8V13a1.16,1.16,0,0,1-.31.8,1,1,0,0,1-.75.33H9.27a.23.23,0,0,0-.19.08.32.32,0,0,0-.07.22v9.42a1.1,1.1,0,0,1-.31.8A1,1,0,0,1,8,25H5.32a1,1,0,0,1-.74-.33,1.11,1.11,0,0,1-.32-.8V14.45a.38.38,0,0,0-.06-.22.26.26,0,0,0-.2-.08H1.06a1,1,0,0,1-.75-.33A1.12,1.12,0,0,1,0,13V10.25a1.12,1.12,0,0,1,.31-.8,1,1,0,0,1,.75-.33H4A.26.26,0,0,0,4.2,9a.33.33,0,0,0,.06-.19V5A5,5,0,0,1,5.64,1.47,4.43,4.43,0,0,1,9,0h4.1a1,1,0,0,1,.75.33,1.12,1.12,0,0,1,.31.8v2.8a1.12,1.12,0,0,1-.31.8,1,1,0,0,1-.75.32Z"/></g></g></svg>