<svg xmlns="http://www.w3.org/2000/svg" viewBox="0 0 80.2 101.29"><defs><style>.cls-1{fill:#112884;}</style></defs><title>Verification Successful</title><g id="Layer_2" data-name="Layer 2"><g id="Layer_1-2" data-name="Layer 1"><g id="Verification_Successful" data-name="Verification Successful"><path class="cls-1" d="M80.06,6.24a2.21,2.21,0,0,0-3.51-.69A23.24,23.24,0,0,1,61.2,11.33,23.16,23.16,0,0,1,41.86,1a2.1,2.1,0,0,0-3.51,0A23.21,23.21,0,0,1,19,11.33,23.15,23.15,0,0,1,3.52,5.42,2.11,2.11,0,0,0,0,7V52.75C0,79.1,37.48,100.14,39.07,101a2.08,2.08,0,0,0,1,.27,2.22,2.22,0,0,0,1-.26c1.59-.88,39.07-21.92,39.07-48.27V7.18A2.31,2.31,0,0,0,80.06,6.24ZM76,52.76c0,21.59-29.92,40.44-35.88,44-6-3.54-35.87-22.37-35.87-44V11.24A27.44,27.44,0,0,0,19,15.55a27.35,27.35,0,0,0,21.1-9.91A27.39,27.39,0,0,0,61.2,15.55,27.39,27.39,0,0,0,76,11.24V52.76Z"/><path class="cls-1" d="M54.26,38.6a2.12,2.12,0,0,0-3,0L35.87,54l-6.93-6.94a2.11,2.11,0,0,0-3,3l8.43,8.44a2.1,2.1,0,0,0,3,0l16.9-16.88A2.12,2.12,0,0,0,54.26,38.6Z"/></g></g></g></svg>