<svg xmlns="http://www.w3.org/2000/svg" viewBox="0 0 32.31 30" class="icon-search-filter_options">
    <title>Filter</title>
    <g id="icon-search-filter_options-filter-1" data-name="Layer 1">
        <g id="icon-search-filter_options-filter-2" data-name="Layer 2">
            <g id="icon-search-filter_options-filter-3" data-name="Layer 3">
                <path d="M28.85,11.54H3.46a1.16,1.16,0,0,1,0-2.31H28.85a1.16,1.16,0,0,1,0,2.31Z"/>
                <path d="M24.23,20.77H8.08a1.16,1.16,0,1,1,0-2.31H24.23a1.16,1.16,0,0,1,0,2.31Z"/>
                <path d="M19.62,30H12.69a1.16,1.16,0,0,1,0-2.31h6.93a1.16,1.16,0,0,1,0,2.31Z"/>
                <path d="M31.15,2.31h-30A1.16,1.16,0,0,1,1.15,0h30a1.16,1.16,0,1,1,0,2.31Z"/>
            </g>
        </g>
    </g>
</svg>