<svg xmlns="http://www.w3.org/2000/svg" viewBox="0 0 46.55 30"><title>Driving License</title><g id="Layer_2" data-name="Layer 2"><g id="Layer_1-2" data-name="Layer 1"><g id="Driving_License" data-name="Driving License"><path d="M46,9.07H.58a.58.58,0,0,1,0-1.16H46a.58.58,0,0,1,0,1.16Z"/><path d="M11.65,18.78a2.65,2.65,0,1,1,2.66-2.65A2.65,2.65,0,0,1,11.65,18.78Zm0-4.14a1.49,1.49,0,1,0,1.49,1.49h0a1.49,1.49,0,0,0-1.49-1.49Z"/><path d="M15.25,24.88H8.05a.58.58,0,0,1-.58-.58V21.17a2,2,0,0,1,2.09-1.8h4.19a2,2,0,0,1,2.08,1.8V24.3a.58.58,0,0,1-.58.58ZM8.63,23.72h6V21.17c0-.35-.42-.64-.92-.64H9.56c-.5,0-.93.29-.93.64Z"/><path d="M46,0H.58A.58.58,0,0,0,0,.58V29.42A.58.58,0,0,0,.58,30H46a.58.58,0,0,0,.58-.58V.58A.58.58,0,0,0,46,0Zm-.58,28.84H1.16V1.16H45.39Z"/><path d="M23.79,12.79H32.7a.58.58,0,1,0,0-1.16H23.79a.58.58,0,0,0,0,1.16Z"/><path d="M23.79,18.26H30.9a.58.58,0,0,0,0-1.16H23.79a.58.58,0,0,0,0,1.16Z"/><path d="M23.79,21.57h2.88a.58.58,0,1,0,0-1.16H23.79a.58.58,0,0,0,0,1.16Z"/><path d="M23.79,24.88h8.35a.58.58,0,1,0,0-1.16H23.79a.58.58,0,0,0,0,1.16Z"/><path d="M33.05,17.68a.58.58,0,0,0,.58.58h4.43a.58.58,0,1,0,0-1.16H33.63A.58.58,0,0,0,33.05,17.68Z"/><path d="M36.84,21a.58.58,0,0,0-.58-.58H29.35a.58.58,0,0,0,0,1.16h6.91A.58.58,0,0,0,36.84,21Z"/><path d="M37.09,23.72H34.46a.58.58,0,1,0,0,1.16h2.63a.58.58,0,1,0,0-1.16Z"/><path d="M17.4,24.88H5.91a.58.58,0,0,1-.59-.58V12.21a.58.58,0,0,1,.59-.58H17.4a.58.58,0,0,1,.58.58V24.3A.58.58,0,0,1,17.4,24.88ZM6.49,23.72H16.82V12.79H6.49Z"/><path d="M18,5.14H7.89A.58.58,0,1,1,7.89,4H18a.58.58,0,1,1,0,1.16Z"/><path d="M38.66,5.14H22.07a.58.58,0,1,1,0-1.16H38.66a.58.58,0,1,1,0,1.16Z"/></g></g></g></svg>