<svg xmlns="http://www.w3.org/2000/svg" viewBox="0 0 45.46 27.27"><defs><style>.cls-1{fill:#ffcc18;}</style></defs><title>Bed</title><g id="Layer_2" data-name="Layer 2"><g id="Layer_1-2" data-name="Layer 1"><path class="cls-1" d="M42.05,19.32H14.77V8H37.5a4.67,4.67,0,0,1,4.55,4.54Zm-30.69,0H3.41V8h8ZM37.5,4.55H3.41V1.14A1.23,1.23,0,0,0,2.27,0H1.14A1.17,1.17,0,0,0,0,1.14v25a1.12,1.12,0,0,0,1.14,1.13H2.27a1.16,1.16,0,0,0,1.14-1.13V22.73H42.05v3.41a1.12,1.12,0,0,0,1.14,1.13h1.13a1.16,1.16,0,0,0,1.14-1.13V12.5A8,8,0,0,0,37.5,4.55Z"/></g></g></svg>