<svg xmlns="http://www.w3.org/2000/svg" viewBox="0 0 16.37 16.37"><defs><style>.cls-1{fill:#ffcb18;}</style></defs><title>Sq. ft</title><g id="Layer_2" data-name="Layer 2"><g id="Layer_1-2" data-name="Layer 1"><path class="cls-1" d="M13.3,11.26h-1a1,1,0,0,0-1,1v1H5.12v-1a1.05,1.05,0,0,0-1-1h-1V5.12h1a1,1,0,0,0,1-1v-1h6.14v1a1,1,0,0,0,1,1h1Zm1.54,3.58H12.79V12.79h2.05Zm-11.26,0h-2V12.79H3.58Zm-2-13.31H3.58V3.58h-2Zm11.26,0h2.05V3.58H12.79Zm2.56,3.59a1,1,0,0,0,1-1V1a1.05,1.05,0,0,0-1-1H12.28a1,1,0,0,0-1,1v.51H5.12V1a1.05,1.05,0,0,0-1-1H1A1,1,0,0,0,0,1V4.09a1,1,0,0,0,1,1h.51v6.14H1a1,1,0,0,0-1,1v3.07a1,1,0,0,0,1,1H4.09a1,1,0,0,0,1-1v-.51h6.14v.51a1,1,0,0,0,1,1h3.07a1,1,0,0,0,1-1V12.28a1.05,1.05,0,0,0-1-1h-.51V5.12Z"/></g></g></svg>