<svg xmlns="http://www.w3.org/2000/svg" viewBox="0 0 26.98 26.98"><defs><style>.cls-1{fill:#85f18a;}.cls-2{fill:#66e16f;}.cls-3{fill:#fff;}.cls-4{fill:#dbf3ff;}</style></defs><title>WhatsApp</title><g id="Layer_2" data-name="Layer 2"><g id="Layer_1-2" data-name="Layer 1"><path class="cls-1" d="M0,27l2.74-7.82A12.92,12.92,0,0,1,14.05,0a12.92,12.92,0,0,1,9.14,22.06A12.94,12.94,0,0,1,7.82,24.24Z"/><path class="cls-2" d="M0,27l7.82-2.74A12.92,12.92,0,0,0,23.19,3.78Z"/><path class="cls-3" d="M11.12,15.86C14.21,19,17.71,20.45,19,19.21l1.49-1.49a.79.79,0,0,0,0-1.12l-1.86-1.86a.79.79,0,0,0-1.12,0l-1.12,1.12a11,11,0,0,1-5.22-5.22l1.12-1.12a.79.79,0,0,0,0-1.12L10.37,6.53a.79.79,0,0,0-1.12,0L7.76,8C6.53,9.26,8,12.77,11.12,15.86Z"/><path class="cls-4" d="M20.44,16.6l-1.86-1.86a.79.79,0,0,0-1.12,0l-1.12,1.12a11.07,11.07,0,0,1-3.06-2.16l-2.16,2.16h0C14.21,19,17.71,20.45,19,19.21l1.49-1.49A.79.79,0,0,0,20.44,16.6Z"/></g></g></svg>