<svg xmlns="http://www.w3.org/2000/svg" viewBox="0 0 45 45"><defs><style>.cls-1{fill:#ff5722;}.cls-2{fill:#f9f9f9;}</style></defs><title>Wajood real</title><g id="Layer_2" data-name="Layer 2"><g id="Layer_1-2" data-name="Layer 1"><rect id="Background" class="cls-1" width="45" height="45" rx="3.55"/><path id="Icon" class="cls-2" d="M27.79,18.34c1.78-2.48,6.43-7.84,9.32-6.81a1.8,1.8,0,0,1,1.27,1.35c.41,1.69-1,2.77-3.6,7-3.18,5.2-4.16,8.65-5.58,10-2.77,3.11-8.4,1.75-7.73-6.71-3.34,5.46-4.17,12.14-9.82,11C5.73,32.61,6,18.63,7.37,15a5.84,5.84,0,0,1,.53-1.29,3.74,3.74,0,0,1,6-1.12c1.39,1.61,1,5.05.79,7.28,1.48-2.56,4-6.22,6.38-8,3.67-2.73,7.92-1,6.67,6.47Z"/></g></g></svg>