<svg xmlns="http://www.w3.org/2000/svg" viewBox="0 0 30 30" class="icon-search-filter_options">
    <title>Sort By</title>
    <g id="icon-search-filter_options-sort_by-1" data-name="Layer 1">
        <g id="icon-search-filter_options-sort_by-2" data-name="Layer 2">
            <g id="icon-search-filter_options-sort_by-3" data-name="Layer 3">
                <path d="M14.18,21.11,9.23,26.06V1.15a1.16,1.16,0,0,0-2.31,0V26.06L2,21.11A1.15,1.15,0,1,0,.34,22.74l6.92,6.92a1.14,1.14,0,0,0,.82.34,1.12,1.12,0,0,0,.81-.34l6.93-6.92a1.15,1.15,0,0,0,0-1.63,1.16,1.16,0,0,0-1.64,0Z"/>
                <path d="M29.66,7.26,22.74.34a1.15,1.15,0,0,0-1.63,0L14.18,7.26a1.15,1.15,0,0,0,0,1.63,1.16,1.16,0,0,0,1.64,0l4.95-5V28.85a1.16,1.16,0,0,0,2.31,0V3.94l5,5a1.14,1.14,0,0,0,.82.34,1.12,1.12,0,0,0,.81-.34,1.15,1.15,0,0,0,0-1.63Z"/>
            </g>
        </g>
    </g>
</svg>