<svg xmlns="http://www.w3.org/2000/svg" viewBox="0 0 15.41 26.98"><defs><style>.cls-1{fill:#3b6099;}</style></defs><title>Facebook</title><g id="Layer_2" data-name="Layer 2"><g id="Layer_1-2" data-name="Layer 1"><path class="cls-1" d="M10.92,5.45a1.06,1.06,0,0,0-.81.36,1.18,1.18,0,0,0-.34.86V9.55a.31.31,0,0,0,.07.2.26.26,0,0,0,.21.09h4.21a1.09,1.09,0,0,1,.82.36,1.2,1.2,0,0,1,.33.86v3a1.22,1.22,0,0,1-.33.86,1.09,1.09,0,0,1-.82.36H10.08a.26.26,0,0,0-.21.09.32.32,0,0,0-.07.23V25.76a1.18,1.18,0,0,1-.34.86,1.06,1.06,0,0,1-.81.36H5.78a1.1,1.1,0,0,1-.8-.36,1.19,1.19,0,0,1-.35-.86V15.59a.32.32,0,0,0-.07-.23.23.23,0,0,0-.21-.09H1.15a1.06,1.06,0,0,1-.81-.36A1.18,1.18,0,0,1,0,14.05v-3a1.17,1.17,0,0,1,.34-.86,1.06,1.06,0,0,1,.81-.36h3.2a.23.23,0,0,0,.21-.09.31.31,0,0,0,.07-.2V5.42a5.35,5.35,0,0,1,1.5-3.83A4.84,4.84,0,0,1,9.77,0h4.47a1.09,1.09,0,0,1,.81.36,1.21,1.21,0,0,1,.34.86v3a1.24,1.24,0,0,1-.34.86,1.08,1.08,0,0,1-.81.35Z"/></g></g></svg>