<svg xmlns="http://www.w3.org/2000/svg" viewBox="0 0 36.37 36.37"><defs><style>.cls-1{fill:#ffcc18;}</style></defs><title>Sqft</title><g id="Layer_2" data-name="Layer 2"><g id="Layer_1-2" data-name="Layer 1"><path class="cls-1" d="M29.55,25H27.27A2.29,2.29,0,0,0,25,27.27v2.28H11.36V27.27A2.34,2.34,0,0,0,9.09,25H6.82V11.36H9.09a2.28,2.28,0,0,0,2.27-2.27V6.82H25V9.09a2.24,2.24,0,0,0,2.27,2.27h2.28ZM33,33H28.41V28.41H33ZM8,33H3.41V28.41H8ZM3.41,3.41H8V8H3.41Zm25,0H33V8H28.41Zm5.68,8a2.29,2.29,0,0,0,2.28-2.27V2.27A2.34,2.34,0,0,0,34.09,0H27.27A2.29,2.29,0,0,0,25,2.27V3.41H11.36V2.27A2.34,2.34,0,0,0,9.09,0H2.27A2.29,2.29,0,0,0,0,2.27V9.09a2.24,2.24,0,0,0,2.27,2.27H3.41V25H2.27A2.29,2.29,0,0,0,0,27.27v6.82a2.25,2.25,0,0,0,2.27,2.28H9.09a2.29,2.29,0,0,0,2.27-2.28V33H25v1.13a2.25,2.25,0,0,0,2.27,2.28h6.82a2.3,2.3,0,0,0,2.28-2.28V27.27A2.34,2.34,0,0,0,34.09,25H33V11.36Z"/></g></g></svg>