<svg xmlns="http://www.w3.org/2000/svg" viewBox="0 0 26.85 25.62"><defs><style>.cls-1{opacity:0.3;}</style></defs><title>Srar Disply</title><g id="Layer_2" data-name="Layer 2"><g id="Layer_1-2" data-name="Layer 1"><g class="cls-1"><path d="M26.76,9.59a1.86,1.86,0,0,0-1.5-1.26l-7-1L15.07.94a1.93,1.93,0,0,0-3.31,0L8.61,7.31l-7,1A1.86,1.86,0,0,0,.09,9.59a1.83,1.83,0,0,0,.47,1.89l5.1,5-1.21,7a1.88,1.88,0,0,0,.74,1.81,1.84,1.84,0,0,0,1.94.13l6.28-3.31,6.3,3.31a1.78,1.78,0,0,0,.86.22,1.91,1.91,0,0,0,1.09-.35,1.87,1.87,0,0,0,.73-1.81l-1.2-7,5.1-5A1.87,1.87,0,0,0,26.76,9.59Z"/></g></g></g></svg>