<svg xmlns="http://www.w3.org/2000/svg" viewBox="0 0 30 30"><defs><style>.cls-1{opacity:0.3;}.cls-2{fill:#112884;}</style></defs><title>Back</title><g id="Layer_2" data-name="Layer 2"><g id="Layer_1-2" data-name="Layer 1"><g id="Back"><g class="cls-1"><path class="cls-2" d="M15,30A15,15,0,1,0,0,15,15,15,0,0,0,15,30ZM15,2.05A13,13,0,1,1,2.05,15,13,13,0,0,1,15,2.05Z"/><path class="cls-2" d="M13,21.42a1,1,0,0,0,1.45,0,1,1,0,0,0,0-1.45L10.49,16H21.92a1,1,0,0,0,0-2.06H10.49L14.44,10a1,1,0,0,0,0-1.45,1,1,0,0,0-.73-.3,1,1,0,0,0-.72.3l-5.7,5.69a1,1,0,0,0,0,1.46Z"/></g></g></g></g></svg>