<svg xmlns="http://www.w3.org/2000/svg" viewBox="0 0 25.38 40"><title>Passport</title><g id="Layer_2" data-name="Layer 2"><g id="Layer_1-2" data-name="Layer 1"><g id="Passport"><path d="M23.5,5.63H21.32V.49A.49.49,0,0,0,20.83,0l-.14,0L1.78,5.63A1.87,1.87,0,0,0,0,7.5V38.12A1.88,1.88,0,0,0,1.88,40H23.5a1.88,1.88,0,0,0,1.88-1.88V7.5A1.87,1.87,0,0,0,23.5,5.63ZM20.34,1.14V5.62H5.22Zm4.07,37a.9.9,0,0,1-.91.9H1.88a.9.9,0,0,1-.9-.9V7.5a.92.92,0,0,1,.44-.78v0l.5-.15H23.5a.91.91,0,0,1,.91.9Z"/><path d="M19.72,29.89H5.66a.49.49,0,0,0,0,1H19.72a.49.49,0,0,0,0-1Z"/><path d="M15.9,33.17H9.48a.49.49,0,0,0,0,1H15.9a.49.49,0,0,0,0-1Z"/><path d="M12.69,11.67A7.35,7.35,0,1,0,20,19a7.35,7.35,0,0,0-7.34-7.35Zm-2.23,1.39A7.14,7.14,0,0,0,9,15.2a6.24,6.24,0,0,1-.84-.7,6.36,6.36,0,0,1,2.26-1.44ZM7.57,15.24a7,7,0,0,0,1.13.91,9.55,9.55,0,0,0-.39,2.38h-2a6.3,6.3,0,0,1,1.22-3.29ZM6.35,19.5h2a9.63,9.63,0,0,0,.39,2.38,7,7,0,0,0-1.13.9A6.33,6.33,0,0,1,6.35,19.5Zm1.86,4a6.24,6.24,0,0,1,.84-.7A7.18,7.18,0,0,0,10.47,25,6.49,6.49,0,0,1,8.21,23.52Zm4,1.61a5.92,5.92,0,0,1-2.31-2.81,6.32,6.32,0,0,1,2.31-.63Zm0-4.41a7.19,7.19,0,0,0-2.62.67,9.31,9.31,0,0,1-.3-1.89H12.2Zm0-2.2H9.28a9.2,9.2,0,0,1,.3-1.89,7.24,7.24,0,0,0,2.62.67Zm0-2.19a6.46,6.46,0,0,1-2.31-.63,6.08,6.08,0,0,1,2.31-2.81Zm5-1.83a5.57,5.57,0,0,1-.84.7,7.18,7.18,0,0,0-1.42-2.15A6.58,6.58,0,0,1,17.18,14.5Zm-4-1.61a6.07,6.07,0,0,1,2.32,2.82,6.11,6.11,0,0,1-2.32.62Zm0,4.42a7.31,7.31,0,0,0,2.63-.68,9.42,9.42,0,0,1,.3,1.89H13.18Zm0,2.19H16.1a8.1,8.1,0,0,1-.3,1.88,7,7,0,0,0-2.63-.67V19.5Zm0,5.63V21.69a6.32,6.32,0,0,1,2.32.63,6,6,0,0,1-2.32,2.81ZM14.92,25a7.23,7.23,0,0,0,1.42-2.16,7.08,7.08,0,0,1,.84.7A6.47,6.47,0,0,1,14.92,25Zm2.89-2.19a6.57,6.57,0,0,0-1.13-.9,9.55,9.55,0,0,0,.39-2.38h2A6.33,6.33,0,0,1,17.81,22.78Zm-.74-4.26a9.55,9.55,0,0,0-.39-2.37,7,7,0,0,0,1.13-.91A6.3,6.3,0,0,1,19,18.52Z"/></g></g></g></svg>