<svg xmlns="http://www.w3.org/2000/svg" xmlns:xlink="http://www.w3.org/1999/xlink" viewBox="0 0 36.67 40"><defs><style>.cls-1{opacity:0.3;fill:url(#linear-gradient);}</style><linearGradient id="linear-gradient" y1="20" x2="36.67" y2="20" gradientUnits="userSpaceOnUse"><stop offset="0" stop-color="#4d4d4d"/><stop offset="1"/></linearGradient></defs><title>Share</title><g id="Layer_2" data-name="Layer 2"><g id="Layer_1-2" data-name="Layer 1"><path class="cls-1" d="M30,26.67a6.64,6.64,0,0,0-4.89,2.15L13,21.94a6.63,6.63,0,0,0,0-3.88l12.07-6.88a6.65,6.65,0,1,0-1.78-4.51,6.75,6.75,0,0,0,.2,1.57l-12.23,7a6.61,6.61,0,0,0-4.63-1.89,6.67,6.67,0,0,0,0,13.34,6.61,6.61,0,0,0,4.63-1.89l12.23,7a6.75,6.75,0,0,0-.2,1.57A6.67,6.67,0,1,0,30,26.67Z"/></g></g></svg>