<svg xmlns="http://www.w3.org/2000/svg" width="30.927" height="32.139" viewBox="0 0 30.927 32.139">
  <path id="Path_2908" data-name="Path 2908" d="M1749.041,87a5.625,5.625,0,1,1,5.563-5.625A5.6,5.6,0,0,1,1749.041,87m11.811-4.05a11.226,11.226,0,0,0,0-3.149l3.354-2.652a.816.816,0,0,0,.191-1.028l-3.18-5.56a.794.794,0,0,0-.969-.354l-3.959,1.607a11.563,11.563,0,0,0-2.686-1.575l-.6-4.258a.783.783,0,0,0-.779-.675h-6.359a.778.778,0,0,0-.779.675l-.6,4.258a12.159,12.159,0,0,0-2.686,1.575l-3.959-1.607a.773.773,0,0,0-.97.354l-3.179,5.56a.8.8,0,0,0,.191,1.028l3.354,2.652a11.226,11.226,0,0,0,0,3.149l-3.354,2.652a.816.816,0,0,0-.191,1.028l3.179,5.56a.8.8,0,0,0,.97.354l3.959-1.607a11.566,11.566,0,0,0,2.686,1.575l.6,4.258a.778.778,0,0,0,.779.675h6.359a.778.778,0,0,0,.779-.675l.6-4.258a12.194,12.194,0,0,0,2.686-1.575l3.959,1.607a.771.771,0,0,0,.969-.354l3.18-5.56a.816.816,0,0,0-.191-1.028l-3.354-2.652" transform="translate(-1733.574 -65.311)" fill="#232323" fill-rule="evenodd"/>
</svg>
