<svg xmlns="http://www.w3.org/2000/svg" viewBox="0 0 34.07 27.7"><defs><style>.cls-1{fill:#19abdf;fill-rule:evenodd;}</style></defs><title>Twitter</title><g id="Layer_2" data-name="Layer 2"><g id="Layer_1-2" data-name="Layer 1"><path class="cls-1" d="M34.07,3.28a13.54,13.54,0,0,1-4,1.1A7,7,0,0,0,33.13.52a14.1,14.1,0,0,1-4.44,1.69A7,7,0,0,0,16.78,8.59,19.85,19.85,0,0,1,2.37,1.28a7,7,0,0,0,2.17,9.34,6.93,6.93,0,0,1-3.17-.88v.09A7,7,0,0,0,7,16.68a7,7,0,0,1-1.84.25,6.36,6.36,0,0,1-1.32-.13,7,7,0,0,0,6.53,4.86,14,14,0,0,1-8.68,3A13.14,13.14,0,0,1,0,24.55,19.73,19.73,0,0,0,10.71,27.7c12.86,0,19.9-10.66,19.9-19.9,0-.3,0-.6,0-.9A14.26,14.26,0,0,0,34.07,3.28Z"/></g></g></svg>