<svg xmlns="http://www.w3.org/2000/svg" width="26.828" height="26.829" viewBox="0 0 26.828 26.829">
  <path id="Path_3061" data-name="Path 3061" d="M1334.33,465.593a2.577,2.577,0,0,0-2.439-2.683H1324.2l1.159-6.13.036-.429a2.126,2.126,0,0,0-.536-1.422l-1.293-1.409-8.024,8.84a2.761,2.761,0,0,0-.72,1.892v13.414a2.578,2.578,0,0,0,2.439,2.683h10.976a2.43,2.43,0,0,0,2.243-1.637l3.683-9.457a2.874,2.874,0,0,0,.171-.979v-2.562l-.012-.014.012-.107M1307.5,480.349h4.877v-16.1H1307.5v16.1" transform="translate(-1307.502 -453.52)" fill="#13aadf" fill-rule="evenodd"/>
</svg>
