<svg xmlns="http://www.w3.org/2000/svg" xmlns:xlink="http://www.w3.org/1999/xlink" viewBox="0 0 40 40"><defs><style>.cls-1{fill:url(#linear-gradient);}.cls-2{fill:url(#linear-gradient-2);}.cls-3{fill:url(#linear-gradient-3);}.cls-4{fill:url(#linear-gradient-4);}.cls-5{fill:url(#linear-gradient-5);}.cls-6{fill:url(#linear-gradient-6);}</style><linearGradient id="linear-gradient" x1="26.25" y1="16.3" x2="28.84" y2="16.3" gradientUnits="userSpaceOnUse"><stop offset="0" stop-color="#fbb040"/><stop offset="0.04" stop-color="#fbb040"/><stop offset="0.39" stop-color="#fec007"/><stop offset="1" stop-color="#ffde17"/></linearGradient><linearGradient id="linear-gradient-2" x1="0" y1="20" x2="40" y2="20" xlink:href="#linear-gradient"/><linearGradient id="linear-gradient-3" x1="11.24" y1="21.18" x2="15.6" y2="21.18" xlink:href="#linear-gradient"/><linearGradient id="linear-gradient-4" x1="16.45" y1="21.18" x2="21.18" y2="21.18" xlink:href="#linear-gradient"/><linearGradient id="linear-gradient-5" x1="21.74" y1="21.2" x2="26.4" y2="21.2" xlink:href="#linear-gradient"/><linearGradient id="linear-gradient-6" x1="25.43" y1="16.34" x2="29.65" y2="16.34" xlink:href="#linear-gradient"/></defs><title>360 tour</title><g id="Layer_2" data-name="Layer 2"><g id="Layer_1-2" data-name="Layer 1"><circle class="cls-1" cx="27.54" cy="16.3" r="1.29"/><path class="cls-2" d="M30.13,9.91A21.94,21.94,0,0,0,29,7.13C26.77,2.62,23.48,0,20,0,13.53,0,8.28,9,8.28,20a32,32,0,0,0,1.18,8.76c-5-1.88-8.31-5.1-8.31-8.76,0-3.22,2.58-6.21,7.13-8.24a.56.56,0,0,0-.44-1C2.85,12.94,0,16.3,0,20c0,4.29,4,8.06,9.91,10.09A23,23,0,0,0,11.65,34c2.21,3.85,5.17,6,8.35,6h0c3.7,0,7.1-2.85,9.32-7.87a.57.57,0,0,0-1-.45c-2,4.55-5.06,7.17-8.28,7.17h0c-2.77,0-5.4-1.92-7.39-5.39a21.83,21.83,0,0,1-1.37-2.92A32.77,32.77,0,0,0,20,31.72c11,0,20-5.25,20-11.72C40,15.71,36,11.94,30.13,9.91ZM20,30.57a31.32,31.32,0,0,1-9.21-1.33A30.8,30.8,0,0,1,9.43,20C9.43,9.65,14.16,1.18,20,1.18c3,0,5.95,2.37,8,6.51.29.59.52,1.18.77,1.81A32.42,32.42,0,0,0,20,8.32a34,34,0,0,0-7.87.92.58.58,0,0,0-.41.7.56.56,0,0,0,.7.41A31.94,31.94,0,0,1,20,9.46a31.25,31.25,0,0,1,9.2,1.33,25.64,25.64,0,0,1,.67,2.48,31.22,31.22,0,0,1,.7,6.77,31.52,31.52,0,0,1-.89,7.54.57.57,0,1,0,1.11.29,33.66,33.66,0,0,0,.93-7.8,33.11,33.11,0,0,0-.74-7l-.45-1.78c5,1.81,8.28,5,8.28,8.69C38.85,25.84,30.39,30.57,20,30.57Z"/><path class="cls-3" d="M14.27,21h0a1.54,1.54,0,0,0,1.15-1.44c0-.85-.74-1.56-2.07-1.56a3.75,3.75,0,0,0-1.93.48l.3,1A2.82,2.82,0,0,1,13,19.15c.59,0,.93.26.93.63s-.63.7-1.11.7h-.56v1h.6c.62,0,1.25.25,1.25.88s-.37.82-1.14.82a3.86,3.86,0,0,1-1.45-.37l-.29,1.07a3.76,3.76,0,0,0,1.85.44c1.55,0,2.51-.81,2.51-1.88A1.51,1.51,0,0,0,14.27,21Z"/><path class="cls-4" d="M19.3,20.15a1.74,1.74,0,0,0-1.3.48h0c.14-.74.74-1.37,2-1.48a2.94,2.94,0,0,1,.55,0V18H20a3.76,3.76,0,0,0-2.4.93,3.7,3.7,0,0,0-1.11,2.73,2.42,2.42,0,0,0,2.44,2.7,2.22,2.22,0,0,0,2.29-2.22A1.85,1.85,0,0,0,19.3,20.15Zm-.41,3.18c-.66,0-1-.59-1-1.26A.75.75,0,0,1,18,21.7a1,1,0,0,1,.85-.55c.63,0,.92.48.92,1.07S19.41,23.33,18.89,23.33Z"/><path class="cls-5" d="M24.1,18c-1.59,0-2.36,1.41-2.36,3.22s.7,3.18,2.29,3.18,2.37-1.29,2.37-3.22C26.4,19.48,25.77,18,24.1,18Zm0,5.29c-.55,0-.88-.67-.88-2.11s.37-2.1.88-2.1.89.74.89,2.1S24.66,23.29,24.1,23.29Z"/><path class="cls-6" d="M27.54,14.23a2.11,2.11,0,1,0,2.11,2.11A2.09,2.09,0,0,0,27.54,14.23Zm0,3a1,1,0,1,1,1-1A.92.92,0,0,1,27.54,17.26Z"/></g></g></svg>