<svg xmlns="http://www.w3.org/2000/svg" viewBox="0 0 41.65 30"><title>ID Card</title><g id="Layer_2" data-name="Layer 2"><g id="Layer_1-2" data-name="Layer 1"><g id="ID_Card" data-name="ID Card"><path d="M12.8,15.49H9.66A4.93,4.93,0,0,0,4.74,20.4V22a.54.54,0,0,0,.54.53h11.9a.54.54,0,0,0,.53-.54V20.4A4.92,4.92,0,0,0,12.8,15.49Zm3.83,5.94H5.82v-1a3.86,3.86,0,0,1,3.84-3.84H12.8a3.86,3.86,0,0,1,3.83,3.84v1Z"/><path d="M36.38,20.31H22a.54.54,0,0,0,0,1.07H36.38a.52.52,0,0,0,.5-.5A.53.53,0,0,0,36.38,20.31Z"/><path d="M13.76,13.71l0,0h0a3.63,3.63,0,0,0-5.1-5.16l0,0h0a3.63,3.63,0,0,0,5.1,5.16ZM9.43,9.31l0,0a2.56,2.56,0,0,1,3.58,0h0a2.57,2.57,0,0,1,0,3.61l0,0A2.55,2.55,0,0,1,9.43,9.31Z"/><path d="M38.07,0H3.58A3.6,3.6,0,0,0,0,3.58V26.42A3.6,3.6,0,0,0,3.58,30H38.07a3.59,3.59,0,0,0,3.58-3.58V3.58A3.59,3.59,0,0,0,38.07,0Zm2.51,26.42a2.53,2.53,0,0,1-2.51,2.51H3.58a2.53,2.53,0,0,1-2.51-2.51V3.58A2.53,2.53,0,0,1,3.58,1.07H38.07a2.53,2.53,0,0,1,2.51,2.51Z"/><path d="M36.38,8.62H22a.54.54,0,0,0,0,1.07H36.38a.52.52,0,0,0,.5-.5A.53.53,0,0,0,36.38,8.62Z"/><path d="M36.38,14.46H22a.54.54,0,0,0,0,1.08H36.38a.54.54,0,0,0,0-1.08Z"/><path d="M36.38,11.54H22a.54.54,0,0,0,0,1.08H36.38a.54.54,0,0,0,0-1.08Z"/><path d="M36.38,17.39H22a.52.52,0,0,0-.5.5.53.53,0,0,0,.5.57H36.38a.54.54,0,0,0,0-1.07Z"/></g></g></g></svg>