<svg xmlns="http://www.w3.org/2000/svg" viewBox="0 0 50 50"><defs><style>.cls-1,.cls-32{fill:#fff;}.cls-1{opacity:0;}.cls-2{fill:#f7f7f7;opacity:0.03;}.cls-3{fill:#efefef;opacity:0.06;}.cls-4{fill:#e6e6e6;opacity:0.1;}.cls-5{fill:#dedede;opacity:0.13;}.cls-6{fill:#d6d6d6;opacity:0.16;}.cls-7{fill:#cecece;opacity:0.19;}.cls-8{fill:#c5c5c5;opacity:0.23;}.cls-9{fill:#bdbdbd;opacity:0.26;}.cls-10{fill:#b5b5b5;opacity:0.29;}.cls-11{fill:#adadad;opacity:0.32;}.cls-12{fill:#a5a5a5;opacity:0.35;}.cls-13{fill:#9c9c9c;opacity:0.39;}.cls-14{fill:#949494;opacity:0.42;}.cls-15{fill:#8c8c8c;opacity:0.45;}.cls-16{fill:#848484;opacity:0.48;}.cls-17{fill:#7b7b7b;opacity:0.52;}.cls-18{fill:#737373;opacity:0.55;}.cls-19{fill:#6b6b6b;opacity:0.58;}.cls-20{fill:#636363;opacity:0.61;}.cls-21{fill:#5a5a5a;opacity:0.65;}.cls-22{fill:#525252;opacity:0.68;}.cls-23{fill:#4a4a4a;opacity:0.71;}.cls-24{fill:#424242;opacity:0.74;}.cls-25{fill:#3a3a3a;opacity:0.77;}.cls-26{fill:#313131;opacity:0.81;}.cls-27{fill:#292929;opacity:0.84;}.cls-28{fill:#212121;opacity:0.87;}.cls-29{fill:#191919;opacity:0.9;}.cls-30{fill:#101010;opacity:0.94;}.cls-31{fill:#080808;opacity:0.97;}.cls-33{fill:#b12233;}.cls-34{fill:#3c3b6d;}</style></defs><title>USA</title><g id="Layer_2" data-name="Layer 2"><g id="Layer_1-2" data-name="Layer 1"><g id="UAE"><path class="cls-1" d="M41.45,7.29C52,17.84,52.92,34.08,43.5,43.5s-25.66,8.5-36.21-2-9-24.31.43-33.73S30.9-3.26,41.45,7.29Z"/><path class="cls-2" d="M41.18,7.43c10.42,10.42,11.33,26.47,2,35.77s-25.36,8.4-35.78-2S-1.51,17.11,7.8,7.8,30.76-3,41.18,7.43Z"/><path class="cls-3" d="M40.91,7.56c10.3,10.3,11.2,26.16,2,35.35s-25,8.3-35.35-2-8.88-23.84.32-33S30.62-2.73,40.91,7.56Z"/><path class="cls-4" d="M40.64,7.7c10.18,10.17,11.06,25.83,2,34.92s-24.75,8.19-34.92-2S-1.12,17,8,8,30.47-2.47,40.64,7.7Z"/><path class="cls-5" d="M40.37,7.83c10.05,10,10.93,25.52,2,34.49s-24.45,8.1-34.49-2S-.93,17,8,8,30.33-2.21,40.37,7.83Z"/><path class="cls-6" d="M40.11,8C50,17.89,50.89,33.17,42,42S17.89,50,8,40.1-.74,17,8.12,8.12,30.18-1.95,40.11,8Z"/><path class="cls-7" d="M39.84,8.11C49.63,17.9,50.49,33,41.74,41.74s-23.83,7.89-33.63-1.9S-.55,17,8.2,8.2,30-1.69,39.84,8.11Z"/><path class="cls-8" d="M39.57,8.24c9.67,9.67,10.51,24.57,1.88,33.2s-23.53,7.8-33.21-1.87-8.6-22.65,0-31.29S29.9-1.43,39.57,8.24Z"/><path class="cls-9" d="M39.3,8.38c9.55,9.55,10.38,24.25,1.85,32.77S17.93,48.85,8.38,39.3s-8.54-22.41,0-30.94S29.75-1.17,39.3,8.38Z"/><path class="cls-10" d="M39,8.51c9.42,9.43,10.24,23.94,1.83,32.35S17.94,48.45,8.52,39,0,16.86,8.44,8.44,29.61-.91,39,8.51Z"/><path class="cls-11" d="M38.76,8.65c9.3,9.3,10.11,23.61,1.81,31.92S18,48.06,8.65,38.76.22,16.82,8.52,8.52,29.47-.65,38.76,8.65Z"/><path class="cls-12" d="M38.49,8.79c9.17,9.17,10,23.29,1.78,31.48S18,47.66,8.79,38.49.41,16.79,8.6,8.6,29.32-.38,38.49,8.79Z"/><path class="cls-13" d="M38.22,8.92C47.27,18,48.06,31.9,40,40S18,47.27,8.92,38.22.6,16.76,8.68,8.68,29.18-.12,38.22,8.92Z"/><path class="cls-14" d="M38,9.06c8.93,8.92,9.7,22.66,1.74,30.63S18,46.88,9.06,38,.8,16.73,8.76,8.76,29,.14,38,9.06Z"/><path class="cls-15" d="M37.69,9.19c8.79,8.8,9.56,22.35,1.7,30.2S18,46.48,9.2,37.69,1,16.7,8.84,8.84,28.89.4,37.69,9.19Z"/><path class="cls-16" d="M37.42,9.33c8.67,8.67,9.42,22,1.68,29.77s-21.1,7-29.77-1.68S1.18,16.67,8.92,8.92,28.75.66,37.42,9.33Z"/><path class="cls-17" d="M37.15,9.47c8.54,8.54,9.29,21.71,1.66,29.34S18,45.7,9.47,37.15,1.37,16.64,9,9,28.6.92,37.15,9.47Z"/><path class="cls-18" d="M36.88,9.6C45.3,18,46,31,38.51,38.51S18,45.3,9.6,36.88s-8-20.27-.52-27.8S28.46,1.18,36.88,9.6Z"/><path class="cls-19" d="M36.61,9.74c8.3,8.3,9,21.07,1.61,28.48S18,44.91,9.74,36.61s-8-20-.57-27.44S28.31,1.44,36.61,9.74Z"/><path class="cls-20" d="M36.34,9.87c8.17,8.18,8.88,20.76,1.59,28.06s-19.88,6.58-28-1.59S2,16.54,9.25,9.25,28.17,1.7,36.34,9.87Z"/><path class="cls-21" d="M36.07,10c8,8,8.75,20.44,1.56,27.62S18.06,44.12,10,36.07,2.14,16.51,9.33,9.33,28,2,36.07,10Z"/><path class="cls-22" d="M35.8,10.15c7.93,7.92,8.61,20.12,1.54,27.19S18.07,43.73,10.15,35.8,2.33,16.48,9.41,9.41,27.88,2.23,35.8,10.15Z"/><path class="cls-23" d="M35.53,10.28c7.8,7.8,8.48,19.81,1.52,26.77s-19,6.28-26.77-1.52-7.75-19.08-.79-26S27.74,2.49,35.53,10.28Z"/><path class="cls-24" d="M35.26,10.42c7.68,7.67,8.35,19.48,1.49,26.34s-18.66,6.18-26.33-1.49-7.7-18.85-.85-25.7S27.6,2.75,35.26,10.42Z"/><path class="cls-25" d="M35,10.55c7.54,7.55,8.2,19.17,1.46,25.91S18.1,42.54,10.56,35,2.91,16.39,9.65,9.65,27.45,3,35,10.55Z"/><path class="cls-26" d="M34.73,10.69c7.42,7.42,8.07,18.85,1.44,25.48s-18.06,6-25.48-1.44-7.59-18.37-1-25S27.31,3.27,34.73,10.69Z"/><path class="cls-27" d="M34.46,10.83c7.3,7.29,7.93,18.53,1.41,25.05s-17.74,5.88-25-1.42-7.54-18.14-1-24.65S27.16,3.53,34.46,10.83Z"/><path class="cls-28" d="M34.19,11c7.17,7.17,7.8,18.22,1.39,24.62S18.14,41.36,11,34.19,3.49,16.29,9.89,9.89,27,3.79,34.19,11Z"/><path class="cls-29" d="M33.92,11.1c7,7,7.66,17.9,1.37,24.19S18.15,41,11.1,33.92,3.68,16.26,10,10,26.88,4.05,33.92,11.1Z"/><path class="cls-30" d="M33.65,11.23C40.57,18.16,41.18,28.82,35,35s-16.84,5.58-23.76-1.35-7.37-17.42-1.19-23.6S26.73,4.31,33.65,11.23Z"/><path class="cls-31" d="M33.38,11.37c6.8,6.8,7.39,17.26,1.32,23.33s-16.53,5.48-23.33-1.32S4.06,16.2,10.13,10.13,26.59,4.58,33.38,11.37Z"/><path d="M33.11,11.51c6.68,6.67,7.26,16.94,1.3,22.9s-16.23,5.38-22.9-1.29-7.26-16.95-1.3-22.91S26.44,4.84,33.11,11.51Z"/><path class="cls-32" d="M41.32,30.06a20.67,20.67,0,0,1-1.66,3.16H5a20.67,20.67,0,0,1-1.66-3.16Z"/><path class="cls-33" d="M42.35,26.89a18.94,18.94,0,0,1-1,3.17H3.38a19.9,19.9,0,0,1-1-3.17Z"/><path class="cls-32" d="M42.84,23.73a20.4,20.4,0,0,1-.49,3.16h-40a19.27,19.27,0,0,1-.49-3.16Z"/><path class="cls-33" d="M39.66,33.22a20,20,0,0,1-2.49,3.16H7.53A20.62,20.62,0,0,1,5,33.22Z"/><path class="cls-33" d="M33.29,39.54a20.46,20.46,0,0,1-21.88,0Z"/><path class="cls-32" d="M37.17,36.38a20.71,20.71,0,0,1-3.88,3.16H11.41a20.71,20.71,0,0,1-3.88-3.16Z"/><path class="cls-32" d="M37.17,7.92H7.53a20.71,20.71,0,0,1,3.88-3.16H33.29A20.71,20.71,0,0,1,37.17,7.92Z"/><path class="cls-33" d="M33.29,4.76H11.41a19.11,19.11,0,0,1,2-1.13l.2-.09.72-.33.32-.13A20.57,20.57,0,0,1,22.34,1.6h0A20.43,20.43,0,0,1,33.29,4.76Z"/><path class="cls-33" d="M39.66,11.08H5c.18-.28.37-.56.56-.83l.06-.07A20.21,20.21,0,0,1,7.53,7.92H37.17A20.49,20.49,0,0,1,39.66,11.08Z"/><path class="cls-33" d="M42.35,17.41h-40a20.24,20.24,0,0,1,1-3.17H41.32A19.24,19.24,0,0,1,42.35,17.41Z"/><path class="cls-32" d="M41.32,14.24H3.38q.12-.3.27-.6c.22-.49.46-1,.71-1.43s.44-.76.68-1.13H39.66A20.67,20.67,0,0,1,41.32,14.24Z"/><path class="cls-32" d="M42.84,20.57h-41c0-.13,0-.26,0-.39,0-.39.09-.77.14-1.15.08-.55.19-1.09.32-1.62h40A20.4,20.4,0,0,1,42.84,20.57Z"/><path class="cls-33" d="M42.9,22.15c0,.53,0,1.06-.06,1.58h-41c-.05-.52-.06-1.05-.06-1.58s0-1.06.06-1.58h41C42.88,21.09,42.9,21.62,42.9,22.15Z"/><path class="cls-34" d="M22.34,1.6V23.73H1.86c-.05-.52-.06-1.05-.06-1.58s0-1.06.06-1.58c0-.13,0-.26,0-.39,0-.39.09-.77.14-1.15.08-.55.19-1.09.32-1.62a20.24,20.24,0,0,1,1-3.17q.12-.3.27-.6c.22-.49.46-1,.71-1.43s.44-.76.68-1.13.37-.56.56-.83l.06-.07A20.21,20.21,0,0,1,7.53,7.92a20.71,20.71,0,0,1,3.88-3.16,19.11,19.11,0,0,1,2-1.13l.2-.09.72-.33.32-.13A20.57,20.57,0,0,1,22.34,1.6Z"/><polygon class="cls-32" points="19.74 2.65 20.03 3.54 20.97 3.54 20.21 4.09 20.5 4.98 19.74 4.43 18.99 4.98 19.28 4.09 18.52 3.54 19.46 3.54 19.74 2.65"/><path class="cls-32" d="M15.23,4.76,15.3,5,15,4.76l-.46-.33-.45.33-.3.22.06-.22.22-.67-.63-.46.2-.09h.61l.11-.33.32-.13.15.46h.93L15,4.09Z"/><polygon class="cls-32" points="19.74 7.07 20.03 7.96 20.97 7.96 20.21 8.51 20.5 9.4 19.74 8.85 18.99 9.4 19.28 8.51 18.52 7.96 19.46 7.96 19.74 7.07"/><polygon class="cls-32" points="14.54 7.07 14.83 7.96 15.76 7.96 15.01 8.51 15.3 9.4 14.54 8.85 13.79 9.4 14.08 8.51 13.31 7.96 14.25 7.96 14.54 7.07"/><polygon class="cls-32" points="9.34 7.07 9.63 7.96 10.56 7.96 9.81 8.51 10.1 9.4 9.34 8.85 8.58 9.4 8.87 8.51 8.11 7.96 9.05 7.96 9.34 7.07"/><polygon class="cls-32" points="19.74 11.5 20.03 12.39 20.97 12.39 20.21 12.94 20.5 13.83 19.74 13.28 18.99 13.83 19.28 12.94 18.52 12.39 19.46 12.39 19.74 11.5"/><polygon class="cls-32" points="14.54 11.5 14.83 12.39 15.76 12.39 15.01 12.94 15.3 13.83 14.54 13.28 13.79 13.83 14.08 12.94 13.31 12.39 14.25 12.39 14.54 11.5"/><polygon class="cls-32" points="9.34 11.5 9.63 12.39 10.56 12.39 9.81 12.94 10.1 13.83 9.34 13.28 8.58 13.83 8.87 12.94 8.11 12.39 9.05 12.39 9.34 11.5"/><path class="cls-32" d="M4.6,12.94l.29.89-.76-.55-.48.36c.22-.49.46-1,.71-1.43l.06.18h.94Z"/><polygon class="cls-32" points="19.74 15.92 20.03 16.81 20.97 16.81 20.21 17.37 20.5 18.25 19.74 17.7 18.99 18.25 19.28 17.37 18.52 16.81 19.46 16.81 19.74 15.92"/><polygon class="cls-32" points="14.54 15.92 14.83 16.81 15.76 16.81 15.01 17.37 15.3 18.25 14.54 17.7 13.79 18.25 14.08 17.37 13.31 16.81 14.25 16.81 14.54 15.92"/><polygon class="cls-32" points="9.34 15.92 9.63 16.81 10.56 16.81 9.81 17.37 10.1 18.25 9.34 17.7 8.58 18.25 8.87 17.37 8.11 16.81 9.05 16.81 9.34 15.92"/><polygon class="cls-32" points="4.13 15.92 4.42 16.81 5.36 16.81 4.6 17.37 4.89 18.25 4.13 17.7 3.38 18.25 3.67 17.37 2.91 16.81 3.84 16.81 4.13 15.92"/><polygon class="cls-32" points="19.74 20.35 20.03 21.24 20.97 21.24 20.21 21.79 20.5 22.68 19.74 22.13 18.99 22.68 19.28 21.79 18.52 21.24 19.46 21.24 19.74 20.35"/><polygon class="cls-32" points="14.54 20.35 14.83 21.24 15.76 21.24 15.01 21.79 15.3 22.68 14.54 22.13 13.79 22.68 14.08 21.79 13.31 21.24 14.25 21.24 14.54 20.35"/><polygon class="cls-32" points="9.34 20.35 9.63 21.24 10.56 21.24 9.81 21.79 10.1 22.68 9.34 22.13 8.58 22.68 8.87 21.79 8.11 21.24 9.05 21.24 9.34 20.35"/><polygon class="cls-32" points="4.13 20.35 4.42 21.24 5.36 21.24 4.6 21.79 4.89 22.68 4.13 22.13 3.38 22.68 3.67 21.79 2.91 21.24 3.84 21.24 4.13 20.35"/><polygon class="cls-32" points="17.14 18.14 17.43 19.03 18.37 19.03 17.61 19.58 17.9 20.47 17.14 19.92 16.39 20.47 16.68 19.58 15.92 19.03 16.86 19.03 17.14 18.14"/><polygon class="cls-32" points="11.94 18.14 12.23 19.03 13.16 19.03 12.41 19.58 12.7 20.47 11.94 19.92 11.19 20.47 11.47 19.58 10.71 19.03 11.65 19.03 11.94 18.14"/><polygon class="cls-32" points="6.74 18.14 7.03 19.03 7.96 19.03 7.21 19.58 7.49 20.47 6.74 19.92 5.98 20.47 6.27 19.58 5.51 19.03 6.45 19.03 6.74 18.14"/><path class="cls-32" d="M2,19.58l.29.89-.4-.29c0-.39.09-.77.14-1.15h.72Z"/><polygon class="cls-32" points="17.14 13.71 17.43 14.6 18.37 14.6 17.61 15.15 17.9 16.04 17.14 15.49 16.39 16.04 16.68 15.15 15.92 14.6 16.86 14.6 17.14 13.71"/><polygon class="cls-32" points="11.94 13.71 12.23 14.6 13.16 14.6 12.41 15.15 12.7 16.04 11.94 15.49 11.19 16.04 11.47 15.15 10.71 14.6 11.65 14.6 11.94 13.71"/><polygon class="cls-32" points="6.74 13.71 7.03 14.6 7.96 14.6 7.21 15.15 7.49 16.04 6.74 15.49 5.98 16.04 6.27 15.15 5.51 14.6 6.45 14.6 6.74 13.71"/><polygon class="cls-32" points="17.14 9.29 17.43 10.18 18.37 10.18 17.61 10.73 17.9 11.62 17.14 11.07 16.39 11.62 16.68 10.73 15.92 10.18 16.86 10.18 17.14 9.29"/><polygon class="cls-32" points="11.94 9.29 12.23 10.18 13.16 10.18 12.41 10.73 12.7 11.62 11.94 11.07 11.19 11.62 11.47 10.73 10.71 10.18 11.65 10.18 11.94 9.29"/><path class="cls-32" d="M7.32,11.08l.18.54-.74-.54h0L6,11.62l.17-.54.12-.35-.67-.48.06-.07h.78l.3-.89.29.89H8l-.76.55Z"/><polygon class="cls-32" points="17.14 4.86 17.43 5.75 18.37 5.75 17.61 6.3 17.9 7.19 17.14 6.64 16.39 7.19 16.68 6.3 15.92 5.75 16.86 5.75 17.14 4.86"/><polygon class="cls-32" points="11.94 4.86 12.23 5.75 13.16 5.75 12.41 6.3 12.7 7.19 11.94 6.64 11.19 7.19 11.47 6.3 10.71 5.75 11.65 5.75 11.94 4.86"/></g></g></g></svg>