<svg xmlns="http://www.w3.org/2000/svg" viewBox="0 0 16.37 16.37"><defs><style>.cls-1{fill:#ffcb18;}</style></defs><title>Bath</title><g id="Layer_2" data-name="Layer 2"><g id="Layer_1-2" data-name="Layer 1"><path class="cls-1" d="M13.81,12.28a1.55,1.55,0,0,1-1.53,1.53H4.09a1.51,1.51,0,0,1-1.53-1.53V9.72H13.81Zm2-4.09H2.56V2.24a.65.65,0,0,1,.67-.67.7.7,0,0,1,.48.19l.38.38a2.59,2.59,0,0,0-.25,1.09A2.78,2.78,0,0,0,4.57,5a.58.58,0,0,0-.13.32.5.5,0,0,0,.16.35L5,6a.54.54,0,0,0,.7,0L9.05,2.62a.59.59,0,0,0,.13-.35.59.59,0,0,0-.13-.35L8.7,1.53a.85.85,0,0,0-.39-.12A.63.63,0,0,0,8,1.53,2.73,2.73,0,0,0,6.27.8a2.6,2.6,0,0,0-1.09.26L4.8.67A2.62,2.62,0,0,0,3.23,0,2.22,2.22,0,0,0,1,2.24V8.19H.51A.52.52,0,0,0,0,8.7v.51a.5.5,0,0,0,.51.51H1v2.56a3.45,3.45,0,0,0,1,2.3v1.28a.5.5,0,0,0,.51.51h.51a.52.52,0,0,0,.51-.51v-.54a2.74,2.74,0,0,0,.51,0h8.19a3.09,3.09,0,0,0,.51,0v.54a.5.5,0,0,0,.51.51h.51a.53.53,0,0,0,.52-.51V14.58a3.8,3.8,0,0,0,1-2.3V9.72h.51a.52.52,0,0,0,.51-.51V8.7A.54.54,0,0,0,15.86,8.19Z"/></g></g></svg>