<svg xmlns="http://www.w3.org/2000/svg" viewBox="0 0 26.98 26.98"><defs><style>.cls-1{fill:#007aa9;}</style></defs><title>Linkedin</title><g id="Layer_2" data-name="Layer 2"><g id="Layer_1-2" data-name="Layer 1"><path class="cls-1" d="M3.26,0a3.32,3.32,0,0,1,0,6.63A3.27,3.27,0,0,1,0,3.31,3.23,3.23,0,0,1,3.26,0Z"/><path class="cls-1" d="M5.07,27H1.35A1,1,0,0,1,.42,26V9.47a.9.9,0,0,1,.88-1H5.07a.94.94,0,0,1,.93,1V26.08A.94.94,0,0,1,5.07,27Z"/><path class="cls-1" d="M26.93,14.29a6,6,0,0,0-6-6.24H20a5.62,5.62,0,0,0-4.65,2.36l-.46.48V9a.6.6,0,0,0-.47-.47H9.72a.49.49,0,0,0-.46.42V26.6c0,.19.27.38.46.38h5.12c.18,0,.46-.19.46-.38V16.37a3.18,3.18,0,0,1,3-3.26,3,3,0,0,1,3.07,3.22V26.5a.61.61,0,0,0,.47.48h4.65A.61.61,0,0,0,27,26.5V14.29Z"/></g></g></svg>