<svg xmlns="http://www.w3.org/2000/svg" viewBox="0 0 24.81 25"><defs><style>.cls-1{fill:#86f28b;}.cls-2{fill:#66e26f;}.cls-3{fill:#fff;}.cls-4{fill:#dcf4ff;}</style></defs><title>Whatsapp</title><g id="Layer_2" data-name="Layer 2"><g id="Layer_1-2" data-name="Layer 1"><path class="cls-1" d="M0,25l2.52-7.24a12,12,0,0,1,2-14.25,11.82,11.82,0,0,1,16.81,0,12,12,0,0,1,0,16.93,11.8,11.8,0,0,1-14.14,2Z"/><path class="cls-2" d="M0,25l7.19-2.54a11.8,11.8,0,0,0,14.14-2,12,12,0,0,0,0-16.93Z"/><path class="cls-3" d="M10.23,14.7c2.84,2.86,6.06,4.25,7.2,3.11l1.37-1.39a.72.72,0,0,0,0-1l-1.71-1.73a.72.72,0,0,0-1,0l-1,1a10.12,10.12,0,0,1-4.8-4.84l1-1a.73.73,0,0,0,0-1L9.54,6.06a.72.72,0,0,0-1,0L7.14,7.44C6,8.58,7.38,11.83,10.23,14.7Z"/><path class="cls-4" d="M18.8,15.39l-1.71-1.73a.72.72,0,0,0-1,0l-1,1a10.31,10.31,0,0,1-2.82-2l-2,2h0c2.84,2.86,6.06,4.25,7.2,3.11l1.37-1.39A.72.72,0,0,0,18.8,15.39Z"/></g></g></svg>