<svg xmlns="http://www.w3.org/2000/svg" viewBox="0 0 31.39 31.31"><defs><style>.cls-1{opacity:0.3;}.cls-2{fill:#112884;fill-rule:evenodd;}</style></defs><title>Search</title><g id="Layer_2" data-name="Layer 2"><g id="Layer_1-2" data-name="Layer 1"><g id="Search"><g class="cls-1"><polygon class="cls-2" points="11.88 0 12.76 0.03 13.62 0.12 14.46 0.27 15.27 0.48 16.06 0.76 16.82 1.07 17.57 1.45 18.27 1.86 18.95 2.32 16.4 4.85 15.83 4.53 15.24 4.23 14.61 3.98 13.95 3.78 13.28 3.65 12.6 3.56 11.88 3.52 11.13 3.56 10.38 3.67 9.67 3.83 8.97 4.06 8.3 4.33 7.67 4.67 7.07 5.05 6.51 5.5 5.99 5.97 5.5 6.49 5.06 7.06 4.68 7.65 4.34 8.29 4.06 8.95 3.83 9.64 3.67 10.36 3.56 11.1 3.54 11.85 3.56 12.62 3.67 13.36 3.83 14.06 4.06 14.75 4.34 15.42 4.68 16.05 5.06 16.66 5.5 17.21 5.99 17.74 6.5 18.22 7.07 18.66 7.67 19.04 8.3 19.38 8.96 19.66 9.65 19.88 10.38 20.05 11.13 20.15 11.88 20.17 12.64 20.15 13.38 20.05 14.1 19.88 14.79 19.66 15.46 19.38 16.09 19.04 16.7 18.66 17.26 18.22 17.78 17.74 18.26 17.22 18.7 16.66 19.09 16.05 19.42 15.42 19.7 14.76 19.93 14.07 20.09 13.36 20.19 12.62 20.23 11.85 20.22 11.45 20.18 11.07 23.15 8.1 23.36 8.82 23.54 9.54 23.66 10.31 23.73 11.08 23.77 11.85 23.73 12.73 23.63 13.57 23.48 14.42 23.27 15.24 23 16.03 22.68 16.79 22.32 17.53 21.89 18.24 21.43 18.91 22.05 19.52 22.49 19.07 30.7 27.26 30.95 27.54 31.15 27.86 31.27 28.21 31.36 28.57 31.39 28.93 31.37 29.3 31.28 29.65 31.15 29.99 30.95 30.32 30.7 30.62 30.42 30.86 30.08 31.06 29.74 31.19 29.39 31.27 29.02 31.31 28.66 31.27 28.3 31.19 27.96 31.06 27.63 30.86 27.35 30.62 19.15 22.43 19.6 21.98 18.97 21.38 18.3 21.85 17.59 22.27 16.85 22.63 16.08 22.95 15.29 23.22 14.47 23.43 13.62 23.58 12.76 23.68 11.88 23.71 10.95 23.68 10.05 23.57 9.16 23.4 8.29 23.16 7.46 22.86 6.66 22.5 5.89 22.09 5.15 21.64 4.45 21.1 3.79 20.54 3.18 19.92 2.61 19.27 2.08 18.57 1.62 17.84 1.21 17.07 0.84 16.27 0.55 15.43 0.32 14.58 0.14 13.68 0.03 12.78 0 11.85 0.03 10.93 0.14 10.01 0.32 9.13 0.55 8.28 0.84 7.44 1.21 6.64 1.62 5.87 2.08 5.14 2.61 4.44 3.18 3.78 3.79 3.18 4.45 2.59 5.15 2.08 5.89 1.61 6.66 1.2 7.46 0.84 8.29 0.56 9.16 0.31 10.05 0.14 10.95 0.04 11.88 0 11.88 0 11.88 0"/></g></g></g></g></svg>