<svg xmlns="http://www.w3.org/2000/svg" viewBox="0 0 100 100"><defs><style>.cls-1{opacity:0.3;}.cls-2{fill:#112884;}</style></defs><title>Verifying Details</title><g id="Layer_2" data-name="Layer 2"><g id="Layer_1-2" data-name="Layer 1"><g id="Verifying_Details" data-name="Verifying Details"><g id="_017---Buffering" data-name="017---Buffering" class="cls-1"><path id="Shape" class="cls-2" d="M55.45,41.24a10.33,10.33,0,1,0,3.31,3.31,5.15,5.15,0,0,1-3.31-3.31ZM50,56.9A6.9,6.9,0,1,1,56.9,50,6.9,6.9,0,0,1,50,56.9Z"/><path id="Oval" class="cls-2" d="M50,46.55A3.45,3.45,0,1,1,46.55,50,3.46,3.46,0,0,1,50,46.55Z"/><path id="Shape-2" data-name="Shape" class="cls-2" d="M58.62,39.66a1.73,1.73,0,1,0,1.72-1.73A1.72,1.72,0,0,0,58.62,39.66Z"/><path id="Shape-3" data-name="Shape" class="cls-2" d="M17.81,50A66.21,66.21,0,0,0,30.28,60.61a22.25,22.25,0,0,1,0-21.22A66.21,66.21,0,0,0,17.81,50Z"/><path id="Shape-4" data-name="Shape" class="cls-2" d="M69.72,39.39a22.25,22.25,0,0,1,0,21.22A66.21,66.21,0,0,0,82.19,50,66.21,66.21,0,0,0,69.72,39.39Z"/><path id="Shape-5" data-name="Shape" class="cls-2" d="M62.54,44.32a13.78,13.78,0,1,1-6.86-6.86,5.16,5.16,0,0,1,4.23-2.93A29.2,29.2,0,0,0,38,35.29a18.94,18.94,0,0,0,0,29.42,29.56,29.56,0,0,0,23.92,0A18.91,18.91,0,0,0,65.46,39a5.1,5.1,0,0,1-2.92,5.28Z"/><path id="Oval-2" data-name="Oval" class="cls-2" d="M94.83,44.83A5.17,5.17,0,1,1,89.66,50,5.17,5.17,0,0,1,94.83,44.83Z"/><path id="Oval-3" data-name="Oval" class="cls-2" d="M5.17,44.83A5.17,5.17,0,1,1,0,50,5.16,5.16,0,0,1,5.17,44.83Z"/><circle id="Oval-4" data-name="Oval" class="cls-2" cx="50" cy="94.83" r="5.17"/><path id="Oval-5" data-name="Oval" class="cls-2" d="M50,0a5.17,5.17,0,1,1-5.17,5.17A5.17,5.17,0,0,1,50,0Z"/><path id="Oval-6" data-name="Oval" class="cls-2" d="M94.83,44.83A5.17,5.17,0,1,1,89.66,50,5.17,5.17,0,0,1,94.83,44.83Z"/><path id="Oval-7" data-name="Oval" class="cls-2" d="M5.17,44.83A5.17,5.17,0,1,1,0,50,5.16,5.16,0,0,1,5.17,44.83Z"/><circle id="Oval-8" data-name="Oval" class="cls-2" cx="50" cy="94.83" r="5.17"/><path id="Oval-9" data-name="Oval" class="cls-2" d="M50,0a5.17,5.17,0,1,1-5.17,5.17A5.17,5.17,0,0,1,50,0Z"/><circle id="Oval-10" data-name="Oval" class="cls-2" cx="27.59" cy="11.18" r="5.17"/><path id="Oval-11" data-name="Oval" class="cls-2" d="M72.41,83.65a5.17,5.17,0,1,1-5.17,5.17A5.18,5.18,0,0,1,72.41,83.65Z"/><path id="Oval-12" data-name="Oval" class="cls-2" d="M11.18,67.24A5.18,5.18,0,1,1,6,72.41,5.18,5.18,0,0,1,11.18,67.24Z"/><path id="Oval-13" data-name="Oval" class="cls-2" d="M27.59,83.65a5.17,5.17,0,1,1-5.18,5.17A5.18,5.18,0,0,1,27.59,83.65Z"/><path id="Oval-14" data-name="Oval" class="cls-2" d="M11.18,22.41A5.18,5.18,0,1,1,6,27.59,5.18,5.18,0,0,1,11.18,22.41Z"/><path id="Oval-15" data-name="Oval" class="cls-2" d="M88.82,67.24a5.18,5.18,0,1,1-5.17,5.17A5.17,5.17,0,0,1,88.82,67.24Z"/><path id="Shape-6" data-name="Shape" class="cls-2" d="M97.32,29.49A1.71,1.71,0,0,0,96,29.4a1.67,1.67,0,0,0-1,.86l-1.55,3.12a46.92,46.92,0,0,0-30-27.95,1.73,1.73,0,0,0-1,3.31A43.39,43.39,0,0,1,90.21,34.56L87,32.94A1.73,1.73,0,1,0,85.44,36l6.89,3.44a1.73,1.73,0,0,0,1.32.1,1.78,1.78,0,0,0,1-.87l3.44-6.89a1.73,1.73,0,0,0,.1-1.32,1.75,1.75,0,0,0-.87-1Z"/></g></g></g></g></svg>