<svg xmlns="http://www.w3.org/2000/svg" xmlns:xlink="http://www.w3.org/1999/xlink" viewBox="0 0 32.38 40"><defs><style>.cls-1{fill-rule:evenodd;fill:url(#linear-gradient);}</style><linearGradient id="linear-gradient" y1="20" x2="32.38" y2="20" gradientUnits="userSpaceOnUse"><stop offset="0" stop-color="#fbb040"/><stop offset="0.04" stop-color="#fbb040"/><stop offset="0.39" stop-color="#fec007"/><stop offset="1" stop-color="#ffde17"/></linearGradient></defs><title>Report</title><g id="Layer_2" data-name="Layer 2"><g id="Layer_1-2" data-name="Layer 1"><g id="layer2"><path id="rect833" class="cls-1" d="M8.57,0A1,1,0,0,0,7.9.28L.28,7.9A1,1,0,0,0,0,8.57V37.14A2.87,2.87,0,0,0,2.86,40H29.52a2.87,2.87,0,0,0,2.86-2.86V31.43a1,1,0,1,0-1.9,0v5.74a.94.94,0,0,1-1,1H2.86a.94.94,0,0,1-1-1V9.52H6.67A2.87,2.87,0,0,0,9.52,6.67V1.9h20a.94.94,0,0,1,1,1V6.67a1,1,0,0,0,1.9,0V2.86A2.87,2.87,0,0,0,29.52,0Zm-1,3.25V6.67a.93.93,0,0,1-1,1H3.25ZM31.43,9.52a1,1,0,1,0,1,1A1,1,0,0,0,31.43,9.52Zm0,3.8a1,1,0,0,0-.93,1V25.71a1,1,0,1,0,1.9,0V14.29a1,1,0,0,0-.94-1ZM21.9,17.14a1,1,0,0,0,0,1.91h1.55l-5.32,5.32L15,21.23a1,1,0,0,0-1.35,0L7.9,27a1,1,0,1,0,1.35,1.34l5-5,3.13,3.14a1,1,0,0,0,1.35,0l6-6v1.52a1,1,0,0,0,1.91,0V18.1a1,1,0,0,0-1-1Zm3.8,6.66a1,1,0,0,0-.94,1v8.57a1,1,0,1,0,1.91,0V24.76a1,1,0,0,0-.94-1ZM14.27,25.23a1,1,0,0,0-.94,1v7.14a1,1,0,0,0,1.91.11V26.19a1,1,0,0,0-.94-1A0,0,0,0,0,14.27,25.23Zm7.62.47a1,1,0,0,0-.94,1h0v6.66a1,1,0,1,0,1.91,0V26.67a1,1,0,0,0-.94-1Zm-3.81,1.9a1,1,0,0,0-.94,1h0v4.76a1,1,0,1,0,1.91,0V28.57a1,1,0,0,0-.94-1Zm-11.41,1a1,1,0,1,0,1,.95A1,1,0,0,0,6.67,28.57Zm3.79.47a1,1,0,0,0-.94,1v3.33a1,1,0,1,0,1.91,0V30a.94.94,0,0,0-.94-1ZM6.65,31.41a1,1,0,0,0-.94,1h0v.95a1,1,0,1,0,1.91,0v-.95a1,1,0,0,0-.94-1Z"/></g></g></g></svg>