<svg xmlns="http://www.w3.org/2000/svg" xmlns:xlink="http://www.w3.org/1999/xlink" viewBox="0 0 40 40"><defs><style>.cls-1{fill:url(#linear-gradient);}.cls-2{fill:url(#linear-gradient-2);}</style><linearGradient id="linear-gradient" y1="20" x2="40" y2="20" gradientUnits="userSpaceOnUse"><stop offset="0" stop-color="#fbb040"/><stop offset="0.04" stop-color="#fbb040"/><stop offset="0.39" stop-color="#fec007"/><stop offset="1" stop-color="#ffde17"/></linearGradient><linearGradient id="linear-gradient-2" x1="15" x2="28.33" xlink:href="#linear-gradient"/></defs><title>Video</title><g id="Layer_2" data-name="Layer 2"><g id="Layer_1-2" data-name="Layer 1"><path class="cls-1" d="M20,0A20,20,0,1,0,40,20,20,20,0,0,0,20,0Zm0,38.33A18.33,18.33,0,1,1,38.33,20,18.35,18.35,0,0,1,20,38.33Z"/><path class="cls-2" d="M28,19.3,16.28,11.8a.81.81,0,0,0-.85,0,.83.83,0,0,0-.43.73v15a.83.83,0,0,0,.43.73.85.85,0,0,0,.4.1.79.79,0,0,0,.45-.13L28,20.7a.83.83,0,0,0,0-1.4ZM16.67,26V14L26,20Z"/></g></g></svg>