<svg xmlns="http://www.w3.org/2000/svg" viewBox="0 0 59.25 50"><defs><style>.cls-1{fill:#ffcc18;}</style></defs><title>Freeparking</title><g id="Layer_2" data-name="Layer 2"><g id="Layer_1-2" data-name="Layer 1"><path class="cls-1" d="M49.53,4.81h-2.9a.63.63,0,0,0-.7.58h0v9.35c0,.39.46.59.93.59s.94-.2.94-.59V11.4h1.61c1.9,0,3.38-.9,3.38-3.26V8.05A2.93,2.93,0,0,0,49.53,4.81Zm1.39,3.47c0,1.12-.57,1.66-1.51,1.66H47.8V6.45h1.61c.94,0,1.51.54,1.51,1.66v.17Z"/><path class="cls-1" d="M33.92,8.47a14.46,14.46,0,0,0-20.46,0,.84.84,0,0,0,0,1.19.85.85,0,0,0,1.2,0,12.77,12.77,0,0,1,18.06,0,.83.83,0,0,0,.6.25.85.85,0,0,0,.6-.25A.86.86,0,0,0,33.92,8.47Z"/><path class="cls-1" d="M30.43,12A9.54,9.54,0,0,0,17,12a.85.85,0,0,0,0,1.2.84.84,0,0,0,1.19,0,7.86,7.86,0,0,1,11.1,0A.85.85,0,1,0,30.43,12Z"/><path class="cls-1" d="M27,15.38a4.7,4.7,0,0,0-6.64,0,.84.84,0,0,0,0,1.19.85.85,0,0,0,1.2,0,3,3,0,0,1,4.24,0,.83.83,0,0,0,.6.25.85.85,0,0,0,.6-.25A.84.84,0,0,0,27,15.38Z"/><path class="cls-1" d="M41.54,31.82a10.59,10.59,0,0,1-1.07-.66l-5.59-3.77a10.19,10.19,0,0,0-5.71-1.75H18.92a10.16,10.16,0,0,0-7.21,3,13.62,13.62,0,0,1-3.35,2.45,2.2,2.2,0,0,0,1,4.15h3.49a.85.85,0,1,0,0-1.69H9.37a.51.51,0,0,1-.23-1,15.61,15.61,0,0,0,3.76-2.75,8.46,8.46,0,0,1,6-2.49h2.29v6.2h-2.8a.85.85,0,1,0,0,1.69H41.55A1.26,1.26,0,0,0,42.81,34,2.45,2.45,0,0,0,41.54,31.82ZM22.9,33.53v-6.2h6.27a8.56,8.56,0,0,1,4.77,1.46l5.58,3.77c.39.26.79.51,1.2.74a.73.73,0,0,1,.26.23Z"/><path class="cls-1" d="M25,36.5h-2.6a.85.85,0,1,0,0,1.69H25a.85.85,0,1,0,0-1.69Z"/><path class="cls-1" d="M58.52,35.79l-.26-.44a7,7,0,0,0-4.59-3.22l-2.18-.43v-11h5.64a2.11,2.11,0,0,0,2.11-2.11V2.11A2.11,2.11,0,0,0,57.13,0H40.69a2.1,2.1,0,0,0-2.1,2.11V8.34a.84.84,0,1,0,1.68,0V2.11a.42.42,0,0,1,.42-.42H57.13a.42.42,0,0,1,.42.42V18.54a.42.42,0,0,1-.42.42H40.69a.42.42,0,0,1-.42-.42V13.83a.84.84,0,1,0-1.68,0v4.71a2.1,2.1,0,0,0,2.1,2.11h6.4V30.82L46,30.6a11.87,11.87,0,0,1-4.06-1.92l-5.58-3.77a12.69,12.69,0,0,0-7.16-2.19H18.92a12.68,12.68,0,0,0-9,3.73,11.11,11.11,0,0,1-5.57,3l-1.21.26A3.92,3.92,0,0,0,0,33.53v8.18A2.49,2.49,0,0,0,1.47,44l3.36,1.49a5.5,5.5,0,0,0,1.54,2.9,5.58,5.58,0,0,0,9.34-2.44h28a5.59,5.59,0,0,0,10.77,0h1.6a3.13,3.13,0,0,0,3.13-3.13V38.41A5.05,5.05,0,0,0,58.52,35.79ZM48.78,20.65h1V31.36l-1-.2ZM13.09,47.17a3.91,3.91,0,0,1-6.32-4.39v0l.07-.13,0-.06.06-.1,0-.08L7,42.28l.06-.09a.35.35,0,0,0,.05-.08L7.22,42,7.28,42l.09-.11,0-.05a.86.86,0,0,1,.13-.14v0l0,0,.11-.11,0,0,.13-.1h0a3.91,3.91,0,0,1,4.92,0h0a.69.69,0,0,1,.13.11l0,0,.14.13.15.16.06.07.07.09.08.1,0,.06.09.13,0,0A3.93,3.93,0,0,1,13.09,47.17Zm38.81,0a3.92,3.92,0,0,1-5.53,0,3.93,3.93,0,0,1-.51-4.91v0l.09-.13,0-.06.07-.1.08-.09.06-.07.15-.16a3.92,3.92,0,0,1,5.53,0l.15.16.06.07.07.09.08.1,0,.06.09.13,0,0A3.93,3.93,0,0,1,51.9,47.17Zm5.66-4.38h0a1.44,1.44,0,0,1-1.44,1.44H54.73a5.51,5.51,0,0,0-1.24-3.35l0,0-.15-.17,0,0c-.06,0-.11-.11-.17-.17l0,0A5.53,5.53,0,0,0,50.5,39a5.65,5.65,0,0,0-1.37-.17,5.78,5.78,0,0,0-1.1.11,5.61,5.61,0,0,0-2.86,1.53l0,0-.17.17,0,0-.15.17v0a5.58,5.58,0,0,0-1.25,3.35H15.92a5.51,5.51,0,0,0-1.24-3.35v0l-.16-.18,0,0-.2-.21a5.94,5.94,0,0,0-.87-.72,5.61,5.61,0,0,0-7,.72l-.19.19,0,.06L6,40.83l0,.07-.12.15,0,.05c-.11.15-.2.3-.3.45h0l-.13.23h0a5.39,5.39,0,0,0-.59,1.79L2.15,42.42a.77.77,0,0,1-.46-.71V33.53a2.22,2.22,0,0,1,1.77-2.17l1.21-.26a12.74,12.74,0,0,0,6.41-3.46,11.06,11.06,0,0,1,7.84-3.24H29.17a11.07,11.07,0,0,1,6.22,1.91L41,30.08a13.24,13.24,0,0,0,4.67,2.17l7.7,1.53a5.26,5.26,0,0,1,3.47,2.44l.27.44a3.39,3.39,0,0,1,.48,1.75Z"/><path class="cls-1" d="M12.14,42.59a2.56,2.56,0,1,0,0,3.62A2.53,2.53,0,0,0,12.14,42.59ZM10.94,45a.87.87,0,1,1,0-1.24A.88.88,0,0,1,10.94,45Z"/><path class="cls-1" d="M50.94,42.59a2.56,2.56,0,0,0-3.62,0,2.56,2.56,0,0,0,0,3.62,2.56,2.56,0,1,0,3.62-3.62ZM49.75,45a.87.87,0,0,1-.62.25.9.9,0,0,1-.62-.25.88.88,0,0,1,0-1.24.9.9,0,0,1,.62-.25A.87.87,0,0,1,49.75,45Z"/></g></g></svg>