<svg xmlns="http://www.w3.org/2000/svg" viewBox="0 0 37.22 25"><defs><style>.cls-1{fill:#1e88e5;}.cls-2{fill:#64b5f6;}.cls-3{fill:#2196f3;}</style></defs><title>Mail</title><g id="Layer_2" data-name="Layer 2"><g id="Layer_1-2" data-name="Layer 1"><path class="cls-1" d="M36.32,23.59a3.88,3.88,0,0,1-3,1.41H3.88a3.88,3.88,0,0,1-3-1.41L15.12,11.66l1.47,1a3.5,3.5,0,0,0,4,0l1.48-1Z"/><path class="cls-2" d="M36.53,1.7l-14.43,10-1.48,1a3.5,3.5,0,0,1-4,0l-1.47-1L.68,1.69A3.88,3.88,0,0,1,3.88,0H33.34A3.8,3.8,0,0,1,36.53,1.7Z"/><path class="cls-3" d="M15.12,11.66.9,23.59a3.91,3.91,0,0,1-.9-2.5V3.91A3.88,3.88,0,0,1,.68,1.69Z"/><path class="cls-3" d="M37.22,3.91V21.09a3.91,3.91,0,0,1-.9,2.5L22.1,11.66l14.43-10A3.88,3.88,0,0,1,37.22,3.91Z"/></g></g></svg>