<svg xmlns="http://www.w3.org/2000/svg" viewBox="0 0 20 20"><title>Change number</title><g id="Layer_2" data-name="Layer 2"><g id="Layer_1-2" data-name="Layer 1"><g id="Icons"><path d="M19.2.8a2.73,2.73,0,0,0-3.85,0h0L5.56,10.61a.47.47,0,0,0-.14.3L5,14.44a.49.49,0,0,0,.14.41A.48.48,0,0,0,5.5,15h0l3.57-.37a.49.49,0,0,0,.3-.14L19.2,4.67A2.75,2.75,0,0,0,19.2.8ZM8.84,13.65l-2.77.29.32-2.74,7.73-7.75L16.56,5.9Zm8.43-8.46L14.82,2.74,16.05,1.5a1.76,1.76,0,0,1,2.45,0A1.74,1.74,0,0,1,18.5,4Z"/><path d="M17,16.5A2.5,2.5,0,0,1,14.5,19H3.5A2.5,2.5,0,0,1,1,16.5V5.5A2.5,2.5,0,0,1,3.5,3H11V2H3.5A3.5,3.5,0,0,0,0,5.5v11A3.5,3.5,0,0,0,3.5,20h11A3.5,3.5,0,0,0,18,16.5V9H17Z"/></g></g></g></svg>