<svg xmlns="http://www.w3.org/2000/svg" viewBox="0 0 35.69 35.59">
    <defs>
        <style>.cls-1{fill:#fff;fill-rule:evenodd;}</style>
    </defs>
    <title>Search</title>
    <g id="Layer_2" data-name="Layer 2">
        <g id="Layer_1-2" data-name="Layer 1">
            <polygon class="cls-1" points="13.51 0 14.51 0.03 15.49 0.13 16.44 0.3 17.36 0.54 18.26 0.86 19.13 1.22 19.98 1.64 20.78 2.11 21.54 2.63 18.65 5.52 18 5.15 17.32 4.81 16.61 4.53 15.86 4.3 15.1 4.15 14.32 4.05 13.51 4.01 12.65 4.05 11.8 4.17 11 4.35 10.2 4.62 9.44 4.92 8.72 5.31 8.04 5.75 7.41 6.25 6.8 6.79 6.25 7.38 5.76 8.02 5.32 8.7 4.94 9.43 4.62 10.18 4.36 10.96 4.17 11.78 4.05 12.62 4.03 13.48 4.05 14.35 4.17 15.19 4.36 15.99 4.62 16.77 4.94 17.54 5.32 18.25 5.76 18.94 6.25 19.57 6.8 20.17 7.39 20.71 8.04 21.21 8.72 21.65 9.44 22.03 10.19 22.35 10.98 22.61 11.8 22.79 12.65 22.91 13.51 22.93 14.38 22.91 15.22 22.79 16.04 22.61 16.82 22.35 17.58 22.03 18.3 21.65 18.98 21.21 19.63 20.71 20.22 20.17 20.77 19.58 21.26 18.94 21.7 18.25 22.08 17.54 22.4 16.79 22.66 16 22.84 15.19 22.96 14.35 23 13.48 22.99 13.02 22.95 12.58 26.33 9.21 26.57 10.03 26.76 10.85 26.91 11.72 26.98 12.59 27.02 13.48 26.98 14.48 26.87 15.44 26.7 16.39 26.46 17.33 26.15 18.22 25.79 19.09 25.38 19.93 24.89 20.74 24.37 21.5 25.07 22.2 25.57 21.68 34.9 30.99 35.19 31.32 35.41 31.68 35.56 32.08 35.65 32.48 35.69 32.9 35.66 33.31 35.57 33.71 35.41 34.1 35.2 34.47 34.91 34.81 34.58 35.09 34.2 35.31 33.82 35.46 33.41 35.55 33 35.59 32.59 35.55 32.18 35.46 31.79 35.31 31.42 35.09 31.1 34.81 21.77 25.5 22.28 24.99 21.57 24.31 20.81 24.84 20 25.32 19.16 25.73 18.29 26.09 17.38 26.4 16.45 26.64 15.49 26.81 14.51 26.92 13.51 26.96 12.45 26.92 11.43 26.8 10.41 26.6 9.43 26.33 8.48 25.99 7.57 25.58 6.7 25.11 5.86 24.6 5.06 23.99 4.32 23.35 3.62 22.65 2.97 21.91 2.37 21.12 1.85 20.28 1.38 19.41 0.96 18.5 0.62 17.55 0.36 16.58 0.15 15.55 0.03 14.53 0 13.48 0.03 12.43 0.15 11.39 0.36 10.38 0.62 9.42 0.96 8.46 1.38 7.55 1.85 6.67 2.37 5.84 2.97 5.05 3.62 4.3 4.32 3.61 5.06 2.95 5.86 2.36 6.7 1.83 7.57 1.36 8.48 0.96 9.43 0.63 10.41 0.35 11.43 0.16 12.45 0.04 13.51 0 13.51 0 13.51 0"/>
        </g>
    </g>
</svg>