<svg xmlns="http://www.w3.org/2000/svg" viewBox="0 0 30.52 25"><defs><style>.cls-1{fill:#19ace0;fill-rule:evenodd;}</style></defs><title>Twitter</title><g id="Layer_2" data-name="Layer 2"><g id="Layer_1-2" data-name="Layer 1"><path class="cls-1" d="M30.52,3a12.41,12.41,0,0,1-3.59,1A6.32,6.32,0,0,0,29.68.47a12.75,12.75,0,0,1-4,1.53A6.26,6.26,0,0,0,14.87,6.31,6.17,6.17,0,0,0,15,7.75,17.69,17.69,0,0,1,2.13,1.16a6.19,6.19,0,0,0-.85,3.17A6.31,6.31,0,0,0,4.06,9.58a6.06,6.06,0,0,1-2.83-.79v.08a6.29,6.29,0,0,0,5,6.19,6.44,6.44,0,0,1-1.65.22,6.56,6.56,0,0,1-1.18-.11,6.27,6.27,0,0,0,5.85,4.38,12.44,12.44,0,0,1-7.77,2.7A12.33,12.33,0,0,1,0,22.16,17.62,17.62,0,0,0,9.6,25c11.52,0,17.82-9.62,17.82-18,0-.27,0-.54,0-.81A12.77,12.77,0,0,0,30.52,3Z"/></g></g></svg>