<svg xmlns="http://www.w3.org/2000/svg" viewBox="0 0 50 50"><defs><style>.cls-1{fill:#ffcc18;}</style></defs><title>Centeral AC</title><g id="Layer_2" data-name="Layer 2"><g id="Layer_1-2" data-name="Layer 1"><path class="cls-1" d="M44,0H6A6,6,0,0,0,0,6V44a6,6,0,0,0,6,6h7.78a.75.75,0,1,0,0-1.49H11.94V45.28A2.34,2.34,0,0,1,14.27,43H35.73a2.34,2.34,0,0,1,2.33,2.33v3.23h-21a.75.75,0,0,0,0,1.49H44a6,6,0,0,0,6-6V6A6,6,0,0,0,44,0Zm-32,1.49H38.06V4.81a2.34,2.34,0,0,1-2.34,2.34H14.28a2.34,2.34,0,0,1-2.34-2.34ZM1.49,12H4.76A2.34,2.34,0,0,1,7.1,14.33V35.77a2.34,2.34,0,0,1-2.34,2.34H1.49Zm47-1.49H45.24a3.83,3.83,0,0,0-3.83,3.83V35.77a3.83,3.83,0,0,0,3.83,3.83h3.27V44A4.55,4.55,0,0,1,44,48.51H39.55V45.28a3.82,3.82,0,0,0-3.82-3.82H14.27a3.82,3.82,0,0,0-3.82,3.82v3.23H6A4.55,4.55,0,0,1,1.49,44V39.6H4.76a3.83,3.83,0,0,0,3.83-3.83V14.33A3.83,3.83,0,0,0,4.76,10.5H1.49V6A4.55,4.55,0,0,1,6,1.49h4.42V4.81a3.84,3.84,0,0,0,3.83,3.83H35.72a3.84,3.84,0,0,0,3.83-3.83V1.49H44A4.55,4.55,0,0,1,48.51,6Zm0,1.49V38.11H45.24a2.34,2.34,0,0,1-2.34-2.34V14.33A2.34,2.34,0,0,1,45.24,12Z"/><path class="cls-1" d="M36.1,10.33H20.44a.75.75,0,0,0-.74.75.74.74,0,0,0,.74.74H36.1a2.08,2.08,0,0,1,2.08,2.08V36.1a2.08,2.08,0,0,1-2.08,2.08H13.9a2.08,2.08,0,0,1-2.08-2.08V13.9a2.08,2.08,0,0,1,2.08-2.08H17a.74.74,0,0,0,.75-.74.75.75,0,0,0-.75-.75H13.9a3.57,3.57,0,0,0-3.57,3.57V36.1a3.57,3.57,0,0,0,3.57,3.57H36.1a3.57,3.57,0,0,0,3.57-3.57V13.9A3.57,3.57,0,0,0,36.1,10.33Z"/><path class="cls-1" d="M35.84,12.82H14.16a1.34,1.34,0,0,0-1.34,1.34V35.84a1.34,1.34,0,0,0,1.34,1.34H35.84a1.34,1.34,0,0,0,1.34-1.34V14.16A1.34,1.34,0,0,0,35.84,12.82ZM14.31,14.31h6.13V15.4H14.31Zm0,2.58h6.13v1H14.31Zm0,2.53h6.13v1H14.31Zm0,2.54h6.13V23H14.31Zm0,2.54h6.13v1H14.31Zm0,2.53h6.13v1H14.31Zm0,2.54h6.13v1.05H14.31Zm6.13,6.12H14.31v-1h6.13Zm0-2.54H14.31v-1h6.13Zm7.63,2.54H21.93v-1h6.14Zm0-2.54H21.93v-1h6.14Zm0-2.53H21.93V29.57h6.14Zm0-2.54H21.93V27h6.14Zm0-2.54H21.93v-1h6.14Zm0-2.53H21.93V22h6.14Zm0-2.54H21.93v-1h6.14Zm0-2.54H21.93v-1h6.14Zm0-2.53H21.93V14.31h6.14Zm7.62,20.29H29.56v-1h6.13Zm0-2.54H29.56v-1h6.13Zm0-5.07h-2a.75.75,0,0,0,0,1.49h2v1.05H29.56V29.57h1a.75.75,0,0,0,0-1.49h-1V27h6.13Zm0-2.54H29.56v-1h6.13Zm0-2.53H29.56V22h6.13Zm0-2.54H29.56v-1h6.13Zm0-2.54H29.56v-1h6.13Zm0-2.53H29.56V14.31h6.13Z"/><path class="cls-1" d="M4.19,14.21a.74.74,0,0,0-.74.75V34.78a.74.74,0,0,0,.74.74.75.75,0,0,0,.75-.74V15A.75.75,0,0,0,4.19,14.21Z"/><path class="cls-1" d="M34.91,3.32H15.09a.75.75,0,1,0,0,1.49H34.91a.75.75,0,1,0,0-1.49Z"/><path class="cls-1" d="M34.91,45H15.09a.76.76,0,0,0-.75.75.75.75,0,0,0,.75.74H34.91a.75.75,0,0,0,.75-.74A.76.76,0,0,0,34.91,45Z"/><path class="cls-1" d="M45.7,14.21A.74.74,0,0,0,45,15V34.78a.75.75,0,0,0,1.49,0V15A.74.74,0,0,0,45.7,14.21Z"/></g></g></svg>