<svg xmlns="http://www.w3.org/2000/svg" viewBox="0 0 36.37 36.37"><defs><style>.cls-1{fill:#ffcc18;}</style></defs><title>Bath</title><g id="Layer_2" data-name="Layer 2"><g id="Layer_1-2" data-name="Layer 1"><path class="cls-1" d="M30.68,27.27a3.45,3.45,0,0,1-3.41,3.41H9.09a3.36,3.36,0,0,1-3.41-3.41V21.59h25Zm4.55-9.09H5.68V5A1.46,1.46,0,0,1,7.17,3.48a1.54,1.54,0,0,1,1.07.43l.85.85a5.8,5.8,0,0,0-.57,2.41A6,6,0,0,0,10.16,11a1.22,1.22,0,0,0-.29.71,1,1,0,0,0,.36.78l.78.85a1.19,1.19,0,0,0,1.56,0L20.1,5.82A1.28,1.28,0,0,0,20.39,5a1.31,1.31,0,0,0-.29-.78l-.78-.85a1.75,1.75,0,0,0-.85-.28,1.25,1.25,0,0,0-.71.28,6.08,6.08,0,0,0-3.84-1.63,5.79,5.79,0,0,0-2.41.56l-.86-.85A5.72,5.72,0,0,0,7.17,0a4.92,4.92,0,0,0-4.9,5V18.18H1.14A1.17,1.17,0,0,0,0,19.32v1.14a1.12,1.12,0,0,0,1.14,1.13H2.27v5.68a7.74,7.74,0,0,0,2.28,5.12v2.84a1.12,1.12,0,0,0,1.13,1.14H6.82A1.17,1.17,0,0,0,8,35.23V34a5.76,5.76,0,0,0,1.13.07H27.27A6.57,6.57,0,0,0,28.41,34v1.21a1.13,1.13,0,0,0,1.14,1.14h1.13a1.17,1.17,0,0,0,1.14-1.14V32.39a8.45,8.45,0,0,0,2.27-5.12V21.59h1.14a1.16,1.16,0,0,0,1.14-1.13V19.32A1.23,1.23,0,0,0,35.23,18.18Z"/></g></g></svg>