<svg xmlns="http://www.w3.org/2000/svg" viewBox="0 0 46.11 46.11"><defs><style>.cls-1{fill:#ff5722;}.cls-2{fill:#f9f9f9;}</style></defs><title>Company Logo</title><g id="Layer_2" data-name="Layer 2"><g id="Layer_1-2" data-name="Layer 1"><rect id="Background" class="cls-1" width="46.11" height="46.11" rx="3.64"/><path id="Icon" class="cls-2" d="M28.48,18.79c1.82-2.54,6.59-8,9.54-7a1.87,1.87,0,0,1,1.31,1.38c.41,1.74-1,2.84-3.69,7.2-3.26,5.33-4.27,8.86-5.72,10.28-2.84,3.19-8.6,1.79-7.92-6.88-3.42,5.6-4.27,12.44-10.06,11.27-6.07-1.64-5.8-16-4.38-19.66a5.61,5.61,0,0,1,.53-1.32,3.84,3.84,0,0,1,6.2-1.15c1.43,1.65,1,5.18.81,7.46,1.52-2.62,4.12-6.37,6.54-8.22,3.77-2.81,8.12-1,6.84,6.62Z"/></g></g></svg>