<svg xmlns="http://www.w3.org/2000/svg" viewBox="0 0 18.26 20"><title>Skipforlater</title><g id="Layer_2" data-name="Layer 2"><g id="Layer_1-2" data-name="Layer 1"><path d="M8.26,20a.44.44,0,0,1-.44-.44A.46.46,0,0,1,8,19.25L17.21,10,8,.74A.43.43,0,0,1,8,.13a.45.45,0,0,1,.61,0l9.56,9.56a.44.44,0,0,1,0,.62L8.57,19.87A.48.48,0,0,1,8.26,20Z"/><path d="M.44,20A.44.44,0,0,1,0,19.56a.46.46,0,0,1,.13-.31L9.38,10,.13.74A.43.43,0,0,1,.74.13l9.57,9.56a.43.43,0,0,1,0,.61L.74,19.87A.43.43,0,0,1,.44,20Z"/></g></g></svg>