<svg xmlns="http://www.w3.org/2000/svg" width="103.429" height="103.429" viewBox="0 0 103.429 103.429">
  <g id="Upload_Photo" data-name="Upload Photo" transform="translate(-519.913 -321.785)">
    <g id="Group_23" data-name="Group 23" transform="matrix(0.999, 0.035, -0.035, 0.999, 13.383, -19.722)">
      <path id="Path_314" data-name="Path 314" d="M521.628,373.5h0a50,50,0,0,1,50-50h0a50,50,0,0,1,50,50h0a50,50,0,0,1-50,50h0A50,50,0,0,1,521.628,373.5Z" fill="#fafafa"/>
    </g>
    <g id="Group_26" data-name="Group 26" transform="matrix(0.999, 0.035, -0.035, 0.999, 13.383, -19.722)">
      <g id="Group_25" data-name="Group 25">
        <g id="Group_24" data-name="Group 24">
          <path id="Path_315" data-name="Path 315" d="M591.332,362.012a4.554,4.554,0,0,0-3.342-1.409h-6.682v-.081a3.617,3.617,0,0,0-1.087-2.617,3.688,3.688,0,0,0-2.617-1.087H565.527a3.711,3.711,0,0,0-3.744,3.7v.081H555.14a4.551,4.551,0,0,0-3.341,1.409,4.782,4.782,0,0,0-1.409,3.341V385.4a4.554,4.554,0,0,0,1.409,3.342,4.787,4.787,0,0,0,3.341,1.409h32.85a4.557,4.557,0,0,0,3.342-1.409,4.789,4.789,0,0,0,1.409-3.342V365.353A4.554,4.554,0,0,0,591.332,362.012Zm-.685,23.389h-.04a2.612,2.612,0,0,1-2.617,2.617H555.14a2.612,2.612,0,0,1-2.617-2.617V365.353a2.612,2.612,0,0,1,2.617-2.617h7.77A1.082,1.082,0,0,0,564,361.649v-1.167a1.516,1.516,0,0,1,1.57-1.57H577.6a1.516,1.516,0,0,1,1.57,1.57v1.167a1.082,1.082,0,0,0,1.087,1.087h7.77a2.61,2.61,0,0,1,2.616,2.617Z"/>
          <path id="Path_316" data-name="Path 316" d="M571.565,365.474a9.907,9.907,0,0,0-7.005,16.908,9.9,9.9,0,0,0,16.909-7,9.9,9.9,0,0,0-9.9-9.9Zm5.475,15.418a7.774,7.774,0,0,1-10.95,0,7.7,7.7,0,0,1-2.254-5.475,7.867,7.867,0,0,1,2.254-5.475,7.7,7.7,0,0,1,5.475-2.254,7.869,7.869,0,0,1,5.475,2.254,7.7,7.7,0,0,1,2.255,5.475A7.534,7.534,0,0,1,577.04,380.892Z"/>
          <path id="Path_317" data-name="Path 317" d="M585.9,365.433a1.973,1.973,0,1,1-1.973,1.973A1.974,1.974,0,0,1,585.9,365.433Z"/>
        </g>
      </g>
    </g>
  </g>
</svg>
