<svg xmlns="http://www.w3.org/2000/svg" viewBox="0 0 35.28 35.28"><defs><style>.cls-1{fill:#374047;}</style></defs><title>Uplaod logo</title><g id="Layer_2" data-name="Layer 2"><g id="Layer_1-2" data-name="Layer 1"><path class="cls-1" d="M8.52,11.83a1.36,1.36,0,0,1-1-2.32L16.68.4A1.36,1.36,0,0,1,18.6,2.32L9.48,11.43A1.32,1.32,0,0,1,8.52,11.83Z"/><path class="cls-1" d="M26.75,11.83a1.36,1.36,0,0,1-1-.4L16.68,2.32A1.36,1.36,0,0,1,18.6.4l9.11,9.11a1.36,1.36,0,0,1,0,1.92,1.32,1.32,0,0,1-1,.4Z"/><path class="cls-1" d="M17.64,28.49a1.36,1.36,0,0,1-1.36-1.35V1.36a1.36,1.36,0,1,1,2.72,0V27.14A1.36,1.36,0,0,1,17.64,28.49Z"/><path class="cls-1" d="M32.56,35.28a1.36,1.36,0,0,1,0-2.72h0a1.36,1.36,0,0,1,2.71,0A2.72,2.72,0,0,1,32.56,35.28Z"/><path class="cls-1" d="M33.92,33.92a1.36,1.36,0,0,1-1.36-1.36V23.07a1.36,1.36,0,0,1,2.72,0v9.49A1.36,1.36,0,0,1,33.92,33.92Z"/><path class="cls-1" d="M32.56,35.28H2.71a1.36,1.36,0,0,1,0-2.72H32.56a1.36,1.36,0,0,1,0,2.72Z"/><path class="cls-1" d="M2.71,35.28A2.72,2.72,0,0,1,0,32.56a1.36,1.36,0,0,1,2.71,0h0a1.36,1.36,0,1,1,0,2.72Z"/><path class="cls-1" d="M1.36,33.92A1.36,1.36,0,0,1,0,32.56V23.07a1.36,1.36,0,1,1,2.71,0v9.49A1.35,1.35,0,0,1,1.36,33.92Z"/></g></g></svg>