<svg xmlns="http://www.w3.org/2000/svg" viewBox="0 0 78.51 52.52"><defs><style>.cls-1{fill:#a4a4a6;}.cls-2{fill:#273777;}.cls-3{fill:#a8a9ab;}.cls-4{fill:#cbd433;}.cls-5{fill:#71b445;}.cls-6{fill:#24b2b9;}.cls-7{fill:#58b05a;}.cls-8{fill:#2683c5;}.cls-9{fill:#1e3a6d;}.cls-10{fill:#6f787f;}</style></defs><title>Vision 2030 Footer</title><g id="Layer_2" data-name="Layer 2"><g id="Layer_1-2" data-name="Layer 1"><rect class="cls-1" x="46.25" y="0.95" width="0.88" height="0.88"/><rect class="cls-1" x="64.61" y="11.91" width="0.88" height="0.88"/><path class="cls-1" d="M75.34,11a1.27,1.27,0,0,0,.53-.44,2.07,2.07,0,0,0,.28-.71,5.12,5.12,0,0,0,.08-.93V2.71h-.88V8.88a3.77,3.77,0,0,1,0,.63,1,1,0,0,1-.13.42.49.49,0,0,1-.26.23.93.93,0,0,1-.41.08H74.3l-.24-.06-.23.85a3,3,0,0,0,.71.1A1.73,1.73,0,0,0,75.34,11Z"/><path class="cls-1" d="M72.31,1.15H71.1V1a.4.4,0,0,1,.07-.26.35.35,0,0,1,.27-.08h.61V0h-.63a1.11,1.11,0,0,0-.78.26,1.22,1.22,0,0,0-.27.85v.72h1.94Z"/><rect class="cls-1" x="62.85" y="11.91" width="0.88" height="0.88"/><rect class="cls-1" x="48.02" y="0.95" width="0.88" height="0.88"/><path class="cls-1" d="M68.33,8a3.61,3.61,0,0,0,1.16.52,5.4,5.4,0,0,0,1.41.17h.23l.3-.62V9a1.18,1.18,0,0,1-.4,1,1.84,1.84,0,0,1-1.12.3,3.26,3.26,0,0,1-.73-.08,4.14,4.14,0,0,1-.74-.26l-.28.84a6.84,6.84,0,0,0,.9.28,3,3,0,0,0,.79.1,2.52,2.52,0,0,0,1.87-.61,2.3,2.3,0,0,0,.59-1.65V2.71H70.9A4.39,4.39,0,0,0,69.41,3a3.5,3.5,0,0,0-1.16.63,2.76,2.76,0,0,0-.74,1,2.71,2.71,0,0,0-.27,1.2,2.79,2.79,0,0,0,.3,1.34A2.6,2.6,0,0,0,68.33,8Zm0-3.13a2.39,2.39,0,0,1,.54-.68,2.63,2.63,0,0,1,.77-.43,2.51,2.51,0,0,1,.86-.15h1.43l-.5.25v4h-.9a3.12,3.12,0,0,1-.93-.13,2.47,2.47,0,0,1-.77-.41,1.85,1.85,0,0,1-.52-.65,2,2,0,0,1-.18-.88A1.85,1.85,0,0,1,68.33,4.87Z"/><path class="cls-1" d="M46.49,11h1.84v-.66a.41.41,0,0,0,.05.09,1.27,1.27,0,0,0,.53.44,1.73,1.73,0,0,0,.8.16H65.8V2.71h-.88v7.44H49.74a1,1,0,0,1-.42-.08.5.5,0,0,1-.25-.23,1,1,0,0,1-.13-.41,4,4,0,0,1,0-.64V2.71H46.51a4.06,4.06,0,0,0-4.1,4.14v0A4,4,0,0,0,46.49,11ZM43.35,6.83a3.15,3.15,0,0,1,3.14-3.28h2.07L48,3.82v5a4.36,4.36,0,0,0,.08.93,1.89,1.89,0,0,0,.14.44H46.51a3.19,3.19,0,0,1-3.16-3.31Z"/><polygon class="cls-1" points="38 8.81 38.38 9.82 32.77 2.7 31.9 2.7 31.9 10.98 32.81 10.98 32.81 4.74 32.29 3.54 38.16 10.98 38.91 10.98 38.91 2.7 38 2.7 38 8.81"/><path class="cls-1" d="M50.57,24.2l5.09-4.85V16H42.06v3.79h7l2.59-1.67-6.46,6.49.69,2.81h1.84c2.48,0,3.94.92,3.94,2.56v.05c0,1.5-1.18,2.44-2.84,2.44a6.15,6.15,0,0,1-4.86-2.41l-3,2.9a9.76,9.76,0,0,0,7.85,3.47c4.49,0,7.25-2.78,7.25-6.57v-.06C56,26.09,53.3,24.66,50.57,24.2Z"/><path class="cls-1" d="M26.15,2.56a4.2,4.2,0,0,0-4.24,4.28v0a4.15,4.15,0,0,0,4.22,4.26,4.2,4.2,0,0,0,4.24-4.28v0A4.17,4.17,0,0,0,26.15,2.56Zm3.25,4.3a3.26,3.26,0,0,1-3.25,3.4,3.3,3.3,0,0,1-3.27-3.42v0a3.25,3.25,0,0,1,3.25-3.39A3.29,3.29,0,0,1,29.4,6.84Z"/><path class="cls-1" d="M67.84,15.67A10.4,10.4,0,0,0,57.12,26.06v.06A10.3,10.3,0,0,0,67.79,36.45,10.4,10.4,0,0,0,78.51,26.06v0A10.3,10.3,0,0,0,67.84,15.67Zm6,10.45a6,6,0,0,1-6,6.26,6.11,6.11,0,0,1-6.09-6.32v0a6,6,0,0,1,6-6.26,6.11,6.11,0,0,1,6.09,6.31Z"/><rect class="cls-1" x="19.36" y="2.7" width="0.94" height="8.27"/><path class="cls-1" d="M4.33,33.81l.86-.66,4.4-3.38C13.15,27,14.88,25.35,14.88,22v-.06c0-3.76-2.76-6.2-6.93-6.2-3.6,0-5.52,1.46-7.51,4.16l3.11,2.5c1.49-1.84,2.56-2.7,4.11-2.7a2.47,2.47,0,0,1,2.7,2.61c0,1.67-1,2.76-3.48,4.83L.18,32.61v3.5h14.9V32.29H7.4Z"/><polygon class="cls-1" points="4.39 11.04 7.96 2.7 6.95 2.7 4.13 9.49 4.22 10.4 3.99 9.83 1.55 3.94 1.04 2.7 0 2.7 3.56 11.04 4.39 11.04"/><rect class="cls-1" x="9.23" y="2.7" width="0.94" height="8.27"/><path class="cls-1" d="M15.12,6.39c-1.83-.39-2.25-.83-2.25-1.61v0c0-.74.68-1.33,1.76-1.33A3.63,3.63,0,0,1,17,4.32l.55-.72a4.35,4.35,0,0,0-2.91-1c-1.58,0-2.73,1-2.73,2.25v0c0,1.36.88,2,2.79,2.38,1.74.37,2.15.81,2.15,1.58v0c0,.82-.73,1.41-1.85,1.41a4,4,0,0,1-2.84-1.17l-.58.68A4.85,4.85,0,0,0,15,11.1c1.64,0,2.83-.93,2.83-2.34v0C17.82,7.47,17,6.79,15.12,6.39Z"/><polygon class="cls-2" points="27.11 14.35 28.13 15.33 27.15 16.35 26.13 15.37 27.11 14.35"/><polygon class="cls-3" points="29.44 15.37 30.46 16.35 31.44 15.33 30.42 14.35 29.44 15.37"/><polygon class="cls-4" points="28.01 16.65 28.8 17.41 29.56 16.62 28.77 15.86 28.01 16.65"/><polygon class="cls-5" points="30.92 17.09 31.71 17.85 32.47 17.05 31.68 16.29 30.92 17.09"/><polygon class="cls-4" points="26.71 17.86 27.5 18.62 28.27 17.83 27.47 17.07 26.71 17.86"/><polygon class="cls-6" points="29.37 17.95 30.17 18.71 30.93 17.92 30.14 17.16 29.37 17.95"/><polygon class="cls-5" points="28.33 18.87 28.89 19.4 29.43 18.84 28.87 18.31 28.33 18.87"/><polygon class="cls-7" points="30.44 19.29 31 19.82 31.53 19.26 30.98 18.73 30.44 19.29"/><rect class="cls-8" x="35.18" y="14.87" width="1.76" height="1.76" transform="translate(-2.25 6.76) rotate(-10.39)"/><rect class="cls-9" x="32.89" y="15.63" width="1.41" height="1.41" transform="translate(-2.39 6.32) rotate(-10.38)"/><rect class="cls-6" x="35.58" y="17.57" width="1.41" height="1.41" transform="translate(-2.7 6.85) rotate(-10.39)"/><rect class="cls-4" x="33.64" y="17.8" width="1.1" height="1.1" transform="translate(-2.75 6.46) rotate(-10.38)"/><rect class="cls-3" x="35.74" y="19.85" width="1.1" height="1.1" transform="translate(-3.08 6.87) rotate(-10.38)"/><rect class="cls-6" x="32.02" y="18.24" width="1.1" height="1.1" transform="translate(-2.85 6.18) rotate(-10.38)"/><rect class="cls-5" x="33.98" y="19.65" width="1.1" height="1.1" transform="translate(-3.08 6.55) rotate(-10.38)"/><rect class="cls-3" x="32.58" y="19.82" width="0.77" height="0.77" transform="translate(-3.1 6.28) rotate(-10.39)"/><rect class="cls-7" x="34.04" y="21.39" width="0.77" height="0.77" transform="translate(-3.35 6.55) rotate(-10.36)"/><polygon class="cls-2" points="40.19 20.71 39.43 22.3 41.02 23.05 41.78 21.47 40.19 20.71"/><polygon class="cls-6" points="37.93 19.98 37.33 21.25 38.6 21.86 39.21 20.58 37.93 19.98"/><polygon class="cls-5" points="38.98 23.11 38.37 24.39 39.65 24.99 40.25 23.72 38.98 23.11"/><polygon class="cls-4" points="37.3 22.16 36.83 23.15 37.83 23.62 38.3 22.63 37.3 22.16"/><polygon class="cls-4" points="37.81 25.05 37.34 26.04 38.33 26.52 38.8 25.52 37.81 25.05"/><polygon class="cls-8" points="35.73 21.57 35.26 22.56 36.25 23.03 36.73 22.04 35.73 21.57"/><polygon class="cls-3" points="36.5 23.86 36.02 24.85 37.02 25.33 37.49 24.33 36.5 23.86"/><polygon class="cls-5" points="35.3 23.16 34.97 23.86 35.67 24.19 36 23.5 35.3 23.16"/><rect class="cls-6" x="35.36" y="25.42" width="0.77" height="0.77" transform="translate(-2.91 47) rotate(-64.55)"/><polygon class="cls-8" points="41.05 28.31 39.5 29.16 40.35 30.7 41.89 29.85 41.05 28.31"/><polygon class="cls-6" points="39.65 26.4 38.41 27.08 39.09 28.31 40.33 27.63 39.65 26.4"/><polygon class="cls-6" points="38.65 29.55 37.41 30.23 38.09 31.47 39.33 30.79 38.65 29.55"/><polygon class="cls-2" points="37.86 27.8 36.89 28.33 37.42 29.29 38.39 28.76 37.86 27.8"/><polygon class="cls-7" points="36.57 30.44 35.61 30.97 36.13 31.93 37.1 31.4 36.57 30.44"/><polygon class="cls-9" points="36.93 26.4 35.96 26.93 36.49 27.89 37.46 27.37 36.93 26.4"/><polygon class="cls-4" points="36.2 28.71 35.24 29.24 35.77 30.2 36.73 29.67 36.2 28.71"/><polygon class="cls-3" points="35.64 27.45 34.97 27.82 35.34 28.49 36.02 28.12 35.64 27.45"/><polygon class="cls-6" points="34.61 29.32 33.93 29.7 34.3 30.37 34.98 30 34.61 29.32"/><rect class="cls-5" x="35.42" y="34.86" width="1.76" height="1.76" transform="translate(-3.62 67.39) rotate(-82.95)"/><rect class="cls-9" x="35.78" y="32.51" width="1.41" height="1.41" transform="translate(-0.97 65.34) rotate(-82.94)"/><rect class="cls-6" x="33.13" y="34.49" width="1.41" height="1.41" transform="translate(-5.26 64.44) rotate(-82.94)"/><rect class="cls-5" x="33.84" y="32.63" width="1.1" height="1.1" transform="translate(-2.76 63.23) rotate(-82.95)"/><rect class="cls-3" x="31.24" y="34.02" width="1.1" height="1.1" transform="translate(-6.41 61.88) rotate(-82.95)"/><rect class="cls-3" x="33.9" y="30.95" width="1.1" height="1.1" transform="translate(-1.05 61.82) rotate(-82.94)"/><rect class="cls-5" x="31.96" y="32.4" width="1.1" height="1.1" transform="translate(-4.18 61.16) rotate(-82.94)"/><rect class="cls-3" x="32.59" y="31.07" width="0.77" height="0.77" transform="translate(-2.28 60.32) rotate(-82.95)"/><rect class="cls-3" x="30.66" y="31.99" width="0.77" height="0.77" transform="translate(-4.9 59.21) rotate(-82.95)"/><polygon class="cls-4" points="30.33 38.18 29.04 36.99 27.84 38.28 29.13 39.47 30.33 38.18"/><polygon class="cls-5" points="30.09 13.56 28.8 12.37 27.6 13.66 28.89 14.85 30.09 13.56"/><polygon class="cls-6" points="31.71 36.25 30.67 35.3 29.71 36.33 30.75 37.29 31.71 36.25"/><polygon class="cls-5" points="28.4 36.31 27.36 35.35 26.4 36.38 27.43 37.34 28.4 36.31"/><polygon class="cls-8" points="29.81 35 29 34.26 28.25 35.06 29.06 35.81 29.81 35"/><polygon class="cls-4" points="26.89 34.62 26.09 33.87 25.34 34.67 26.14 35.42 26.89 34.62"/><polygon class="cls-4" points="30.84 33.68 30.04 32.94 29.29 33.74 30.1 34.49 30.84 33.68"/><polygon class="cls-3" points="28.42 33.72 27.62 32.98 26.87 33.78 27.67 34.53 28.42 33.72"/><polygon class="cls-9" points="29.45 32.79 28.88 32.27 28.36 32.83 28.92 33.36 29.45 32.79"/><polygon class="cls-3" points="27.34 32.41 26.77 31.88 26.24 32.45 26.81 32.98 27.34 32.41"/><rect class="cls-8" x="20.89" y="35.16" width="1.76" height="1.76" transform="translate(-6.66 4.98) rotate(-11.33)"/><rect class="cls-6" x="23.52" y="34.7" width="1.41" height="1.41" transform="translate(-6.48 5.45) rotate(-11.33)"/><rect class="cls-5" x="20.8" y="32.82" width="1.41" height="1.41" transform="translate(-6.17 4.88) rotate(-11.34)"/><rect class="cls-4" x="23.05" y="32.86" width="1.1" height="1.1" transform="translate(-6.1 5.29) rotate(-11.33)"/><rect class="cls-2" x="24.67" y="32.39" width="1.1" height="1.1" transform="translate(-5.98 5.59) rotate(-11.33)"/><rect class="cls-8" x="22.68" y="31.01" width="1.1" height="1.1" transform="translate(-5.75 5.18) rotate(-11.33)"/><rect class="cls-5" x="24.41" y="31.15" width="0.77" height="0.77" transform="translate(-5.71 5.48) rotate(-11.32)"/><rect class="cls-3" x="22.92" y="29.6" width="0.77" height="0.77" transform="translate(-5.44 5.17) rotate(-11.34)"/><polygon class="cls-6" points="17.56 31.15 18.29 29.55 16.69 28.82 15.96 30.42 17.56 31.15"/><polygon class="cls-4" points="19.83 31.84 20.42 30.56 19.13 29.97 18.55 31.26 19.83 31.84"/><polygon class="cls-8" points="18.74 28.72 19.32 27.44 18.04 26.86 17.45 28.14 18.74 28.72"/><rect class="cls-6" x="19.6" y="28.37" width="1.1" height="1.1" transform="translate(-14.53 35.26) rotate(-65.48)"/><polygon class="cls-3" points="21.76 32.15 22.22 31.15 21.22 30.69 20.76 31.69 21.76 32.15"/><rect class="cls-2" x="19.05" y="25.49" width="1.1" height="1.1" transform="translate(-12.23 33.06) rotate(-65.48)"/><rect class="cls-7" x="21.18" y="28.94" width="1.1" height="1.1" transform="translate(-14.11 37.02) rotate(-65.48)"/><rect class="cls-4" x="20.38" y="26.66" width="1.1" height="1.1" transform="translate(-12.51 34.95) rotate(-65.46)"/><polygon class="cls-9" points="22.41 28.61 22.73 27.91 22.03 27.59 21.71 28.29 22.41 28.61"/><polygon class="cls-5" points="22.11 26.49 22.43 25.79 21.73 25.47 21.41 26.17 22.11 26.49"/><polygon class="cls-6" points="16.58 23.56 18.11 22.69 17.24 21.16 15.71 22.03 16.58 23.56"/><polygon class="cls-5" points="18.01 25.45 19.24 24.75 18.54 23.53 17.31 24.23 18.01 25.45"/><polygon class="cls-9" points="18.95 22.28 20.18 21.58 19.48 20.36 18.25 21.06 18.95 22.28"/><polygon class="cls-8" points="19.78 24.02 20.73 23.47 20.19 22.52 19.23 23.06 19.78 24.02"/><polygon class="cls-5" points="21.02 21.36 21.98 20.81 21.43 19.86 20.48 20.4 21.02 21.36"/><polygon class="cls-6" points="20.73 25.4 21.68 24.86 21.14 23.9 20.18 24.45 20.73 25.4"/><polygon class="cls-4" points="21.42 23.08 22.37 22.54 21.83 21.58 20.87 22.13 21.42 23.08"/><polygon class="cls-3" points="22 24.34 22.67 23.95 22.29 23.28 21.61 23.66 22 24.34"/><polygon class="cls-5" points="23 22.44 23.67 22.06 23.29 21.39 22.61 21.77 23 22.44"/><rect class="cls-5" x="20.32" y="15.17" width="1.76" height="1.76" transform="translate(2.98 35.43) rotate(-83.9)"/><rect class="cls-3" x="20.36" y="17.87" width="1.41" height="1.41" transform="translate(0.35 37.54) rotate(-83.89)"/><rect class="cls-6" x="22.98" y="15.85" width="1.41" height="1.41" transform="translate(4.7 38.34) rotate(-83.89)"/><rect class="cls-4" x="22.61" y="18.04" width="1.1" height="1.1" transform="translate(2.21 39.63) rotate(-83.89)"/><rect class="cls-8" x="25.18" y="16.6" width="1.1" height="1.1" transform="translate(5.94 40.91) rotate(-83.91)"/><rect class="cls-6" x="22.57" y="19.71" width="1.1" height="1.1" transform="translate(0.51 41.09) rotate(-83.89)"/><rect class="cls-5" x="24.49" y="18.23" width="1.1" height="1.1" transform="matrix(0.11, -0.99, 0.99, 0.11, 3.69, 41.68)"/><rect class="cls-9" x="24.21" y="19.9" width="0.77" height="0.77" transform="translate(1.81 42.58) rotate(-83.89)"/><rect class="cls-3" x="26.13" y="18.94" width="0.77" height="0.77" transform="translate(4.49 43.65) rotate(-83.93)"/><path class="cls-10" d="M34.4,27a3.1,3.1,0,0,0-.7-.3,4.09,4.09,0,0,0-1.92-.14,4.81,4.81,0,0,0-.83.21l-.08,0a3.49,3.49,0,0,0-.44.2l-.38.2c-.28.17-.56.37-.84.58a18,18,0,0,1-.08-4.47h0c.66.42.48,1.58.34,1.92h0a2.07,2.07,0,0,0,.25-2.33h0a1.7,1.7,0,0,1,.3.3,1.84,1.84,0,0,1,.38,1,3.36,3.36,0,0,1,0,.45.34.34,0,0,0,0,.1h0a1.93,1.93,0,0,0,0-1.74,2.22,2.22,0,0,0-.38-.52l-.15-.14a0,0,0,0,1,0,0l.14,0a1.46,1.46,0,0,1,.9.91,1.85,1.85,0,0,1,.12.64h0A1.58,1.58,0,0,0,31,22.6a1.54,1.54,0,0,0-.52-.5,1.39,1.39,0,0,0-.38-.17l-.18,0s0,0,0,0h.18a1.54,1.54,0,0,1,.38,0,1.49,1.49,0,0,1,.52.2,1.08,1.08,0,0,1,.35.38h0a1.06,1.06,0,0,0-.36-.71,1.46,1.46,0,0,0-.52-.28,1.73,1.73,0,0,0-.38,0,1.4,1.4,0,0,0-.47.08s0,0,0,0a.91.91,0,0,1,.48-.33,1,1,0,0,1,.38-.05.88.88,0,0,1,.3.07s0,0,0,0a1.22,1.22,0,0,0-.31-.25.89.89,0,0,0-.38-.12.93.93,0,0,0-.9.44h0A1.46,1.46,0,0,1,29,21a3.13,3.13,0,0,1-.2-.68h0a3.16,3.16,0,0,1-.21.68c0,.09-.08.18-.12.25h0a1,1,0,0,0-1.59-.07s0,0,0,0a1,1,0,0,1,1.16.31s0,0,0,0a1.4,1.4,0,0,0-1.49.37,1,1,0,0,0-.24.59h0a1.07,1.07,0,0,1,.23-.28,1.5,1.5,0,0,1,1.2-.32s0,0,0,0a1.6,1.6,0,0,0-1.2,1,1.68,1.68,0,0,0,0,1.07h0v0a1.6,1.6,0,0,1,1.16-1.56s0,0,0,0a2,2,0,0,0-.53,2.4s0,0,0,0a2,2,0,0,1,.67-1.84h0a2.07,2.07,0,0,0,.25,2.33h0c-.14-.34-.33-1.5.33-1.92h0a17.47,17.47,0,0,1-.08,4.47,6.82,6.82,0,0,0-1.66-1l-.2-.07A4.31,4.31,0,0,0,25,26.51a3.89,3.89,0,0,0-1.61.41L23.2,27s0,0,0,0l.15,0A4.31,4.31,0,0,1,25,26.83a4.87,4.87,0,0,1,1.56.42,7.93,7.93,0,0,1,1.86,1.21,22.11,22.11,0,0,1-1.86,1.59l-.06,0a.44.44,0,0,0-.45-.17.42.42,0,0,0-.32.32.41.41,0,0,0,.08.38.63.63,0,0,0,.75.11A10,10,0,0,0,28.59,29l.21-.19L29,29l1,1,.38.33a3.51,3.51,0,0,0,.52.36.67.67,0,0,0,.83,0l0,0a.49.49,0,0,0,.08-.38.38.38,0,0,0-.12-.21.43.43,0,0,0-.2-.11.44.44,0,0,0-.45.17L31,30a5,5,0,0,1-.52-.42l-.38-.34-.84-.75c.27-.22.55-.44.84-.64l.38-.24L31,27.3a5.89,5.89,0,0,1,.83-.31,4.39,4.39,0,0,1,1.92-.12,3.61,3.61,0,0,1,.69.16s0,0,0,0"/><rect class="cls-1" x="4.09" y="46.14" width="0.52" height="0.52"/><path class="cls-1" d="M39,45.55V42.12H38.5V45H36.59V42.12h-.5V45h-2V42.12h-.8a2.81,2.81,0,0,0-.85.13,2.08,2.08,0,0,0-.66.36,1.62,1.62,0,0,0-.42.55,1.54,1.54,0,0,0-.15.68,1.68,1.68,0,0,0,.17.77,1.56,1.56,0,0,0,.46.53,1.91,1.91,0,0,0,.66.3,3,3,0,0,0,.79.11ZM32.54,45a1.14,1.14,0,0,1-.43-.24,1,1,0,0,1-.3-.38,1.12,1.12,0,0,1-.11-.5,1.06,1.06,0,0,1,.12-.5,1.26,1.26,0,0,1,.31-.38,1.48,1.48,0,0,1,.44-.25,1.7,1.7,0,0,1,.51-.08h.49V45h-.49A1.91,1.91,0,0,1,32.54,45Z"/><rect class="cls-1" x="28.2" y="41.02" width="0.51" height="4.52"/><rect class="cls-1" x="33.56" y="41.02" width="0.52" height="0.52"/><rect class="cls-1" x="38.49" y="46.14" width="0.52" height="0.52"/><rect class="cls-1" x="4.97" y="46.14" width="0.52" height="0.52"/><path class="cls-1" d="M26.22,45h-.83a1.64,1.64,0,0,1-.69-.12,1,1,0,0,1-.4-.38,2.21,2.21,0,0,0,0-.48V42.44h-.5v1.71a1,1,0,0,1-.23.69.9.9,0,0,1-.71.26,1.35,1.35,0,0,1-.41-.06,1.08,1.08,0,0,1-.31-.19.94.94,0,0,1-.21-.28.85.85,0,0,1-.08-.35V42.44h-.51v1.74a1,1,0,0,1-.07.4.63.63,0,0,1-.19.26.72.72,0,0,1-.27.15.86.86,0,0,1-.32,0h-1v-2.6h-.5V45H16.39l.89-2.11a4.46,4.46,0,0,0-.43-.33,4.39,4.39,0,0,0-.47-.27,2.92,2.92,0,0,0-.49-.19,2,2,0,0,0-.48-.06,2.14,2.14,0,0,0-.5.06l-.49.18a3.14,3.14,0,0,0-.46.28,3.39,3.39,0,0,0-.42.33L14.43,45H12.68V42.12h-.81a2.81,2.81,0,0,0-.85.13,1.92,1.92,0,0,0-.66.37,1.45,1.45,0,0,0-.43.55,1.58,1.58,0,0,0-.15.69,1.54,1.54,0,0,0,.62,1.29,2.17,2.17,0,0,0,.67.3,3.44,3.44,0,0,0,.8.1h.3v.14a.67.67,0,0,1-.22.57,1.1,1.1,0,0,1-.64.17,1.73,1.73,0,0,1-.42,0,2.47,2.47,0,0,1-.43-.15l-.16.49.52.16a2.3,2.3,0,0,0,.45,0,1.39,1.39,0,0,0,1.07-.35,1.26,1.26,0,0,0,.34-.94v-.09h7.85a1.39,1.39,0,0,0,.65-.16,1.47,1.47,0,0,0,.47-.42,1.26,1.26,0,0,0,.5.47,1.6,1.6,0,0,0,.75.17,1.65,1.65,0,0,0,.77-.16,1.08,1.08,0,0,0,.49-.48,1.46,1.46,0,0,0,.16.21.84.84,0,0,0,.23.18,1.6,1.6,0,0,0,.35.14l.37,0h1.46V41h-.51Zm-14,0h-.51a1.51,1.51,0,0,1-.53-.08,1.23,1.23,0,0,1-.44-.23,1,1,0,0,1-.3-.37,1.15,1.15,0,0,1-.11-.5,1.06,1.06,0,0,1,.12-.5,1.3,1.3,0,0,1,.31-.39,1.36,1.36,0,0,1,.44-.25,1.44,1.44,0,0,1,.51-.09h.51ZM15,45l-.79-1.93a1.72,1.72,0,0,1,.6-.36,1.69,1.69,0,0,1,.64-.12,1.79,1.79,0,0,1,.67.14,1.76,1.76,0,0,1,.57.34L15.86,45Z"/><rect class="cls-1" x="2.36" y="41.02" width="0.52" height="0.52"/><rect class="cls-1" x="53.47" y="41.02" width="0.52" height="0.52"/><rect class="cls-1" x="48.99" y="41.02" width="0.51" height="4.52"/><rect class="cls-1" x="32.67" y="41.02" width="0.52" height="0.52"/><path class="cls-1" d="M9,43.56A1.92,1.92,0,0,0,8.9,43a1.31,1.31,0,0,0-.25-.45,1.45,1.45,0,0,0-.45-.33,1.55,1.55,0,0,0-.61-.11H7.22v.51h.44a.72.72,0,0,1,.35.08.79.79,0,0,1,.27.2.89.89,0,0,1,.15.29,1.43,1.43,0,0,1,0,.38V45H6.1v.51H9Z"/><rect class="cls-1" x="75.73" y="41.02" width="0.51" height="4.52"/><rect class="cls-1" x="54.35" y="41.02" width="0.52" height="0.52"/><path class="cls-1" d="M74.26,41h-.51v4H72a1.7,1.7,0,0,0,.16-.74,1.94,1.94,0,0,0-.14-.73,1.85,1.85,0,0,0-.39-.58,1.65,1.65,0,0,0-.58-.39,1.79,1.79,0,0,0-.73-.14,1.67,1.67,0,0,0-.71.14,1.84,1.84,0,0,0-1,1,1.92,1.92,0,0,0-.1,1.11,1.42,1.42,0,0,0,.11.35H67.11a1.7,1.7,0,0,0,.16-.74,1.94,1.94,0,0,0-.14-.73,1.85,1.85,0,0,0-.39-.58,1.69,1.69,0,0,0-.59-.39,1.73,1.73,0,0,0-.73-.14,1.65,1.65,0,0,0-.7.14,1.91,1.91,0,0,0-1,1,1.89,1.89,0,0,0-.14.72,1.74,1.74,0,0,0,.05.39,1.42,1.42,0,0,0,.11.35H62.17V41h-.5v4H60.06v-.77a2,2,0,0,0-.08-.55,1.15,1.15,0,0,0-.24-.45,1.54,1.54,0,0,0-.44-.33,1.63,1.63,0,0,0-.63-.1H56.44l1-1.82h-.55l-1,1.81a.82.82,0,0,0,.08.29.62.62,0,0,0,.15.22h2.57a1.32,1.32,0,0,1,.42.07.84.84,0,0,1,.28.2.65.65,0,0,1,.14.29,1.4,1.4,0,0,1,0,.37V45H54.88V42.12h-.8a2.88,2.88,0,0,0-.86.13,2.2,2.2,0,0,0-.66.36,1.62,1.62,0,0,0-.42.55,1.69,1.69,0,0,0-.14.68,1.56,1.56,0,0,0,.17.77,1.54,1.54,0,0,0,.45.53,2,2,0,0,0,.66.3,3,3,0,0,0,.8.11h10a2.1,2.1,0,0,0,.59.42,1.77,1.77,0,0,0,.73.15,1.91,1.91,0,0,0,.76-.15,1.81,1.81,0,0,0,.6-.42H69a2.06,2.06,0,0,0,.58.42,1.81,1.81,0,0,0,.74.15,1.86,1.86,0,0,0,.75-.15,1.71,1.71,0,0,0,.6-.42h2.58ZM54.37,45h-.5a1.78,1.78,0,0,1-.53-.08,1.18,1.18,0,0,1-.44-.24,1.1,1.1,0,0,1-.29-.38,1.12,1.12,0,0,1-.11-.5,1.06,1.06,0,0,1,.12-.5,1.26,1.26,0,0,1,.31-.38,1.36,1.36,0,0,1,.44-.25,1.69,1.69,0,0,1,.5-.08h.5Zm12.29-.22a1.34,1.34,0,0,1-.28.42,1.36,1.36,0,0,1-.43.27,1.32,1.32,0,0,1-.53.1,1.26,1.26,0,0,1-.51-.11,1.15,1.15,0,0,1-.41-.28,1.17,1.17,0,0,1-.27-.42,1.35,1.35,0,0,1,0-1,1.17,1.17,0,0,1,.27-.42,1.14,1.14,0,0,1,.4-.29,1.31,1.31,0,0,1,.52-.11,1.31,1.31,0,0,1,1,.38,1.19,1.19,0,0,1,.28.42,1.45,1.45,0,0,1,0,1.06Zm4.9,0a1.34,1.34,0,0,1-.28.42,1.41,1.41,0,0,1-1,.37,1.27,1.27,0,0,1-.52-.11,1.15,1.15,0,0,1-.41-.28,1.32,1.32,0,0,1-.27-.42,1.35,1.35,0,0,1,0-1,1.17,1.17,0,0,1,.27-.42,1.09,1.09,0,0,1,.41-.29,1.24,1.24,0,0,1,.52-.11,1.32,1.32,0,0,1,.53.1,1.34,1.34,0,0,1,.42.28,1.19,1.19,0,0,1,.28.42,1.33,1.33,0,0,1,0,1.06Z"/><path class="cls-1" d="M1.29,45.44a3,3,0,0,0,.79.11H5.39V42.12h-.5V45h-2V42.12h-.8a2.81,2.81,0,0,0-.85.13,2.08,2.08,0,0,0-.66.36,1.62,1.62,0,0,0-.42.55,1.54,1.54,0,0,0-.15.68,1.68,1.68,0,0,0,.17.77,1.56,1.56,0,0,0,.46.53A2,2,0,0,0,1.29,45.44Zm-.78-1.6a1,1,0,0,1,.11-.5A1.26,1.26,0,0,1,.93,43a1.48,1.48,0,0,1,.44-.25,1.75,1.75,0,0,1,.51-.08h.5V45h-.5A1.91,1.91,0,0,1,1.34,45a1.14,1.14,0,0,1-.43-.24,1,1,0,0,1-.3-.38A1.12,1.12,0,0,1,.51,43.84Z"/><rect class="cls-1" x="36.65" y="46.14" width="0.52" height="0.52"/><rect class="cls-1" x="35.76" y="46.14" width="0.52" height="0.52"/><path class="cls-1" d="M41,46.19a2.26,2.26,0,0,0,.05-.54v-.1h6.5V41H47v4H44.87l.88-2.11a2.88,2.88,0,0,0-.43-.33,4.25,4.25,0,0,0-.46-.27,3.3,3.3,0,0,0-.49-.19,2.05,2.05,0,0,0-.49-.06,2.12,2.12,0,0,0-.49.06,4.84,4.84,0,0,0-.49.18,3.24,3.24,0,0,0-.47.28,3.39,3.39,0,0,0-.42.33L42.9,45H41V42.12h-.5v3.53a1.9,1.9,0,0,1,0,.37.84.84,0,0,1-.07.24.37.37,0,0,1-.15.13.73.73,0,0,1-.23,0h-.12l-.14,0-.13.49a1.84,1.84,0,0,0,.41,0,1,1,0,0,0,.45-.09.62.62,0,0,0,.3-.25A1,1,0,0,0,41,46.19Zm1.68-3.08a1.86,1.86,0,0,1,1.23-.48,1.8,1.8,0,0,1,.68.14,2,2,0,0,1,.57.34L44.34,45h-.9Z"/><rect class="cls-1" x="1.47" y="41.02" width="0.52" height="0.52"/><polygon class="cls-1" points="3.63 48.86 2.85 48.86 1.13 50.67 1.13 48.86 0.49 48.86 0.49 52.46 1.13 52.46 1.13 51.42 1.69 50.84 2.92 52.46 3.69 52.46 2.12 50.41 3.63 48.86"/><rect class="cls-1" x="4.27" y="48.86" width="0.63" height="3.6"/><polygon class="cls-1" points="8.4 51.35 6.47 48.86 5.88 48.86 5.88 52.46 6.5 52.46 6.5 49.9 8.49 52.46 9.03 52.46 9.03 48.86 8.4 48.86 8.4 51.35"/><path class="cls-1" d="M11.65,51h.93v.67a1.49,1.49,0,0,1-.88.28,1.21,1.21,0,0,1-1.22-1.29h0a1.21,1.21,0,0,1,1.17-1.27,1.4,1.4,0,0,1,1,.39l.4-.48a1.93,1.93,0,0,0-1.39-.49,1.84,1.84,0,0,0-1.86,1.86h0a1.79,1.79,0,0,0,1.87,1.85A2.29,2.29,0,0,0,13.19,52V50.45H11.65Z"/><path class="cls-1" d="M15.41,48.86H14.07v3.6h1.34a1.81,1.81,0,0,0,1.92-1.8h0A1.8,1.8,0,0,0,15.41,48.86Zm1.25,1.81a1.17,1.17,0,0,1-1.25,1.22H14.7V49.44h.71a1.18,1.18,0,0,1,1.25,1.22Z"/><path class="cls-1" d="M19.82,48.8a1.85,1.85,0,0,0-1.9,1.86h0a1.83,1.83,0,0,0,1.88,1.85,1.85,1.85,0,0,0,1.9-1.86h0A1.83,1.83,0,0,0,19.82,48.8ZM21,50.67a1.22,1.22,0,0,1-1.21,1.27,1.23,1.23,0,0,1-1.23-1.28h0a1.22,1.22,0,0,1,1.21-1.27A1.23,1.23,0,0,1,21,50.66Z"/><polygon class="cls-1" points="24.26 50.56 23.16 48.86 22.48 48.86 22.48 52.46 23.11 52.46 23.11 49.89 24.24 51.58 24.26 51.58 25.4 49.88 25.4 52.46 26.03 52.46 26.03 48.86 25.36 48.86 24.26 50.56"/><path class="cls-1" d="M30.24,48.8a1.84,1.84,0,0,0-1.89,1.86h0a1.82,1.82,0,0,0,1.88,1.85,1.84,1.84,0,0,0,1.89-1.86h0A1.83,1.83,0,0,0,30.24,48.8Zm1.22,1.87a1.22,1.22,0,0,1-1.22,1.27A1.23,1.23,0,0,1,29,50.66h0a1.22,1.22,0,0,1,1.22-1.27,1.23,1.23,0,0,1,1.23,1.28Z"/><polygon class="cls-1" points="32.91 52.46 33.55 52.46 33.55 50.99 35.37 50.99 35.37 50.42 33.55 50.42 33.55 49.44 35.6 49.44 35.6 48.86 32.91 48.86 32.91 52.46"/><path class="cls-1" d="M39.23,50.37c-.69-.16-.85-.29-.85-.56h0c0-.24.22-.43.59-.43a1.67,1.67,0,0,1,1,.37l.34-.48A2,2,0,0,0,39,48.81a1.11,1.11,0,0,0-1.24,1h0c0,.67.44.89,1.21,1.08s.81.29.81.55h0c0,.27-.25.45-.64.45A1.67,1.67,0,0,1,38,51.48l-.38.46a2.24,2.24,0,0,0,1.51.57c.75,0,1.28-.4,1.28-1.07h0C40.39,50.83,40,50.56,39.23,50.37Z"/><path class="cls-1" d="M42.34,48.83l-1.59,3.63h.65l.37-.87h1.71l.36.87h.67l-1.58-3.63ZM42,51l.62-1.44L43.25,51Z"/><path class="cls-1" d="M47.34,50.93c0,.67-.34,1-.91,1s-.91-.36-.91-1v-2h-.63v2.07a1.42,1.42,0,0,0,1.53,1.59A1.44,1.44,0,0,0,48,50.9v-2h-.64Z"/><path class="cls-1" d="M50.25,48.86H48.9v3.6h1.35a1.81,1.81,0,0,0,1.92-1.8h0A1.8,1.8,0,0,0,50.25,48.86Zm1.25,1.81a1.17,1.17,0,0,1-1.25,1.22h-.71V49.44h.71a1.18,1.18,0,0,1,1.25,1.22Z"/><rect class="cls-1" x="52.97" y="48.86" width="0.63" height="3.6"/><path class="cls-1" d="M57.4,48.83l-1.59,3.63h.65l.37-.87h1.71l.36.87h.67L58,48.83ZM57.06,51l.62-1.44L58.3,51Z"/><path class="cls-1" d="M63.12,50h0a1.1,1.1,0,0,0-.3-.78,1.44,1.44,0,0,0-1-.36H60.17v3.6h.64V51.21h.79l.89,1.25h.74l-1-1.36A1.09,1.09,0,0,0,63.12,50Zm-2.31.64V49.44h.92c.47,0,.75.21.75.59h0c0,.37-.29.61-.75.61Z"/><path class="cls-1" d="M65.29,48.83,63.7,52.46h.65l.37-.87h1.71l.36.87h.67l-1.58-3.63ZM65,51l.62-1.44L66.2,51Z"/><path class="cls-1" d="M70.35,50.59a.86.86,0,0,0,.52-.8h0a.8.8,0,0,0-.24-.6,1.3,1.3,0,0,0-.95-.32H68.06v3.6h1.67c.81,0,1.34-.34,1.34-1h0A.88.88,0,0,0,70.35,50.59Zm-1.66-1.17h.91c.41,0,.63.18.63.46h0c0,.33-.27.49-.68.49h-.86Zm1.75,2c0,.32-.27.49-.7.49h-1v-1h1c.5,0,.75.18.75.49Z"/><rect class="cls-1" x="71.86" y="48.86" width="0.63" height="3.6"/><path class="cls-1" d="M75.27,48.83h-.59l-1.59,3.63h.65l.38-.87h1.7l.37.87h.67ZM74.35,51,75,49.59,75.59,51Z"/></g></g></svg>